<svg id="amex_1_" xmlns="http://www.w3.org/2000/svg" viewBox="0 0 50 50">
  <style>
    .st0{fill:#0072CE;} .st1{fill:#FFFFFF;}
  </style>
  <path class="st0" d="M0 14.3C0 11.9 1.9 10 4.3 10h41.4c2.4 0 4.3 1.9 4.3 4.3v21.4c0 2.4-1.9 4.3-4.3 4.3H4.3C1.9 40 0 38.1 0 35.7V14.3z"/>
  <path class="st1" d="M26.5 27.8c0 1.1-.8 1.4-1.7 1.4h-1.2v1.4h-1.9l-1.2-1.3-1.2 1.3h-3.8v-4h3.9l1.2 1.3 1.2-1.3h3.1c.8-.1 1.6.1 1.6 1.2zm-7.7 1.9h-2.4v-.8h2.1V28h-2.1v-.7h2.4l1.1 1.2-1.1 1.2zm3.9.4l-1.5-1.6 1.5-1.6v3.2zm2.2-1.8h-1.3v-1h1.3c.3 0 .6.1.6.5 0 .3-.2.5-.6.5zm6.5-1.8h3.2v.8h-2.3v.7h2.2v.8h-2.2v.8h2.3v.8h-3.2v-3.9zm-1.2 2.1c.2.1.4.2.5.3.1.2.2.4.2.7v.8h-1V30c0-.2 0-.6-.2-.8-.1-.1-.3-.2-.7-.2h-1v1.5h-1v-4h2.2c.5 0 .8 0 1.2.2.3.2.5.4.5.9 0 .6-.4.9-.7 1zm-.6-.5c-.1.1-.3.1-.5.1H28v-.9h1.2c.2 0 .3 0 .5.1.1.1.2.2.2.4-.1.1-.1.2-.3.3zm8.8.3c.2.2.3.4.3.9 0 .9-.5 1.3-1.5 1.3h-1.9v-.9h1.9c.2 0 .3 0 .4-.1.1-.1.1-.2.1-.3 0-.1-.1-.2-.1-.3-.1-.1-.2-.1-.3-.1-.9 0-2 0-2-1.3 0-.6.4-1.2 1.4-1.2h1.9v.9h-1.8c-.2 0-.3 0-.4.1-.1.1-.1.2-.1.3 0 .2.1.3.2.3h.9c.4.1.8.1 1 .4zm3.8 1.6c-.2.3-.7.5-1.3.5H39v-.9h1.9c.2 0 .3 0 .4-.1.1-.1.1-.2.1-.3 0-.1 0-.2-.1-.3-.1-.1-.2-.1-.3-.1-.9 0-2 0-2-1.3 0-.6.4-1.2 1.4-1.2h1.9v-.8h-1.8c-.5 0-.9.1-1.2.3v-.3h-2.7c-.4 0-.9.1-1.2.3v-.3h-4.7v.5c-.4-.3-1-.3-1.3-.3h-3.1v.3c-.3-.3-1-.3-1.4-.3h-3.5l-.8.9-.7-.9h-5.2v5.6h5.1l.8-.9.8.9h3.2V30h.3c.4 0 .9 0 1.4-.2v1.5h2.6v-1.5h.1c.2 0 .2 0 .2.2v1.3H37c.5 0 1-.1 1.3-.4v.4h2.5c.5 0 1-.1 1.4-.3v-1zm0-2.7h-1.8c-.2 0-.3 0-.4.1-.1.1-.1.2-.1.3 0 .2.1.3.2.3h.9c.5 0 .9.1 1.1.3l.1.1v-1.1zm-34.4-3h1.7l.4-.9h.8l.4.9h3.3v-.7l.3.7h1.7l.3-.7v.7h8.1v-1.5h.2c.1 0 .1 0 .1.2v1.3h4.2V24c.3.2.9.3 1.6.3h1.8l.4-.9h.8l.4.9h3.4v-.9l.5.9h2.7v-5.6h-2.7v.7l-.4-.7H35v.7l-.3-.7H31c-.6 0-1.2.1-1.6.3v-.3h-2.6v.3c-.3-.2-.7-.3-1.1-.3H16l-.6 1.5-.6-1.5h-3v.7l-.3-.7H8.9l-1.2 2.7.1 2.9zm32-.8h-1.4l-1.8-3v3h-2l-.4-.9h-2l-.4.9h-1.1c-.5 0-1.1-.1-1.4-.4s-.5-.8-.5-1.5c0-.6.1-1.1.5-1.6.3-.3.8-.5 1.5-.5h.9v.9h-.9c-.4 0-.6.1-.7.2-.2.2-.3.5-.3.9s.1.7.3.9c.1.2.4.2.7.2h.4l1.4-3.2H34l1.6 3.8v-3.8h1.5l1.7 2.8v-2.8h1v4.1zm-11.5 0h-1v-4h1v4zm-1.6-2.9c0 .6-.4 1-.7 1.1.2.1.4.2.5.3.1.2.2.4.2.7v.8h-1V23c0-.2 0-.6-.2-.8-.1-.1-.4-.2-.7-.2h-1v1.5h-1v-4H25c.5 0 .9 0 1.2.2.4.2.5.4.5.9zm-4.5 2.9H19v-4h3.2v.8h-2.3v.7h2.2v.8h-2.2v.8h2.3v.9zm-4 0h-1v-3.2l-1.4 3.2H15l-1.4-3.2v3.2h-2l-.4-.9h-2l-.4.9h-1l1.7-4h1.4l1.6 3.8v-3.8h1.6l1.3 2.7 1.2-2.7h1.6v4zm15.7-1.7l-.7-1.6-.7 1.6h1.4zm-8.4-.6c-.1.1-.3.1-.5.1h-1.2v-.9H25c.2 0 .3 0 .5.1.1.1.2.2.2.4 0 .1-.1.2-.2.3zm-14.6.6l-.7-1.6-.7 1.6h1.4z"/>
</svg>