<?xml version="1.0" encoding="utf-8"?>
<!-- Generator: Adobe Illustrator 18.0.0, SVG Export Plug-In . SVG Version: 6.00 Build 0)  -->
<!DOCTYPE svg PUBLIC "-//W3C//DTD SVG 1.1//EN" "http://www.w3.org/Graphics/SVG/1.1/DTD/svg11.dtd">
<svg version="1.1" id="Layer_1" xmlns="http://www.w3.org/2000/svg" xmlns:xlink="http://www.w3.org/1999/xlink" x="0px" y="0px"
	 width="68.8px" height="60.7px" viewBox="0 0 68.8 60.7" style="enable-background:new 0 0 68.8 60.7;" xml:space="preserve">
<style type="text/css">
	.st0{fill:#FFFFFF;}
	.st1{clip-path:url(#SVGID_2_);fill:#0073AA;}
	.st2{fill:#0073AA;}
</style>
<g>
	<rect x="8" y="0" class="st0" width="60.4" height="60.6"/>
</g>
<g>
	<defs>
		<path id="SVGID_1_" d="M23.2,35.9h4.2l1.9,2.1L27.4,40h-4.2v-1.4H27v-1.5h-3.7V35.9z M35.8,35.9H38c0.6,0,1,0.3,1,0.9
			c0,0.6-0.4,0.9-1,0.9h-2.2V35.9z M31.5,38l2.6-2.8v5.7L31.5,38z M32.6,34.4l-2.2,2.3l-2.1-2.3h-6.8v7.1h6.7l2.2-2.3l2.1,2.3h3.3
			v-2.4h2.1c1.5,0,3-0.4,3-2.4c0-2-1.5-2.4-2.8-2.4H32.6z M43.4,35.9h2.1c0.3,0,0.6,0,0.8,0.1c0.2,0.1,0.3,0.3,0.3,0.6
			c0,0.3-0.1,0.6-0.3,0.7c-0.2,0.1-0.5,0.1-0.8,0.1l-2.1,0V35.9z M41.7,34.4v7.1h1.7v-2.6h1.8c0.6,0,1,0.1,1.2,0.3
			c0.3,0.3,0.3,1,0.3,1.4l0,0.9h1.7v-1.4c0-0.6,0-0.9-0.3-1.3c-0.1-0.2-0.5-0.5-0.8-0.6c0.4-0.2,1.2-0.8,1.2-1.9
			c0-0.8-0.3-1.3-0.9-1.6c-0.6-0.3-1.2-0.4-2-0.4H41.7z M49.5,34.4v7.1h5.7V40h-4v-1.4H55v-1.5h-3.9v-1.3h4v-1.5H49.5z M58.4,34.4
			c-1.8,0-2.4,1.1-2.4,2.1c0,2.3,2,2.2,3.6,2.2c0.3,0,0.5,0,0.6,0.2c0.1,0.1,0.2,0.3,0.2,0.5c0,0.2-0.1,0.4-0.2,0.5
			C60,39.9,59.8,40,59.4,40h-3.3v1.5h3.3c1.7,0,2.7-0.7,2.7-2.2c0-0.7-0.2-1.2-0.5-1.5c-0.4-0.4-1-0.6-1.9-0.6l-0.9,0
			c-0.3,0-0.5,0-0.7-0.1c-0.2-0.1-0.4-0.3-0.4-0.5c0-0.2,0.1-0.4,0.3-0.5c0.2-0.1,0.4-0.1,0.7-0.1h3.1v-1.5H58.4z M65,34.4
			c-1.8,0-2.4,1.1-2.4,2.1c0,2.3,2,2.2,3.6,2.2c0.3,0,0.5,0,0.6,0.2c0.1,0.1,0.2,0.3,0.2,0.5c0,0.2-0.1,0.4-0.2,0.5
			c-0.1,0.1-0.4,0.2-0.7,0.2h-3.3v1.5h3.3c1.7,0,2.7-0.7,2.7-2.2c0-0.7-0.2-1.2-0.5-1.5c-0.4-0.4-1-0.6-1.9-0.6l-0.9,0
			c-0.3,0-0.5,0-0.6-0.1c-0.2-0.1-0.4-0.3-0.4-0.5c0-0.2,0.1-0.4,0.3-0.5c0.2-0.1,0.4-0.1,0.7-0.1h3.1v-1.5H65z M12.3,23.4l1.2,2.8
			h-2.3L12.3,23.4z M23.5,22.2l-2,4.8l-2.2-4.8h-2.8l0,6.7l-2.9-6.7h-2.5l-3,7.1h1.8l0.7-1.6h3.5l0.7,1.6h3.5v-5.6l2.5,5.6h1.5
			l2.5-5.6v5.6h1.7v-7.1H23.5z M27.6,22.2v7.1h5.7v-1.5h-4v-1.4h3.9v-1.5h-3.9v-1.3h4v-1.5H27.6z M36.1,23.7l2.1,0
			c0.3,0,0.6,0,0.8,0.1c0.2,0.1,0.3,0.3,0.3,0.6c0,0.3-0.1,0.5-0.3,0.7c-0.2,0.1-0.5,0.1-0.8,0.1h-2.1V23.7z M34.4,22.2v7.1h1.7
			v-2.6H38c0.6,0,1,0.1,1.2,0.3c0.3,0.3,0.3,1,0.3,1.4l0,0.9h1.7l0-1.4c0-0.6,0-0.9-0.3-1.3c-0.1-0.2-0.5-0.5-0.8-0.6
			c0.4-0.2,1.2-0.8,1.2-1.9c0-0.8-0.3-1.3-0.9-1.6c-0.5-0.3-1.2-0.3-2-0.3H34.4z M42.2,29.3H44v-7.1h-1.7V29.3z M52.6,23.4l1.2,2.8
			h-2.3L52.6,23.4z M62.3,22.2l0,4.9l-3-4.9h-2.6v6.7l-2.9-6.7h-2.5L49,27.8l-0.8,0c-0.5,0-0.9-0.1-1.2-0.4
			c-0.3-0.4-0.5-0.9-0.5-1.7c0-0.7,0.2-1.3,0.5-1.6c0.3-0.3,0.7-0.4,1.3-0.4h1.6v-1.5h-1.6c-1.2,0-2,0.3-2.6,0.8
			c-0.7,0.8-0.9,1.7-0.9,2.8c0,1.3,0.3,2.1,0.9,2.7c0.6,0.6,1.6,0.8,2.5,0.8h2l0.7-1.6h3.5l0.7,1.6h3.5V24l3.2,5.3h2.4v-7.1H62.3z
			 M8,0v25.5l2-4.7h4.4l0.6,1.2v-1.2h5.2l1.1,2.6l1.1-2.6H39c0.7,0,1.4,0.1,1.9,0.6v-0.6h4.5v0.6c0.8-0.4,1.7-0.6,2.8-0.6h6.5
			l0.6,1.2v-1.2h4.8l0.7,1.2v-1.2h4.7v9.9h-4.8l-0.9-1.5v1.5H54l-0.7-1.6h-1.5l-0.7,1.6h-3.1c-1.2,0-2.1-0.3-2.7-0.6l0,0.6h-7.3
			v-2.2c0-0.3-0.1-0.3-0.3-0.3h-0.3l0,2.6H23.4v-1.2l-0.5,1.2h-3l-0.5-1.2v1.2h-5.7L13,29.1h-1.5l-0.7,1.6H8v29.9h60.4V42.5
			c-0.7,0.3-1.6,0.5-2.5,0.5h-4.4v-0.6c-0.5,0.4-1.4,0.6-2.3,0.6H45.3v-2.3c0-0.3,0-0.3-0.3-0.3h-0.2l0,2.6h-4.6v-2.7
			c-0.8,0.3-1.6,0.3-2.4,0.3l-0.5,0v2.3l-5.5,0l-1.4-1.5L29,42.9h-9V33h9.1l1.3,1.5l1.4-1.5H38c0.7,0,1.9,0.1,2.4,0.6V33h5.5
			c0.5,0,1.6,0.1,2.3,0.6V33h8.3l0,0.6c0.4-0.4,1.3-0.6,2-0.6h4.6v0.6c0.5-0.3,1.2-0.6,2.1-0.6h3.1V0H8z"/>
	</defs>
	<clipPath id="SVGID_2_">
		<use xlink:href="#SVGID_1_"  style="overflow:visible;"/>
	</clipPath>
	<path class="st1" d="M102.2,22.2c0,39.6-32.1,71.7-71.7,71.7s-71.7-32.1-71.7-71.7c0-39.6,32.1-71.7,71.7-71.7
		S102.2-17.4,102.2,22.2"/>
</g>
<g>
	<path class="st2" d="M4.4,55.3c0.4,0.2,0.7,0.5,1,1c0.2,0.4,0.4,0.9,0.4,1.3c0,0.5-0.1,0.9-0.3,1.3c-0.3,0.4-0.6,0.7-1,1
		C4,60,3.6,60.2,3.2,60.2c-0.5,0-0.9-0.1-1.3-0.4c-0.4-0.3-0.7-0.6-1-1c-0.2-0.4-0.3-0.8-0.3-1.3c0-0.5,0.1-0.9,0.4-1.3
		c0.2-0.4,0.6-0.7,1-1c0.4-0.2,0.8-0.3,1.3-0.3C3.6,54.9,4,55,4.4,55.3 M1.6,54.8c-0.5,0.3-0.9,0.7-1.2,1.2C0.1,56.5,0,57,0,57.5
		c0,0.5,0.1,1.1,0.4,1.6c0.3,0.5,0.7,0.9,1.2,1.2c0.5,0.3,1,0.4,1.6,0.4c0.5,0,1.1-0.1,1.6-0.4c0.5-0.3,0.9-0.7,1.2-1.2
		c0.3-0.5,0.4-1,0.4-1.6c0-0.5-0.1-1.1-0.4-1.6c-0.3-0.5-0.7-0.9-1.2-1.2c-0.5-0.3-1-0.4-1.6-0.4C2.6,54.4,2.1,54.5,1.6,54.8
		 M2.5,58.9v-1.3h0.3c0.2,0,0.3,0,0.4,0.1c0.1,0.1,0.3,0.3,0.5,0.7l0.3,0.5h0.6l-0.4-0.6c-0.2-0.3-0.3-0.5-0.4-0.6
		c-0.1-0.1-0.1-0.1-0.3-0.2c0.3,0,0.5-0.1,0.6-0.3c0.2-0.2,0.2-0.4,0.2-0.6c0-0.1,0-0.3-0.1-0.4C4.1,56.2,4,56.1,3.8,56
		C3.6,56,3.4,55.9,3,55.9H2v3H2.5z M2.5,56.4H3c0.2,0,0.4,0,0.5,0c0.1,0,0.2,0.1,0.2,0.2c0.1,0.1,0.1,0.1,0.1,0.2
		c0,0.1-0.1,0.2-0.2,0.3c-0.1,0.1-0.3,0.1-0.6,0.1H2.5V56.4z"/>
</g>
</svg>
