<?xml version="1.0" encoding="utf-8"?>
<!-- Generator: Adobe Illustrator 21.0.0, SVG Export Plug-In . SVG Version: 6.00 Build 0)  -->
<svg version="1.1" id="amex_1_" xmlns="http://www.w3.org/2000/svg" xmlns:xlink="http://www.w3.org/1999/xlink" x="0px" y="0px"
	 width="50px" height="30px" viewBox="0 0 50 30" style="enable-background:new 0 0 50 30;" xml:space="preserve">
<style type="text/css">
	.st0{fill:#0072CE;}
	.st1{fill:#FFFFFF;}
</style>
<path class="st0" d="M0,4.3C0,1.9,1.9,0,4.3,0h41.4C48.1,0,50,1.9,50,4.3v21.4c0,2.4-1.9,4.3-4.3,4.3H4.3C1.9,30,0,28.1,0,25.7V4.3z
	"/>
<path class="st1" d="M26.5,17.8c0,1.1-0.8,1.4-1.7,1.4h-1.2v1.4h-1.9l-1.2-1.3l-1.2,1.3h-3.8v-4h3.9l1.2,1.3l1.2-1.3h3.1
	C25.7,16.5,26.5,16.7,26.5,17.8z M18.8,19.7h-2.4v-0.8h2.1V18h-2.1v-0.7h2.4l1.1,1.2C19.9,18.5,18.8,19.7,18.8,19.7z M22.7,20.1
	l-1.5-1.6l1.5-1.6V20.1z M24.9,18.3h-1.3v-1h1.3c0.3,0,0.6,0.1,0.6,0.5C25.5,18.1,25.3,18.3,24.9,18.3z M31.4,16.5h3.2v0.8h-2.3V18
	h2.2v0.8h-2.2v0.8h2.3v0.8h-3.2C31.4,20.4,31.4,16.5,31.4,16.5z M30.2,18.6c0.2,0.1,0.4,0.2,0.5,0.3c0.1,0.2,0.2,0.4,0.2,0.7v0.8h-1
	V20c0-0.2,0-0.6-0.2-0.8C29.6,19.1,29.4,19,29,19h-1v1.5h-1v-4h2.2c0.5,0,0.8,0,1.2,0.2c0.3,0.2,0.5,0.4,0.5,0.9
	C30.9,18.2,30.5,18.5,30.2,18.6z M29.6,18.1c-0.1,0.1-0.3,0.1-0.5,0.1H28v-0.9h1.2c0.2,0,0.3,0,0.5,0.1c0.1,0.1,0.2,0.2,0.2,0.4
	C29.8,17.9,29.8,18,29.6,18.1z M38.4,18.4c0.2,0.2,0.3,0.4,0.3,0.9c0,0.9-0.5,1.3-1.5,1.3h-1.9v-0.9h1.9c0.2,0,0.3,0,0.4-0.1
	c0.1-0.1,0.1-0.2,0.1-0.3c0-0.1-0.1-0.2-0.1-0.3c-0.1-0.1-0.2-0.1-0.3-0.1c-0.9,0-2,0-2-1.3c0-0.6,0.4-1.2,1.4-1.2h1.9v0.9h-1.8
	c-0.2,0-0.3,0-0.4,0.1c-0.1,0.1-0.1,0.2-0.1,0.3c0,0.2,0.1,0.3,0.2,0.3h0.9C37.8,18.1,38.2,18.1,38.4,18.4z M42.2,20
	c-0.2,0.3-0.7,0.5-1.3,0.5H39v-0.9h1.9c0.2,0,0.3,0,0.4-0.1c0.1-0.1,0.1-0.2,0.1-0.3c0-0.1,0-0.2-0.1-0.3c-0.1-0.1-0.2-0.1-0.3-0.1
	c-0.9,0-2,0-2-1.3c0-0.6,0.4-1.2,1.4-1.2h1.9v-0.8h-1.8c-0.5,0-0.9,0.1-1.2,0.3v-0.3h-2.7c-0.4,0-0.9,0.1-1.2,0.3v-0.3h-4.7V16
	c-0.4-0.3-1-0.3-1.3-0.3h-3.1V16c-0.3-0.3-1-0.3-1.4-0.3h-3.5l-0.8,0.9l-0.7-0.9h-5.2v5.6h5.1l0.8-0.9l0.8,0.9h3.2V20h0.3
	c0.4,0,0.9,0,1.4-0.2v1.5h2.6v-1.5H29c0.2,0,0.2,0,0.2,0.2v1.3H37c0.5,0,1-0.1,1.3-0.4v0.4h2.5c0.5,0,1-0.1,1.4-0.3
	C42.2,21,42.2,20,42.2,20z M42.2,17.3h-1.8c-0.2,0-0.3,0-0.4,0.1c-0.1,0.1-0.1,0.2-0.1,0.3c0,0.2,0.1,0.3,0.2,0.3H41
	c0.5,0,0.9,0.1,1.1,0.3l0.1,0.1C42.2,18.4,42.2,17.3,42.2,17.3z M7.8,14.3h1.7l0.4-0.9h0.8l0.4,0.9h3.3v-0.7l0.3,0.7h1.7l0.3-0.7
	v0.7h8.1v-1.5H25c0.1,0,0.1,0,0.1,0.2v1.3h4.2V14c0.3,0.2,0.9,0.3,1.6,0.3h1.8l0.4-0.9h0.8l0.4,0.9h3.4v-0.9l0.5,0.9h2.7V8.7h-2.7
	v0.7l-0.4-0.7H35v0.7l-0.3-0.7H31c-0.6,0-1.2,0.1-1.6,0.3V8.7h-2.6V9c-0.3-0.2-0.7-0.3-1.1-0.3H16l-0.6,1.5l-0.6-1.5h-3v0.7
	l-0.3-0.7H8.9l-1.2,2.7C7.7,11.4,7.8,14.3,7.8,14.3z M39.8,13.5h-1.4l-1.8-3v3h-2l-0.4-0.9h-2l-0.4,0.9h-1.1c-0.5,0-1.1-0.1-1.4-0.4
	s-0.5-0.8-0.5-1.5c0-0.6,0.1-1.1,0.5-1.6c0.3-0.3,0.8-0.5,1.5-0.5h0.9v0.9h-0.9c-0.4,0-0.6,0.1-0.7,0.2c-0.2,0.2-0.3,0.5-0.3,0.9
	s0.1,0.7,0.3,0.9c0.1,0.2,0.4,0.2,0.7,0.2h0.4l1.4-3.2H34l1.6,3.8V9.4h1.5l1.7,2.8V9.4h1C39.8,9.4,39.8,13.5,39.8,13.5z M28.3,13.5
	h-1v-4h1V13.5z M26.7,10.6c0,0.6-0.4,1-0.7,1.1c0.2,0.1,0.4,0.2,0.5,0.3c0.1,0.2,0.2,0.4,0.2,0.7v0.8h-1V13c0-0.2,0-0.6-0.2-0.8
	c-0.1-0.1-0.4-0.2-0.7-0.2h-1v1.5h-1v-4H25c0.5,0,0.9,0,1.2,0.2C26.6,9.9,26.7,10.1,26.7,10.6z M22.2,13.5H19v-4h3.2v0.8h-2.3V11
	h2.2v0.8h-2.2v0.8h2.3C22.2,12.6,22.2,13.5,22.2,13.5z M18.2,13.5h-1v-3.2l-1.4,3.2H15l-1.4-3.2v3.2h-2l-0.4-0.9h-2l-0.4,0.9h-1
	l1.7-4h1.4l1.6,3.8V9.5h1.6l1.3,2.7l1.2-2.7h1.6C18.2,9.5,18.2,13.5,18.2,13.5z M33.9,11.8l-0.7-1.6l-0.7,1.6H33.9z M25.5,11.2
	c-0.1,0.1-0.3,0.1-0.5,0.1h-1.2v-0.9H25c0.2,0,0.3,0,0.5,0.1c0.1,0.1,0.2,0.2,0.2,0.4C25.7,11,25.6,11.1,25.5,11.2z M10.9,11.8
	l-0.7-1.6l-0.7,1.6H10.9z"/>
</svg>
