<svg id="maestro" xmlns="http://www.w3.org/2000/svg" viewBox="0 0 50 50">
  <style>
    .st0{fill:#000066;} .st1{fill:#CC0000;} .st2{fill:#0066CC;} .st3{fill:#FFFFFF;}
  </style>
  <path class="st0" d="M0 14.3C0 11.9 1.9 10 4.3 10h41.4c2.4 0 4.3 1.9 4.3 4.3v21.4c0 2.4-1.9 4.3-4.3 4.3H4.3C1.9 40 0 38.1 0 35.7V14.3z"/>
  <path class="st1" d="M41.8 25c0 5.5-4.5 10-10 10s-10-4.5-10-10 4.5-10 10-10c5.6 0 10 4.5 10 10"/>
  <path class="st2" d="M24.2 31.3c-.3-.3-.5-.7-.8-1.1h3.5c.2-.3.4-.7.6-1.1h-4.7c-.2-.3-.3-.7-.4-1.1h5.5c.3-1 .5-2.1.5-3.2 0-.7-.1-1.4-.2-2.1h-6.1c.1-.4.2-.8.3-1.1h5.5c-.1-.4-.3-.7-.4-1.1h-4.6c.2-.4.4-.7.7-1.1H27c-.2-.4-.5-.7-.8-1.1h-1.7l.9-.9C23.7 16.1 21 15 18.5 15c-5.5 0-10 4.5-10 10s4.5 10 10 10c2.6 0 4.9-1 6.7-2.6.4-.3.7-.7 1-1.1h-2"/>
  <path class="st0" d="M24.4 25.2c0-.1.1-.7-.6-.7-.4 0-.7.3-.8.7h1.4zm.6 2.5c-.4.1-.8.2-1.3.2-1.4 0-2.1-.6-2.1-1.9 0-1.4.9-2.5 2.2-2.5 1 0 1.7.6 1.7 1.5 0 .3 0 .6-.2 1h-2.5c-.1.6.3.9 1.1.9.4 0 .8-.1 1.3-.3l-.2 1.1zm.9-2.7c0 .5.3.9 1 1.2.5.2.6.3.6.5 0 .3-.2.4-.7.4-.4 0-.7 0-1.1-.2l-.2 1c.4.1.9.1 1.3.1 1.3 0 2-.4 2-1.4 0-.6-.3-.9-.9-1.2-.5-.2-.6-.3-.6-.5s.2-.3.6-.3c.2 0 .6 0 .9.1l.2-1c-.3 0-.8-.1-1.1-.1-1.6-.1-2 .6-2 1.4m-5.9.9h-.3c-.7 0-1.1.2-1.1.6 0 .3.2.4.4.4.7.1 1-.3 1-1zm1 1.9h-1v-.4c-.3.3-.7.5-1.3.5-.7 0-1.1-.5-1.1-1.1 0-1 .8-1.6 2.2-1.6h.5v-.3c0-.3-.2-.4-.8-.4-.6 0-1 .1-1.3.2l.2-.9c.6-.2 1-.2 1.5-.2 1.1 0 1.6.4 1.6 1.2 0 .2-.1.6-.1.8-.1.3-.4 1.8-.4 2.2zm9.8-.1c-.3.1-.6.1-.9.1-.6 0-1-.3-1-.9 0-.2.1-.9.2-1.1 0-.2.6-3.2.6-3.2h1.2l-.2 1h.6l-.2 1h-.6s-.3 1.8-.3 1.9c0 .2.1.3.4.3h.3l-.1.9m5.2-.8c-.4 0-.7-.4-.7-.9 0-.7.4-1.4 1-1.4.5 0 .7.4.7.8 0 .9-.4 1.5-1 1.5zm.3-3.4c-.9 0-1.6.4-2 1l.4-.9c-.7-.2-1.1.1-1.5.6 0 0-.1.1-.1.2v-.7h-1.2c-.2 1.3-.4 2.6-.7 3.9l-.1.3h1.2c.1-.7.2-1.2.3-1.6.3-1.2.7-1.5 1.4-1.4-.2.3-.2.7-.2 1.1 0 1 .6 1.9 2 1.9s2.4-.8 2.4-2.5c.1-1-.6-1.9-1.9-1.9zm-19.4 4.3h-1.2l.7-3.9-1.7 3.9h-1.1l-.2-3.9-.8 3.9h-1.1l1-5.1h1.9l.2 2.9 1.2-2.9h2.1l-1 5.1"/>
  <path class="st3" d="M24.7 24.9c0-.1.1-.7-.6-.7-.4 0-.7.3-.8.7h1.4zm.6 2.5c-.4.1-.8.2-1.3.2-1.4 0-2.1-.6-2.1-1.9 0-1.4.9-2.5 2.2-2.5 1 0 1.7.6 1.7 1.5 0 .3 0 .6-.2 1h-2.5c-.1.6.3.9 1.1.9.4 0 .8-.1 1.3-.3l-.2 1.1zm.9-2.8c0 .5.3.9 1 1.2.5.2.6.3.6.5 0 .3-.2.4-.7.4-.4 0-.7 0-1.1-.2l-.2 1c.4.1.9.1 1.3.1 1.3 0 2-.4 2-1.4 0-.6-.3-.9-.9-1.2-.5-.2-.6-.3-.6-.5s.2-.3.6-.3c.2 0 .6 0 .9.1l.2-1c-.3 0-.8-.1-1.1-.1-1.5 0-2 .7-2 1.4m-5.8 1h-.3c-.7 0-1.1.2-1.1.6 0 .3.2.4.4.4.6.1.9-.4 1-1zm.9 1.9h-1v-.4c-.3.3-.7.5-1.3.5-.7 0-1.1-.5-1.1-1.1 0-1 .8-1.6 2.2-1.6h.5v-.3c0-.3-.2-.4-.8-.4-.6 0-1 .1-1.3.2l.2-.9c.6-.2 1-.2 1.5-.2 1.1 0 1.6.4 1.6 1.2 0 .2-.1.6-.1.8-.1.2-.4 1.8-.4 2.2zm9.8-.1c-.3.1-.6.1-.9.1-.6 0-1-.3-1-.9 0-.2.1-.9.2-1.1 0-.2.6-3.2.6-3.2h1.2l-.2 1h.6l-.2 1h-.6s-.3 1.8-.3 1.9c0 .2.1.3.4.3h.3l-.1.9m7.5-2.3c0-1-.7-1.8-2-1.8-1.5 0-2.4 1-2.4 2.4 0 1 .6 1.9 2 1.9s2.4-.8 2.4-2.5zm-1.3 0c0 .9-.4 1.5-1 1.5-.4 0-.7-.4-.7-.9 0-.7.4-1.4 1-1.4.5-.1.7.3.7.8zm-5.1-1.8c-.2 1.3-.4 2.6-.7 3.9l-.1.3h1.2c.4-2.5.6-3.2 1.5-2.9l.5-1.2c-.7-.2-1.1.1-1.5.6 0-.2.1-.4.1-.6l-1-.1m-15 4.2H16l.7-3.9-1.7 3.9h-1.1l-.2-3.9-.8 3.9h-1.1l1-5.1h1.9l.1 3.2 1.4-3.2h2l-1 5.1"/>
</svg>