<?xml version="1.0" encoding="utf-8"?>
<!-- Generator: Adobe Illustrator 21.0.0, SVG Export Plug-In . SVG Version: 6.00 Build 0)  -->
<svg version="1.1" id="maestro" xmlns="http://www.w3.org/2000/svg" xmlns:xlink="http://www.w3.org/1999/xlink" x="0px" y="0px"
	 width="50px" height="30px" viewBox="0 0 50 30" style="enable-background:new 0 0 50 30;" xml:space="preserve">
<style type="text/css">
	.st0{fill:#000066;}
	.st1{fill:#CC0000;}
	.st2{fill:#0066CC;}
	.st3{fill:#FFFFFF;}
</style>
<path class="st0" d="M0,4.3C0,1.9,1.9,0,4.3,0h41.4C48.1,0,50,1.9,50,4.3v21.4c0,2.4-1.9,4.3-4.3,4.3H4.3C1.9,30,0,28.1,0,25.7V4.3z
	"/>
<path class="st1" d="M41.8,15c0,5.5-4.5,10-10,10s-10-4.5-10-10s4.5-10,10-10C37.4,5,41.8,9.5,41.8,15"/>
<path class="st2" d="M24.2,21.3c-0.3-0.3-0.5-0.7-0.8-1.1h3.5c0.2-0.3,0.4-0.7,0.6-1.1h-4.7c-0.2-0.3-0.3-0.7-0.4-1.1h5.5
	c0.3-1,0.5-2.1,0.5-3.2c0-0.7-0.1-1.4-0.2-2.1h-6.1c0.1-0.4,0.2-0.8,0.3-1.1h5.5c-0.1-0.4-0.3-0.7-0.4-1.1h-4.6
	c0.2-0.4,0.4-0.7,0.7-1.1H27c-0.2-0.4-0.5-0.7-0.8-1.1h-1.7l0.9-0.9C23.7,6.1,21,5,18.5,5c-5.5,0-10,4.5-10,10s4.5,10,10,10
	c2.6,0,4.9-1,6.7-2.6c0.4-0.3,0.7-0.7,1-1.1L24.2,21.3"/>
<path class="st0" d="M24.4,15.2c0-0.1,0.1-0.7-0.6-0.7c-0.4,0-0.7,0.3-0.8,0.7H24.4z M25,17.7c-0.4,0.1-0.8,0.2-1.3,0.2
	c-1.4,0-2.1-0.6-2.1-1.9c0-1.4,0.9-2.5,2.2-2.5c1,0,1.7,0.6,1.7,1.5c0,0.3,0,0.6-0.2,1h-2.5c-0.1,0.6,0.3,0.9,1.1,0.9
	c0.4,0,0.8-0.1,1.3-0.3C25.2,16.6,25,17.7,25,17.7z M25.9,15c0,0.5,0.3,0.9,1,1.2c0.5,0.2,0.6,0.3,0.6,0.5c0,0.3-0.2,0.4-0.7,0.4
	c-0.4,0-0.7,0-1.1-0.2l-0.2,1c0.4,0.1,0.9,0.1,1.3,0.1c1.3,0,2-0.4,2-1.4c0-0.6-0.3-0.9-0.9-1.2c-0.5-0.2-0.6-0.3-0.6-0.5
	s0.2-0.3,0.6-0.3c0.2,0,0.6,0,0.9,0.1l0.2-1c-0.3,0-0.8-0.1-1.1-0.1C26.3,13.5,25.9,14.2,25.9,15 M20,15.9h-0.3
	c-0.7,0-1.1,0.2-1.1,0.6c0,0.3,0.2,0.4,0.4,0.4C19.7,17,20,16.6,20,15.9z M21,17.8h-1v-0.4c-0.3,0.3-0.7,0.5-1.3,0.5
	c-0.7,0-1.1-0.5-1.1-1.1c0-1,0.8-1.6,2.2-1.6h0.5v-0.3c0-0.3-0.2-0.4-0.8-0.4c-0.6,0-1,0.1-1.3,0.2l0.2-0.9c0.6-0.2,1-0.2,1.5-0.2
	c1.1,0,1.6,0.4,1.6,1.2c0,0.2-0.1,0.6-0.1,0.8C21.3,15.9,21,17.4,21,17.8z M30.8,17.7c-0.3,0.1-0.6,0.1-0.9,0.1c-0.6,0-1-0.3-1-0.9
	c0-0.2,0.1-0.9,0.2-1.1c0-0.2,0.6-3.2,0.6-3.2h1.2l-0.2,1h0.6l-0.2,1h-0.6c0,0-0.3,1.8-0.3,1.9c0,0.2,0.1,0.3,0.4,0.3h0.3L30.8,17.7
	 M36,16.9c-0.4,0-0.7-0.4-0.7-0.9c0-0.7,0.4-1.4,1-1.4c0.5,0,0.7,0.4,0.7,0.8C37,16.3,36.6,16.9,36,16.9z M36.3,13.5
	c-0.9,0-1.6,0.4-2,1l0.4-0.9c-0.7-0.2-1.1,0.1-1.5,0.6c0,0-0.1,0.1-0.1,0.2v-0.7h-1.2c-0.2,1.3-0.4,2.6-0.7,3.9l-0.1,0.3h1.2
	c0.1-0.7,0.2-1.2,0.3-1.6c0.3-1.2,0.7-1.5,1.4-1.4c-0.2,0.3-0.2,0.7-0.2,1.1c0,1,0.6,1.9,2,1.9s2.4-0.8,2.4-2.5
	C38.3,14.4,37.6,13.5,36.3,13.5z M16.9,17.8h-1.2l0.7-3.9l-1.7,3.9h-1.1l-0.2-3.9l-0.8,3.9h-1.1l1-5.1h1.9l0.2,2.9l1.2-2.9h2.1
	L16.9,17.8"/>
<path class="st3" d="M24.7,14.9c0-0.1,0.1-0.7-0.6-0.7c-0.4,0-0.7,0.3-0.8,0.7H24.7z M25.3,17.4c-0.4,0.1-0.8,0.2-1.3,0.2
	c-1.4,0-2.1-0.6-2.1-1.9c0-1.4,0.9-2.5,2.2-2.5c1,0,1.7,0.6,1.7,1.5c0,0.3,0,0.6-0.2,1h-2.5c-0.1,0.6,0.3,0.9,1.1,0.9
	c0.4,0,0.8-0.1,1.3-0.3C25.5,16.3,25.3,17.4,25.3,17.4z M26.2,14.6c0,0.5,0.3,0.9,1,1.2c0.5,0.2,0.6,0.3,0.6,0.5
	c0,0.3-0.2,0.4-0.7,0.4c-0.4,0-0.7,0-1.1-0.2l-0.2,1c0.4,0.1,0.9,0.1,1.3,0.1c1.3,0,2-0.4,2-1.4c0-0.6-0.3-0.9-0.9-1.2
	c-0.5-0.2-0.6-0.3-0.6-0.5s0.2-0.3,0.6-0.3c0.2,0,0.6,0,0.9,0.1l0.2-1c-0.3,0-0.8-0.1-1.1-0.1C26.7,13.2,26.2,13.9,26.2,14.6
	 M20.4,15.6h-0.3c-0.7,0-1.1,0.2-1.1,0.6c0,0.3,0.2,0.4,0.4,0.4C20,16.7,20.3,16.2,20.4,15.6z M21.3,17.5h-1v-0.4
	c-0.3,0.3-0.7,0.5-1.3,0.5c-0.7,0-1.1-0.5-1.1-1.1c0-1,0.8-1.6,2.2-1.6h0.5v-0.3c0-0.3-0.2-0.4-0.8-0.4c-0.6,0-1,0.1-1.3,0.2
	l0.2-0.9c0.6-0.2,1-0.2,1.5-0.2c1.1,0,1.6,0.4,1.6,1.2c0,0.2-0.1,0.6-0.1,0.8C21.6,15.5,21.3,17.1,21.3,17.5z M31.1,17.4
	c-0.3,0.1-0.6,0.1-0.9,0.1c-0.6,0-1-0.3-1-0.9c0-0.2,0.1-0.9,0.2-1.1c0-0.2,0.6-3.2,0.6-3.2h1.2l-0.2,1h0.6l-0.2,1h-0.6
	c0,0-0.3,1.8-0.3,1.9c0,0.2,0.1,0.3,0.4,0.3h0.3L31.1,17.4 M38.6,15.1c0-1-0.7-1.8-2-1.8c-1.5,0-2.4,1-2.4,2.4c0,1,0.6,1.9,2,1.9
	S38.6,16.8,38.6,15.1z M37.3,15.1c0,0.9-0.4,1.5-1,1.5c-0.4,0-0.7-0.4-0.7-0.9c0-0.7,0.4-1.4,1-1.4C37.1,14.2,37.3,14.6,37.3,15.1z
	 M32.2,13.3c-0.2,1.3-0.4,2.6-0.7,3.9l-0.1,0.3h1.2c0.4-2.5,0.6-3.2,1.5-2.9l0.5-1.2c-0.7-0.2-1.1,0.1-1.5,0.6
	c0-0.2,0.1-0.4,0.1-0.6L32.2,13.3 M17.2,17.5H16l0.7-3.9L15,17.5h-1.1l-0.2-3.9l-0.8,3.9h-1.1l1-5.1h1.9l0.1,3.2l1.4-3.2h2
	L17.2,17.5"/>
</svg>
