<?xml version="1.0" encoding="utf-8"?>
<!-- Generator: Adobe Illustrator 18.0.0, SVG Export Plug-In . SVG Version: 6.00 Build 0)  -->
<!DOCTYPE svg PUBLIC "-//W3C//DTD SVG 1.1//EN" "http://www.w3.org/Graphics/SVG/1.1/DTD/svg11.dtd">
<svg version="1.1" id="Layer_1" xmlns="http://www.w3.org/2000/svg" xmlns:xlink="http://www.w3.org/1999/xlink" x="0px" y="0px"
	 width="97.3px" height="61.6px" viewBox="0 0 97.3 61.6" style="enable-background:new 0 0 97.3 61.6;" xml:space="preserve">
<style type="text/css">
	.st0{fill:#002F6B;}
	.st1{fill:#0096D9;}
	.st2{fill:none;stroke:#0096D9;stroke-width:0.347;}
	.st3{fill:none;stroke:#0096D9;stroke-width:0.55;}
	.st4{fill:#E2001A;}
	.st5{fill:none;stroke:#E2001A;stroke-width:0.347;}
	.st6{fill:#FFFFFF;}
</style>
<rect x="0" y="0" class="st0" width="97.3" height="61.5"/>
<path class="st1" d="M48.7,50.4c5.4-4.9,8.7-11.9,8.7-19.7c0-7.8-3.4-14.8-8.7-19.7c-4.7-4.3-11-6.9-17.8-6.9
	C16.1,4.2,4.3,16.1,4.3,30.8c0,14.7,11.9,26.6,26.6,26.6C37.7,57.3,43.9,54.7,48.7,50.4"/>
<path class="st2" d="M48.7,50.4c5.4-4.9,8.7-11.9,8.7-19.7c0-7.8-3.4-14.8-8.7-19.7c-4.7-4.3-11-6.9-17.8-6.9
	C16.1,4.2,4.3,16.1,4.3,30.8c0,14.7,11.9,26.6,26.6,26.6C37.7,57.3,43.9,54.7,48.7,50.4z"/>
<path class="st1" d="M48.7,50.4c5.4-4.9,8.7-11.9,8.7-19.7c0-7.8-3.4-14.8-8.7-19.7"/>
<path class="st3" d="M48.7,50.4c5.4-4.9,8.7-11.9,8.7-19.7c0-7.8-3.4-14.8-8.7-19.7"/>
<path class="st4" d="M66.5,4.2c-6.9,0-13.1,2.6-17.8,6.9c-1,0.9-1.9,1.8-2.7,2.8h5.4c0.7,0.9,1.4,1.8,2,2.8h-9.4
	c-0.6,0.9-1.1,1.8-1.5,2.8h12.5c0.4,0.9,0.8,1.8,1.1,2.8H41.3c-0.3,0.9-0.6,1.9-0.8,2.8h16.3c0.4,1.8,0.6,3.7,0.6,5.6
	c0,3-0.5,5.8-1.4,8.4H41.3c0.3,1,0.7,1.9,1.1,2.8h12.5c-0.5,1-1,1.9-1.5,2.8h-9.4c0.6,1,1.3,1.9,2,2.8h5.4c-0.8,1-1.7,1.9-2.7,2.8
	c4.7,4.3,11,6.9,17.8,6.9c14.7,0,26.6-11.9,26.6-26.6C93.1,16.1,81.2,4.2,66.5,4.2"/>
<path class="st5" d="M66.5,4.2c-6.9,0-13.1,2.6-17.8,6.9c-1,0.9-1.9,1.8-2.7,2.8h5.4c0.7,0.9,1.4,1.8,2,2.8h-9.4
	c-0.6,0.9-1.1,1.8-1.5,2.8h12.5c0.4,0.9,0.8,1.8,1.1,2.8H41.3c-0.3,0.9-0.6,1.9-0.8,2.8h16.3c0.4,1.8,0.6,3.7,0.6,5.6
	c0,3-0.5,5.8-1.4,8.4H41.3c0.3,1,0.7,1.9,1.1,2.8h12.5c-0.5,1-1,1.9-1.5,2.8h-9.4c0.6,1,1.3,1.9,2,2.8h5.4c-0.8,1-1.7,1.9-2.7,2.8
	c4.7,4.3,11,6.9,17.8,6.9c14.7,0,26.6-11.9,26.6-26.6C93.1,16.1,81.2,4.2,66.5,4.2z"/>
<path class="st6" d="M89.5,45.6c0-0.5,0.4-0.9,0.9-0.9c0.5,0,0.9,0.4,0.9,0.9c0,0.5-0.4,0.9-0.9,0.9C89.9,46.4,89.5,46,89.5,45.6
	 M90.4,46.2c0.4,0,0.7-0.3,0.7-0.7c0-0.4-0.3-0.7-0.7-0.7c-0.4,0-0.7,0.3-0.7,0.7C89.7,45.9,90,46.2,90.4,46.2 M90.3,45.9h-0.2v-0.8
	h0.3c0.1,0,0.1,0,0.2,0c0.1,0,0.1,0.1,0.1,0.2c0,0.1-0.1,0.2-0.1,0.2l0.1,0.3h-0.2l-0.1-0.3h-0.1V45.9z M90.3,45.5L90.3,45.5
	c0.1,0,0.2,0,0.2,0c0,0,0-0.1,0-0.1c0,0,0-0.1,0-0.1c0,0-0.1,0-0.1,0h-0.1V45.5z"/>
<polygon class="st0" points="26.7,38.1 23.3,38.1 25.3,27.8 20.8,38.1 18,38.1 17.4,27.9 15.2,38.1 12.2,38.1 14.8,24.7 20,24.7 
	20.1,33 23.7,24.7 29.3,24.7 "/>
<path class="st0" d="M63.6,38c-0.9,0.2-1.6,0.4-2.4,0.4c-1.7,0-2.6-0.8-2.6-2.4c0-0.3,0-0.6,0.1-1l0.2-1.1l0.2-0.9l1.5-8.4h3.3
	l-0.5,2.5h1.7l-0.5,2.7H63l-0.9,4.6c0,0.2-0.1,0.4-0.1,0.5c0,0.6,0.3,0.8,1.1,0.8c0.4,0,0.7,0,0.9-0.1L63.6,38z"/>
<path class="st0" d="M50.5,30.7c0,1.4,0.8,2.3,2.5,3.1c1.4,0.5,1.6,0.7,1.6,1.2c0,0.7-0.6,1-1.9,1c-1,0-1.9-0.1-3-0.4L49.2,38l0.1,0
	l0.6,0.1c0.2,0,0.5,0.1,0.9,0.1c0.8,0.1,1.4,0.1,1.8,0.1c3.5,0,5.2-1.2,5.2-3.7c0-1.5-0.7-2.4-2.4-3c-1.4-0.6-1.6-0.7-1.6-1.2
	c0-0.6,0.6-0.9,1.6-0.9c0.7,0,1.6,0.1,2.4,0.2l0.5-2.5C57.6,27,56.3,27,55.5,27C51.8,27,50.5,28.6,50.5,30.7"/>
<path class="st0" d="M37.4,38.1h-2.7l0.1-1.1c-0.8,0.9-2,1.3-3.5,1.3c-1.8,0-3-1.2-3-3c0-2.7,2.1-4.2,5.8-4.2c0.4,0,0.9,0,1.3,0.1
	c0.1-0.4,0.1-0.5,0.1-0.7c0-0.7-0.6-1-2.1-1c-0.9,0-2,0.1-2.7,0.3l-0.5,0.1L29.9,30l0.5-2.5c1.6-0.4,2.7-0.6,4-0.6
	c2.8,0,4.3,1.1,4.3,3.2c0,0.5-0.1,0.9-0.3,2.2l-0.7,3.9l-0.1,0.7l-0.1,0.6l-0.1,0.4L37.4,38.1z M35.1,33.3c-0.3,0-0.5,0-0.7,0
	c-1.9,0-2.8,0.6-2.8,1.7c0,0.7,0.5,1.1,1.2,1.1C34.1,36,35.1,34.9,35.1,33.3"/>
<path class="st0" d="M48.2,37.9c-1.1,0.3-2.2,0.4-3.4,0.4c-3.7,0-5.6-1.7-5.6-4.9c0-3.8,2.5-6.5,5.8-6.5c2.7,0,4.5,1.6,4.5,4
	c0,0.8-0.1,1.6-0.4,2.7h-6.6c0,0.2,0,0.2,0,0.3c0,1.3,1,1.9,2.9,1.9c1.2,0,2.2-0.2,3.4-0.7L48.2,37.9z M46.6,31.4c0-0.2,0-0.4,0-0.6
	c0-0.9-0.6-1.4-1.6-1.4c-1,0-1.8,0.7-2.1,2L46.6,31.4z"/>
<path class="st0" d="M83.5,33.2c-0.5,3.6-3,5.3-6.4,5.3c-3.7,0-5.3-2.3-5.3-5c0-3.9,2.6-6.5,6.5-6.5c3.4,0,5.3,2.2,5.3,4.9
	C83.6,32.5,83.6,32.5,83.5,33.2 M80.2,31.9c0-1.1-0.5-2.2-1.8-2.2c-1.7,0-2.7,2-2.7,3.8c0,1.5,0.7,2.5,1.9,2.5c0.7,0,2.2-1,2.5-2.7
	C80.1,32.8,80.2,32.3,80.2,31.9"/>
<path class="st6" d="M83.9,36.5c0-0.5,0.4-0.9,0.9-0.9c0.5,0,0.9,0.4,0.9,0.9c0,0.5-0.4,0.9-0.9,0.9C84.3,37.4,83.9,37,83.9,36.5
	 M84.8,37.2c0.4,0,0.7-0.3,0.7-0.7c0-0.4-0.3-0.7-0.7-0.7c-0.4,0-0.7,0.3-0.7,0.7C84.1,36.9,84.4,37.2,84.8,37.2 M84.6,36.9h-0.2
	v-0.8h0.3c0.1,0,0.1,0,0.2,0c0.1,0,0.1,0.1,0.1,0.2c0,0.1,0,0.2-0.1,0.2l0.1,0.3h-0.2l-0.1-0.3h-0.1V36.9z M84.6,36.5L84.6,36.5
	c0.1,0,0.2,0,0.2,0c0,0,0-0.1,0-0.1c0,0,0-0.1,0-0.1c0,0-0.1,0-0.1,0h-0.1V36.5z"/>
<polygon class="st6" points="27.5,37.4 24.2,37.4 26.2,27 21.6,37.4 18.6,37.4 18.1,27.1 16.1,37.4 13.1,37.4 15.7,23.9 20.8,23.9 
	21.1,32.2 24.7,23.9 30.1,23.9 "/>
<path class="st6" d="M64.5,37.2c-0.9,0.2-1.6,0.4-2.4,0.4c-1.7,0-2.6-0.8-2.6-2.4c0-0.3,0-0.6,0.1-1l0.2-1.1l0.2-0.9l1.5-8.4h3.3
	l-0.5,2.5h1.7l-0.5,2.7h-1.7l-0.9,4.6c0,0.2-0.1,0.4-0.1,0.5c0,0.6,0.3,0.8,1.1,0.8c0.4,0,0.7,0,0.9-0.1L64.5,37.2z"/>
<path class="st0" d="M73,29.6l-0.1-0.3l0.7-1.7c-0.2,0-0.2,0-0.3,0c-0.2,0-0.3-0.1-0.3-0.1c-0.1,0-0.2,0-0.3,0
	c-1.1,0-1.9,0.5-2.9,1.8l0.3-2h-3.4l-2,10.9H68c0.5-2.5,0.7-3.9,0.9-5.1c0.4-2,1.9-2.9,3-2.7c0.1,0,0.2,0,0.4,0.1l0.2,0.1L73,29.6z"
	/>
<path class="st6" d="M74.1,26.5c-0.3-0.1-0.3-0.1-0.4-0.1c-0.2,0-0.3-0.1-0.3-0.1c-0.1,0-0.2,0-0.3,0c-1.1,0-1.9,0.5-2.9,1.8
	l0.3-1.7h-3l-2,11h3.3c1.2-6.7,1.7-7.9,3.3-7.9c0.1,0,0.3,0,0.4,0l0.4,0.1L74.1,26.5z"/>
<path class="st6" d="M51.3,29.9c0,1.4,0.8,2.3,2.5,3.1c1.4,0.5,1.6,0.7,1.6,1.2c0,0.7-0.6,1-1.9,1c-1,0-1.9-0.1-3-0.4l-0.5,2.5
	l0.1,0l0.6,0.1c0.2,0,0.5,0.1,0.9,0.1c0.8,0.1,1.4,0.1,1.8,0.1c3.5,0,5.2-1.2,5.2-3.7c0-1.5-0.7-2.4-2.4-3.1
	c-1.4-0.6-1.6-0.7-1.6-1.2c0-0.6,0.6-0.9,1.6-0.9c0.7,0,1.6,0.1,2.4,0.2l0.5-2.5c-0.9-0.1-2.2-0.2-2.9-0.2
	C52.6,26.2,51.3,27.9,51.3,29.9"/>
<path class="st6" d="M38.2,37.4h-2.7l0.1-1.1c-0.8,0.9-2,1.3-3.5,1.3c-1.8,0-3-1.2-3-3c0-2.7,2.1-4.2,5.8-4.2c0.4,0,0.9,0,1.3,0.1
	c0.1-0.4,0.1-0.5,0.1-0.7c0-0.7-0.6-1-2.1-1c-0.9,0-2,0.1-2.7,0.3L31,29.1l-0.3,0.1l0.5-2.5c1.6-0.4,2.7-0.6,4-0.6
	c2.8,0,4.3,1.1,4.3,3.2c0,0.5-0.1,0.9-0.3,2.2l-0.7,3.9l-0.1,0.7l-0.1,0.6l-0.1,0.4L38.2,37.4z M35.8,32.5c-0.3,0-0.5,0-0.7,0
	c-1.9,0-2.8,0.6-2.8,1.7c0,0.7,0.5,1.1,1.2,1.1C34.8,35.2,35.8,34.1,35.8,32.5"/>
<path class="st6" d="M49.1,37.1c-1.1,0.3-2.2,0.4-3.4,0.4c-3.7,0-5.6-1.7-5.6-4.9c0-3.8,2.4-6.5,5.8-6.5c2.7,0,4.5,1.6,4.5,4
	c0,0.8-0.1,1.6-0.4,2.7h-6.6c0,0.2,0,0.2,0,0.3c0,1.3,1,1.9,2.9,1.9c1.2,0,2.2-0.2,3.4-0.7L49.1,37.1z M47.3,30.6c0-0.2,0-0.4,0-0.6
	c0-0.9-0.6-1.4-1.6-1.4c-1,0-1.8,0.7-2.1,2L47.3,30.6z"/>
<path class="st6" d="M84.4,32.4c-0.5,3.6-3,5.3-6.4,5.3c-3.7,0-5.3-2.3-5.3-5.1c0-3.9,2.6-6.5,6.5-6.5c3.4,0,5.3,2.2,5.3,4.9
	C84.5,31.7,84.5,31.8,84.4,32.4 M81,31c0-1.1-0.5-2.2-1.8-2.2c-1.7,0-2.7,2-2.7,3.8c0,1.5,0.7,2.5,1.9,2.5c0.7,0,2.2-1,2.5-2.7
	C80.9,31.9,81,31.5,81,31"/>
</svg>
