<?xml version="1.0" encoding="utf-8"?>
<!-- Generator: Adobe Illustrator 21.0.0, SVG Export Plug-In . SVG Version: 6.00 Build 0)  -->
<svg version="1.1" id="mastercard_1_" xmlns="http://www.w3.org/2000/svg" xmlns:xlink="http://www.w3.org/1999/xlink" x="0px"
	 y="0px" width="50px" height="30px" viewBox="0 0 50 30" style="enable-background:new 0 0 50 30;" xml:space="preserve">
<style type="text/css">
	.st0{fill:#000066;}
	.st1{fill:#CC0000;}
	.st2{fill:#FF9900;}
	.st3{fill:#FFFFFF;}
</style>
<path class="st0" d="M0,4.3C0,1.9,1.9,0,4.3,0h41.4C48.1,0,50,1.9,50,4.3v21.4c0,2.4-1.9,4.3-4.3,4.3H4.3C1.9,30,0,28.1,0,25.7V4.3z
	"/>
<path class="st1" d="M28.1,15.2c0,5.4-4.4,9.8-9.8,9.8s-9.8-4.4-9.8-9.8s4.4-9.8,9.8-9.8C23.7,5.5,28.1,9.9,28.1,15.2"/>
<path class="st2" d="M31.4,5.5c-2.5,0-4.8,1-6.6,2.5c-0.4,0.3-0.7,0.7-1,1h2c0.3,0.3,0.5,0.7,0.7,1H23c-0.2,0.3-0.4,0.7-0.6,1H27
	c0.2,0.3,0.3,0.7,0.4,1H22l-0.3,1h6c0.1,0.7,0.2,1.4,0.2,2.1c0,1.1-0.2,2.1-0.5,3.1H22c0.1,0.4,0.3,0.7,0.4,1H27
	c-0.2,0.4-0.4,0.7-0.6,1h-3.5c0.2,0.4,0.5,0.7,0.7,1h2c-0.3,0.4-0.6,0.7-1,1c1.7,1.6,4,2.5,6.6,2.5c5.4,0,9.8-4.4,9.8-9.8
	C41.2,9.9,36.8,5.5,31.4,5.5"/>
<path class="st0" d="M16.8,18.1h-0.9v-0.4c-0.3,0.3-0.6,0.5-1.1,0.5c-0.6,0-1-0.4-1-1.1c0-1,0.7-1.6,1.9-1.6h0.4v-0.3
	c0-0.3-0.2-0.4-0.7-0.4s-0.9,0.1-1.1,0.2c0-0.1,0.1-0.9,0.1-0.9c0.5-0.2,0.9-0.2,1.3-0.2c0.9,0,1.4,0.4,1.4,1.2c0,0.2,0,0.5-0.1,0.8
	C17,16.6,16.8,17.8,16.8,18.1z M16,16.3h-0.2c-0.6,0-0.9,0.2-0.9,0.6c0,0.3,0.1,0.4,0.4,0.4C15.7,17.3,16,16.9,16,16.3z M13.4,18.1
	h-1l0.6-3.8l-1.4,3.8h-0.7l-0.1-3.8l-0.6,3.8h-1l0.8-4.9h1.5l0.1,2.7l0.9-2.7h1.7L13.4,18.1 M33.5,18.1h-0.9v-0.4
	c-0.3,0.3-0.6,0.5-1.1,0.5c-0.6,0-1-0.4-1-1.1c0-1,0.7-1.6,1.9-1.6h0.4v-0.3c0-0.3-0.2-0.4-0.7-0.4S31.2,14.9,31,15
	c0-0.1,0.1-0.9,0.1-0.9c0.5-0.2,0.9-0.2,1.3-0.2c0.9,0,1.4,0.4,1.4,1.2c0,0.2,0,0.5-0.1,0.8C33.7,16.6,33.5,17.8,33.5,18.1z
	 M32.7,16.3h-0.2c-0.6,0-0.9,0.2-0.9,0.6c0,0.3,0.1,0.4,0.4,0.4C32.4,17.3,32.7,16.9,32.7,16.3z M21.5,18c-0.3,0.1-0.5,0.1-0.8,0.1
	c-0.5,0-0.8-0.3-0.8-0.9c0-0.2,0.1-0.6,0.1-1.1c0.1-0.4,0.5-2.7,0.5-2.7h1.1L21.5,14h0.6L22,15h-0.6c-0.1,0.8-0.3,1.7-0.3,1.8
	c0,0.2,0.1,0.3,0.4,0.3h0.3L21.5,18"/>
<path class="st0" d="M24.1,15.6c0-0.1,0.1-0.7-0.5-0.7c-0.3,0-0.6,0.3-0.7,0.7H24.1z M24.7,18c-0.4,0.1-0.7,0.2-1.1,0.2
	c-1.2,0-1.8-0.6-1.8-1.8c0-1.4,0.8-2.4,1.8-2.4c0.9,0,1.4,0.6,1.4,1.5c0,0.3,0,0.6-0.1,1h-2.1c-0.1,0.6,0.3,0.8,0.9,0.8
	c0.4,0,0.7-0.1,1.1-0.3C24.8,17,24.7,18,24.7,18z M17.4,15.4c0,0.5,0.2,0.9,0.8,1.1c0.4,0.2,0.5,0.3,0.5,0.4c0,0.3-0.2,0.4-0.6,0.4
	c-0.3,0-0.6,0-0.9-0.2L17.1,18c0.2,0.1,0.5,0.1,1.1,0.1c1.1,0,1.6-0.4,1.6-1.3c0-0.6-0.2-0.9-0.7-1.1c-0.4-0.2-0.5-0.2-0.5-0.4
	s0.2-0.3,0.5-0.3c0.2,0,0.5,0,0.8,0.1l0.2-0.9C19.7,14,19.3,14,19,14C17.8,14,17.4,14.6,17.4,15.4 M29.9,14.1c0.3,0,0.6,0.1,0.9,0.3
	l0.2-1.1c-0.2-0.1-0.7-0.4-1.2-0.4c-0.7,0-1.3,0.4-1.7,0.9c-0.6-0.2-0.9,0.2-1.2,0.6l-0.3,0.1v-0.4h-1c-0.1,1.2-0.4,2.5-0.6,3.8v0.3
	h1.1c0.2-1.1,0.3-1.9,0.3-2.4l0.4-0.2c0.1-0.2,0.2-0.3,0.6-0.3c0,0.3-0.1,0.5-0.1,0.8c0,1.3,0.7,2.1,1.9,2.1c0.3,0,0.5,0,0.9-0.1
	l0.2-1.1c-0.4,0.2-0.6,0.3-0.9,0.3c-0.6,0-1-0.5-1-1.2C28.5,14.9,29.1,14.1,29.9,14.1 M37.5,17.2c-0.4,0-0.5-0.3-0.5-0.8
	c0-0.8,0.3-1.4,0.8-1.4c0.4,0,0.6,0.3,0.6,0.8C38.4,16.6,38,17.2,37.5,17.2z M38.9,13.2l-0.2,1.4c-0.3-0.4-0.6-0.7-1-0.7
	c-0.5,0-1,0.4-1.3,1c-0.4-0.1-0.9-0.2-0.9-0.2c0-0.3,0.1-0.5,0-0.6h-1c-0.1,1.2-0.4,2.5-0.6,3.8v0.3H35c0.1-0.9,0.3-1.7,0.3-2.3
	c0.4-0.3,0.5-0.6,0.9-0.6c-0.2,0.4-0.3,0.8-0.3,1.3c0,1,0.5,1.7,1.3,1.7c0.4,0,0.7-0.1,1-0.4v0.4h1l0.8-4.9h-1.1
	C38.9,13.4,38.9,13.2,38.9,13.2z"/>
<path class="st3" d="M13.7,17.8h-1l0.6-3.8l-1.4,3.8h-0.7L11.1,14l-0.6,3.8h-1l0.8-4.9h1.5l0.1,3l1-3h1.6L13.7,17.8 M17.1,17.8h-0.9
	v-0.4c-0.3,0.3-0.6,0.5-1.1,0.5c-0.6,0-1-0.4-1-1.1c0-1,0.7-1.6,1.9-1.6h0.4v-0.3c0-0.3-0.2-0.4-0.7-0.4c-0.5,0-0.9,0.1-1.1,0.2
	c0-0.1,0.1-0.9,0.1-0.9c0.5-0.2,0.9-0.2,1.3-0.2c0.9,0,1.4,0.4,1.4,1.2c0,0.2,0,0.5-0.1,0.8C17.3,16.3,17.1,17.5,17.1,17.8z
	 M16.3,16h-0.2c-0.6,0-0.9,0.2-0.9,0.6c0,0.3,0.1,0.4,0.4,0.4C16,17,16.3,16.6,16.3,16z M31.3,13l-0.2,1.1c-0.4-0.2-0.7-0.3-0.9-0.3
	c-0.8,0-1.3,0.8-1.3,1.9c0,0.8,0.4,1.2,1,1.2c0.3,0,0.5-0.1,0.9-0.3l-0.2,1.1c-0.4,0.1-0.6,0.1-0.9,0.1c-1.1,0-1.9-0.8-1.9-2.1
	c0-1.8,1-3,2.4-3C30.6,12.7,31.2,12.9,31.3,13"/>
<path class="st3" d="M33.8,17.8h-0.9v-0.4c-0.3,0.3-0.6,0.5-1.1,0.5c-0.6,0-1-0.4-1-1.1c0-1,0.7-1.6,1.9-1.6h0.4v-0.3
	c0-0.3-0.2-0.4-0.7-0.4s-0.9,0.1-1.1,0.2c0-0.1,0.1-0.9,0.1-0.9c0.5-0.2,0.9-0.2,1.3-0.2c0.9,0,1.4,0.4,1.4,1.2c0,0.2,0,0.5-0.1,0.8
	C34,16.3,33.8,17.5,33.8,17.8z M33,16h-0.2c-0.6,0-0.9,0.2-0.9,0.6c0,0.3,0.1,0.4,0.4,0.4C32.7,17,33,16.6,33,16z M21.8,17.7
	c-0.3,0.1-0.5,0.1-0.8,0.1c-0.5,0-0.8-0.3-0.8-0.9c0-0.2,0.1-0.6,0.1-1.1c0.1-0.4,0.5-2.7,0.5-2.7h1.1l-0.1,0.6h0.5l-0.1,1h-0.5
	c-0.1,0.8-0.3,1.7-0.3,1.8c0,0.2,0.1,0.3,0.4,0.3h0.3L21.8,17.7"/>
<path class="st3" d="M24.4,15.3c0-0.1,0.1-0.7-0.5-0.7c-0.3,0-0.6,0.3-0.7,0.7H24.4z M25,17.7c-0.4,0.1-0.7,0.2-1.1,0.2
	c-1.2,0-1.8-0.6-1.8-1.8c0-1.4,0.8-2.4,1.8-2.4c0.9,0,1.4,0.6,1.4,1.5c0,0.3,0,0.6-0.1,1h-2.1C23,16.8,23.4,17,24,17
	c0.4,0,0.7-0.1,1.1-0.3C25.1,16.7,25,17.7,25,17.7z M17.7,15.1c0,0.5,0.2,0.9,0.8,1.1c0.4,0.2,0.5,0.3,0.5,0.4
	c0,0.3-0.2,0.4-0.6,0.4c-0.3,0-0.6,0-0.9-0.2l-0.1,0.9c0.2,0.1,0.5,0.1,1.1,0.1c1.1,0,1.6-0.4,1.6-1.3c0-0.6-0.2-0.9-0.7-1.1
	c-0.4-0.2-0.5-0.2-0.5-0.4s0.2-0.3,0.5-0.3c0.2,0,0.5,0,0.8,0.1l0.2-0.9c-0.3,0-0.7-0.1-0.9-0.1C18.1,13.7,17.7,14.3,17.7,15.1
	 M37.8,16.9c0.5,0,0.8-0.6,0.8-1.4c0-0.5-0.2-0.8-0.6-0.8c-0.5,0-0.8,0.6-0.8,1.4C37.3,16.6,37.5,16.9,37.8,16.9z M39.4,17.8h-1
	v-0.4c-0.3,0.3-0.6,0.4-1,0.4c-0.8,0-1.3-0.7-1.3-1.7c0-1.3,0.8-2.5,1.7-2.5c0.4,0,0.7,0.2,1,0.5l0.2-1.4h1
	C40,12.7,39.4,17.8,39.4,17.8z"/>
<path class="st3" d="M34.7,13.8c-0.1,1.2-0.4,2.5-0.6,3.8v0.3h1.1c0.4-2.5,0.5-2.9,1.1-2.9c0.1-0.5,0.3-0.9,0.4-1.2
	c-0.4-0.1-0.7,0.2-1,0.6c0-0.2,0.1-0.4,0.1-0.6L34.7,13.8 M26,13.8c-0.1,1.2-0.4,2.5-0.6,3.8v0.3h1.1c0.4-2.5,0.5-2.9,1.1-2.9
	c0.1-0.5,0.3-0.9,0.4-1.2c-0.4-0.1-0.7,0.2-1,0.6c0-0.2,0.1-0.4,0.1-0.6L26,13.8"/>
</svg>
