<?xml version="1.0" encoding="utf-8"?>
<!-- Generator: Adobe Illustrator 18.0.0, SVG Export Plug-In . SVG Version: 6.00 Build 0)  -->
<!DOCTYPE svg PUBLIC "-//W3C//DTD SVG 1.1//EN" "http://www.w3.org/Graphics/SVG/1.1/DTD/svg11.dtd">
<svg version="1.1" id="Layer_1" xmlns="http://www.w3.org/2000/svg" xmlns:xlink="http://www.w3.org/1999/xlink" x="0px" y="0px"
	 width="97.3px" height="61.6px" viewBox="0 0 97.3 61.6" style="enable-background:new 0 0 97.3 61.6;" xml:space="preserve">
<style type="text/css">
	.st0{fill:#002F6B;}
	.st1{fill:#F29400;}
	.st2{fill:none;stroke:#F29400;stroke-width:0.347;}
	.st3{fill:#FFFFFF;}
	.st4{fill:none;stroke:#F29400;stroke-width:5.800000e-002;}
	.st5{fill:#E2001A;}
	.st6{fill:none;stroke:#E2001A;stroke-width:0.347;}
</style>
<rect x="0" y="0" class="st0" width="97.3" height="61.6"/>
<path class="st1" d="M48.6,50.5c4.7,4.3,11,6.9,17.8,6.9c14.7,0,26.6-11.9,26.6-26.6c0-14.7-11.9-26.6-26.6-26.6
	c-6.9,0-13.1,2.6-17.8,6.9c-5.4,4.9-8.7,11.9-8.7,19.7C39.9,38.6,43.3,45.6,48.6,50.5"/>
<path class="st2" d="M48.6,50.5c4.7,4.3,11,6.9,17.8,6.9c14.7,0,26.6-11.9,26.6-26.6c0-14.7-11.9-26.6-26.6-26.6
	c-6.9,0-13.1,2.6-17.8,6.9c-5.4,4.9-8.7,11.9-8.7,19.7C39.9,38.6,43.3,45.6,48.6,50.5z"/>
<path class="st3" d="M89.5,45.6c0-0.5,0.4-0.9,0.9-0.9c0.5,0,0.9,0.4,0.9,0.9c0,0.5-0.4,0.9-0.9,0.9C89.9,46.4,89.5,46,89.5,45.6
	 M90.4,46.2c0.4,0,0.7-0.3,0.7-0.7c0-0.4-0.3-0.7-0.7-0.7c-0.4,0-0.7,0.3-0.7,0.7C89.7,45.9,90,46.2,90.4,46.2 M90.3,45.9h-0.2v-0.8
	h0.3c0.1,0,0.1,0,0.2,0c0.1,0,0.1,0.1,0.1,0.2c0,0.1,0,0.2-0.1,0.2l0.1,0.3h-0.2l-0.1-0.3h-0.1V45.9z M90.3,45.5L90.3,45.5
	c0.1,0,0.2,0,0.2,0c0,0,0-0.1,0-0.1c0,0,0-0.1,0-0.1c0,0-0.1,0-0.1,0h-0.1V45.5z"/>
<path class="st1" d="M48.6,50.5c-5.4-4.9-8.7-11.9-8.7-19.7s3.4-14.8,8.7-19.7"/>
<path class="st4" d="M48.6,50.5c-5.4-4.9-8.7-11.9-8.7-19.7s3.4-14.8,8.7-19.7"/>
<path class="st5" d="M57.2,27.9c-0.1-1-0.2-1.9-0.4-2.8H40.5c0.2-1,0.5-1.9,0.8-2.8H56c-0.3-1-0.7-1.9-1.1-2.8H42.4
	c0.5-1,1-1.9,1.5-2.8h9.4c-0.6-1-1.3-1.9-2-2.8H46c0.8-1,1.7-1.9,2.7-2.8c-4.7-4.3-11-6.9-17.8-6.9C16.1,4.2,4.2,16.1,4.2,30.8
	c0,14.7,11.9,26.6,26.6,26.6c6.9,0,13.1-2.6,17.8-6.9c1-0.9,1.9-1.8,2.7-2.8H46c-0.7-0.9-1.4-1.8-2-2.8h9.4c0.6-0.9,1.1-1.8,1.5-2.8
	H42.4c-0.4-0.9-0.8-1.8-1.1-2.8H56c0.3-0.9,0.6-1.9,0.8-2.8c0.2-0.9,0.4-1.9,0.4-2.8c0.1-0.9,0.1-1.9,0.1-2.8
	C57.4,29.8,57.3,28.9,57.2,27.9"/>
<path class="st6" d="M57.2,27.9c-0.1-1-0.2-1.9-0.4-2.8H40.5c0.2-1,0.5-1.9,0.8-2.8H56c-0.3-1-0.7-1.9-1.1-2.8H42.4
	c0.5-1,1-1.9,1.5-2.8h9.4c-0.6-1-1.3-1.9-2-2.8H46c0.8-1,1.7-1.9,2.7-2.8c-4.7-4.3-11-6.9-17.8-6.9C16.1,4.2,4.2,16.1,4.2,30.8
	c0,14.7,11.9,26.6,26.6,26.6c6.9,0,13.1-2.6,17.8-6.9c1-0.9,1.9-1.8,2.7-2.8H46c-0.7-0.9-1.4-1.8-2-2.8h9.4c0.6-0.9,1.1-1.8,1.5-2.8
	H42.4c-0.4-0.9-0.8-1.8-1.1-2.8H56c0.3-0.9,0.6-1.9,0.8-2.8c0.2-0.9,0.3-1.9,0.4-2.8c0.1-0.9,0.1-1.9,0.1-2.8
	C57.4,29.8,57.3,28.9,57.2,27.9z"/>
<path class="st3" d="M89.5,36.9c0-0.5,0.4-0.9,0.9-0.9c0.5,0,0.9,0.4,0.9,0.9c0,0.5-0.4,0.9-0.9,0.9C89.9,37.8,89.5,37.4,89.5,36.9
	 M90.4,37.6c0.4,0,0.7-0.3,0.7-0.7c0-0.4-0.3-0.7-0.7-0.7c-0.4,0-0.7,0.3-0.7,0.7C89.7,37.3,90,37.6,90.4,37.6 M90.3,37.3h-0.2v-0.8
	h0.3c0.1,0,0.1,0,0.2,0c0.1,0,0.1,0.1,0.1,0.2c0,0.1,0,0.2-0.1,0.2l0.1,0.3h-0.2L90.4,37h-0.1V37.3z M90.3,36.9L90.3,36.9
	c0.1,0,0.2,0,0.2,0c0,0,0-0.1,0-0.1c0,0,0-0.1,0-0.1c0,0-0.1,0-0.1,0h-0.1V36.9z"/>
<path class="st0" d="M39.6,38.4c-0.9,0.2-1.5,0.4-2.2,0.4c-1.3,0-2.2-0.8-2.2-2.4c0-0.3,0-0.6,0.1-1l0.2-1.1l0.1-0.9l1.3-7.5h2.8
	l-0.3,1.6h1.7l-0.4,2.8h-1.7l-0.7,4.5c0,0.2,0,0.4,0,0.5c0,0.6,0.3,0.8,1,0.8c0.3,0,0.6,0,0.9-0.1L39.6,38.4z"/>
<path class="st0" d="M48.5,38.3c-1,0.3-1.9,0.4-3,0.4c-3.1,0-4.9-1.7-4.9-4.9c0-3.8,2.1-6.5,5-6.5c2.4,0,3.9,1.6,3.9,4
	c0,0.8-0.1,1.6-0.4,2.7h-5.7c0,0.2,0,0.2,0,0.3c0,1.3,0.9,1.9,2.5,1.9c1,0,2-0.2,3-0.7L48.5,38.3z M46.8,31.8c0-0.2,0-0.4,0-0.6
	c0-0.9-0.5-1.4-1.4-1.4c-0.9,0-1.6,0.7-1.8,2L46.8,31.8z"/>
<polygon class="st0" points="17.6,38.6 14.7,38.6 16.4,28.2 12.7,38.6 10.7,38.6 10.5,28.3 8.7,38.6 5.9,38.6 8.2,25.1 12.3,25.1 
	12.4,33.4 15.2,25.1 19.8,25.1 "/>
<path class="st0" d="M24.5,33.7c-0.3,0-0.4,0-0.6,0c-1.6,0-2.5,0.6-2.5,1.7c0,0.7,0.4,1.1,1,1.1C23.9,36.4,24.5,35.3,24.5,33.7
	 M26.8,38.6h-2.5l0.1-1.1c-0.6,0.9-1.5,1.3-3,1.3c-1.4,0-2.6-1.2-2.6-3c0-0.5,0.1-1,0.2-1.4c0.5-1.7,2.2-2.8,4.8-2.8
	c0.3,0,0.8,0,1.3,0c0.1-0.4,0.1-0.5,0.1-0.7c0-0.7-0.6-1-1.9-1c-0.8,0-1.7,0.1-2.4,0.3l-0.4,0.1l-0.2,0l0.4-2.5
	c1.3-0.4,2.3-0.6,3.4-0.6c2.5,0,3.8,1.1,3.8,3.2c0,0.5,0.1,1-0.1,2.2l-0.6,3.9L27,37.3l-0.1,0.6l0,0.4L26.8,38.6z"/>
<path class="st0" d="M62.4,27.7c0.8,0,1.5,0.2,2.6,0.7l0.5-2.9c-0.3-0.1-0.3-0.1-0.7-0.3l-1.2-0.3c-0.4-0.1-0.8-0.1-1.3-0.1
	c-1.4,0-2.3,0-3.1,0.5c-0.5,0.3-1,0.7-1.7,1.4l-0.3-0.1l-2.9,2.1l0.1-1.2h-3.1l-1.8,11h2.9l1.1-5.9c0,0,0.4-0.8,0.6-1.1
	c0.5-0.7,1-0.7,1.6-0.7c0.1,0,0.2,0,0.2,0c-0.1,0.6-0.1,1.3-0.1,2.1c0,3.6,2,5.8,5.1,5.8c0.8,0,1.5-0.1,2.5-0.4l0.5-3.1
	c-1,0.5-1.7,0.7-2.5,0.7c-1.7,0-2.7-1.2-2.7-3.3C58.7,29.8,60.2,27.7,62.4,27.7"/>
<path class="st0" d="M86.8,25.1l-0.6,3.8c-0.7-1-1.5-1.5-2.6-1.5c-1.5,0-2.9,0.9-3.8,2.5l0,0l-1.8-1.1l0.1-1.2H75l-1.8,11h2.9l1-5.9
	c0,0,0.7-0.8,0.9-1.1c0.4-0.6,0.9-0.7,1.3-0.7c-0.3,0.9-0.5,2-0.5,3.3c0,2.7,1.4,4.6,3.5,4.6c1.1,0,1.9-0.4,2.7-1.2l-0.1,1.1h2.7
	l2.2-13.5H86.8z M83.3,36c-1,0-1.5-0.7-1.5-2.2c0-2.2,0.9-3.7,2.2-3.7c1,0,1.5,0.8,1.5,2.1C85.6,34.5,84.6,36,83.3,36"/>
<path class="st0" d="M70,33.7c-0.3,0-0.4,0-0.6,0c-1.6,0-2.5,0.6-2.5,1.7c0,0.7,0.4,1.1,1,1.1C69.4,36.4,69.9,35.3,70,33.7
	 M72.3,38.6h-2.5l0.1-1.1c-0.6,0.9-1.5,1.3-3,1.3c-1.4,0-2.7-1.2-2.7-3c0-2.6,2-4.2,5.1-4.2c0.3,0,0.8,0,1.3,0
	c0.1-0.4,0.1-0.5,0.1-0.7c0-0.7-0.6-1-1.9-1c-0.8,0-1.7,0.1-2.4,0.3l-0.4,0.1l-0.2,0l0.4-2.5c1.3-0.4,2.3-0.6,3.4-0.6
	c2.5,0,3.8,1.1,3.8,3.2c0,0.5,0.1,1-0.1,2.2l-0.6,3.9l-0.1,0.7l-0.1,0.6l-0.1,0.4L72.3,38.6z"/>
<path class="st0" d="M32.8,29.9c0.6,0,1.3,0.1,2.2,0.2l0.4-2.5c-0.8-0.1-1.9-0.2-2.6-0.2c-3.2,0-4.3,1.7-4.3,3.7
	c0,1.3,0.6,2.3,2.2,3c1.2,0.5,1.4,0.6,1.4,1.1c0,0.7-0.6,1.1-1.7,1.1c-0.9,0-1.7-0.1-2.6-0.4l-0.3,2.5l0.1,0l0.5,0.1
	c0.2,0,0.4,0.1,0.8,0.1c0.7,0.1,1.3,0.1,1.6,0.1c3.2,0,4.5-1.2,4.5-3.7c0-1.5-0.7-2.4-2.2-3.1c-1.2-0.6-1.4-0.6-1.3-1.1
	C31.4,30.4,31.9,30,32.8,29.9"/>
<path class="st3" d="M66.2,24.7l-0.5,2.9c-1-0.5-1.8-0.7-2.6-0.7c-2.2,0-3.7,2.1-3.7,5c0,2,1,3.3,2.7,3.3c0.7,0,1.5-0.2,2.5-0.7
	l-0.5,3.1c-1.1,0.3-1.7,0.4-2.5,0.4c-3.1,0-5-2.2-5-5.8c0-4.8,2.7-8.2,6.5-8.2c0.5,0,0.9,0,1.3,0.1l1.2,0.3
	C65.9,24.5,66,24.5,66.2,24.7"/>
<path class="st3" d="M57,26.7c-0.1,0-0.2,0-0.3,0c-0.9,0-1.5,0.5-2.4,1.8l0.3-1.7H52l-1.8,11h2.9c1-6.7,1.3-7.9,2.7-7.9
	c0.1,0,0.1,0,0.2,0c0.3-1.3,0.6-2.3,1.1-3.2L57,26.7z"/>
<path class="st3" d="M40.3,37.6c-0.8,0.2-1.4,0.4-2.1,0.4c-1.5,0-2.3-0.8-2.3-2.4c0-0.3,0-0.6,0.1-1l0.2-1.1l0.1-0.9l1.3-7.5h2.9
	l-0.3,1.6h1.5l-0.4,2.7h-1.5L39,34c0,0.2,0,0.4,0,0.5c0,0.6,0.3,0.8,1,0.8c0.3,0,0.6,0,0.8-0.1L40.3,37.6z"/>
<path class="st3" d="M29.3,30.2c0,1.4,0.7,2.3,2.2,3.1c1.2,0.5,1.3,0.7,1.3,1.2c0,0.7-0.5,1-1.7,1c-0.9,0-1.7-0.1-2.6-0.4l-0.4,2.5
	l0.1,0l0.5,0.1c0.2,0,0.4,0.1,0.8,0.1c0.7,0.1,1.2,0.1,1.6,0.1c3,0,4.4-1.2,4.4-3.7c0-1.5-0.6-2.4-2-3.1c-1.2-0.6-1.3-0.7-1.3-1.2
	c0-0.6,0.5-0.9,1.4-0.9c0.6,0,1.3,0.1,2.1,0.2l0.4-2.5c-0.7-0.1-1.9-0.2-2.5-0.2C30.4,26.5,29.3,28.2,29.3,30.2"/>
<path class="st3" d="M88.3,37.7h-2.7l0.1-1.1c-0.8,0.8-1.6,1.2-2.7,1.2c-2.1,0-3.5-1.8-3.5-4.6c0-3.6,2.1-6.7,4.7-6.7
	c1.1,0,2,0.5,2.8,1.5l0.6-3.9h2.8L88.3,37.7z M84,35.1c1.3,0,2.3-1.5,2.3-3.7c0-1.4-0.5-2.1-1.5-2.1c-1.3,0-2.2,1.5-2.2,3.7
	C82.5,34.4,83,35.1,84,35.1"/>
<path class="st3" d="M49.2,37.5c-1,0.3-1.9,0.4-3,0.4c-3.2,0-4.9-1.7-4.9-4.9c0-3.8,2.1-6.5,5-6.5c2.4,0,3.9,1.6,3.9,4
	c0,0.8-0.1,1.6-0.4,2.7h-5.7c0,0.2,0,0.2,0,0.3c0,1.3,0.9,1.9,2.5,1.9c1,0,2-0.2,3-0.7L49.2,37.5z M47.5,31c0-0.2,0-0.4,0-0.6
	c0-0.9-0.5-1.4-1.4-1.4c-0.9,0-1.6,0.7-1.8,2L47.5,31z"/>
<polygon class="st3" points="18.3,37.7 15.4,37.7 17.1,27.4 13.4,37.7 11.4,37.7 11.2,27.4 9.5,37.7 6.8,37.7 9,24.2 13.2,24.2 
	13.3,32.6 16.1,24.2 20.6,24.2 "/>
<path class="st3" d="M25.4,32.8c-0.3,0-0.4,0-0.6,0c-1.6,0-2.5,0.6-2.5,1.7c0,0.7,0.4,1.1,1,1.1C24.5,35.6,25.4,34.5,25.4,32.8
	 M27.5,37.7h-2.4l0.1-1.1c-0.7,0.9-1.7,1.3-3,1.3c-1.6,0-2.6-1.2-2.6-3c0-2.7,1.9-4.2,5.1-4.2c0.3,0,0.7,0,1.2,0.1
	c0.1-0.4,0.1-0.5,0.1-0.7c0-0.7-0.5-1-1.9-1c-0.8,0-1.8,0.1-2.4,0.3l-0.4,0.1L21,29.6l0.4-2.5c1.4-0.4,2.4-0.6,3.5-0.6
	c2.5,0,3.8,1.1,3.8,3.2c0,0.5,0,1-0.2,2.2l-0.6,3.9l-0.1,0.7L27.6,37l0,0.4L27.5,37.7z"/>
<path class="st3" d="M70.9,32.8c-0.3,0-0.4,0-0.6,0c-1.6,0-2.5,0.6-2.5,1.7c0,0.7,0.4,1.1,1,1.1C70,35.6,70.8,34.5,70.9,32.8
	 M73,37.7h-2.4l0.1-1.1c-0.7,0.9-1.7,1.3-3,1.3c-1.6,0-2.6-1.2-2.6-3c0-2.7,1.9-4.2,5.1-4.2c0.3,0,0.7,0,1.2,0.1
	c0.1-0.4,0.1-0.5,0.1-0.7c0-0.7-0.5-1-1.9-1c-0.8,0-1.8,0.1-2.4,0.3l-0.4,0.1l-0.3,0.1l0.4-2.5c1.4-0.4,2.4-0.6,3.5-0.6
	c2.5,0,3.8,1.1,3.8,3.2c0,0.5,0,1-0.2,2.2l-0.6,3.9l-0.1,0.7L73.1,37L73,37.4L73,37.7z"/>
<path class="st3" d="M80.7,26.7c-0.1,0-0.2,0-0.3,0c-0.9,0-1.5,0.5-2.4,1.8l0.3-1.7h-2.6l-1.8,11h2.9c1-6.7,1.3-7.9,2.7-7.9
	c0.1,0,0.1,0,0.2,0C80,28.5,80.3,27.6,80.7,26.7L80.7,26.7z"/>
</svg>
