<?xml version="1.0" encoding="utf-8"?>
<!-- Generator: Adobe Illustrator 18.0.0, SVG Export Plug-In . SVG Version: 6.00 Build 0)  -->
<!DOCTYPE svg PUBLIC "-//W3C//DTD SVG 1.1//EN" "http://www.w3.org/Graphics/SVG/1.1/DTD/svg11.dtd">
<svg version="1.1" id="Layer_1" xmlns="http://www.w3.org/2000/svg" xmlns:xlink="http://www.w3.org/1999/xlink" x="0px" y="0px"
	 width="59.5px" height="21.1px" viewBox="0 0 59.5 21.1" style="enable-background:new 0 0 59.5 21.1;" xml:space="preserve">
<style type="text/css">
	.st0{fill-rule:evenodd;clip-rule:evenodd;fill:#E2001A;}
	.st1{fill-rule:evenodd;clip-rule:evenodd;fill:#F39600;}
</style>
<path class="st0" d="M56.2,8.3c0-0.7,0.5-1.2,1.1-1.2c0.6,0,1.1,0.5,1.1,1.2c0,0.6-0.5,1.2-1.1,1.2C56.7,9.5,56.2,9,56.2,8.3
	 M57.3,9.2c0.5,0,0.9-0.4,0.9-0.9c0-0.5-0.4-0.9-0.9-0.9c-0.5,0-0.9,0.4-0.9,0.9C56.5,8.8,56.9,9.2,57.3,9.2 M57.2,8.8h-0.2v-1h0.4
	c0.1,0,0.2,0,0.3,0.1c0.1,0.1,0.1,0.2,0.1,0.3c0,0.1-0.1,0.2-0.2,0.3l0.2,0.5h-0.3l-0.1-0.4h-0.2V8.8z M57.2,8.2h0.1
	c0,0,0.1,0,0.1,0c0,0,0.1-0.1,0.1-0.1c0,0,0-0.1-0.1-0.1c0,0-0.1,0-0.1,0h-0.1V8.2z"/>
<path class="st0" d="M40.2,0.5l-0.3,2C39.2,2.1,38.7,2,38.2,2c-1.4,0-2.4,1.4-2.4,3.4c0,1.4,0.7,2.2,1.8,2.2c0.5,0,1-0.1,1.6-0.5
	l-0.3,2.1c-0.7,0.2-1.1,0.3-1.7,0.3c-2,0-3.3-1.5-3.3-4c0-3.3,1.7-5.6,4.2-5.6c0.3,0,0.6,0,0.8,0.1l0.8,0.2C40,0.4,40,0.4,40.2,0.5"
	/>
<path class="st0" d="M34,1.8c-0.1,0-0.1,0-0.2,0c-0.6,0-1,0.3-1.5,1.2l0.2-1.1h-1.7l-1.1,7.5h1.9C32.1,4.8,32.3,4,33.2,4
	c0.1,0,0.1,0,0.1,0C33.5,3.1,33.7,2.5,34,1.8L34,1.8z"/>
<path class="st0" d="M22.8,9.3c-0.5,0.2-0.9,0.2-1.3,0.2c-1,0-1.5-0.6-1.5-1.6c0-0.2,0-0.4,0.1-0.7l0.1-0.7l0.1-0.6L21,0.8h1.9
	l-0.2,1.1h1l-0.3,1.8h-1l-0.5,3.1c0,0.1,0,0.2,0,0.3c0,0.4,0.2,0.6,0.6,0.6c0.2,0,0.4,0,0.5-0.1L22.8,9.3z"/>
<path class="st0" d="M15.4,4.3c0,0.9,0.4,1.6,1.4,2.1c0.8,0.4,0.9,0.5,0.9,0.8c0,0.5-0.3,0.7-1.1,0.7c-0.6,0-1.1-0.1-1.7-0.3
	l-0.3,1.7l0.1,0l0.3,0.1c0.1,0,0.3,0,0.5,0.1c0.4,0,0.8,0.1,1,0.1c2,0,2.9-0.8,2.9-2.5c0-1-0.4-1.6-1.3-2.1
	c-0.8-0.4-0.9-0.5-0.9-0.8c0-0.4,0.3-0.6,0.9-0.6c0.4,0,0.9,0,1.3,0.1l0.3-1.7c-0.5-0.1-1.2-0.1-1.6-0.1C16.1,1.7,15.4,2.9,15.4,4.3
	"/>
<path class="st0" d="M55.1,9.4h-1.8l0.1-0.7c-0.5,0.6-1,0.8-1.7,0.8c-1.4,0-2.3-1.2-2.3-3.1c0-2.5,1.4-4.6,3.1-4.6
	c0.7,0,1.3,0.3,1.8,1l0.4-2.6h1.8L55.1,9.4z M52.4,7.6c0.9,0,1.5-1,1.5-2.5c0-0.9-0.4-1.5-1-1.5c-0.8,0-1.5,1-1.5,2.5
	C51.4,7.1,51.7,7.6,52.4,7.6"/>
<path class="st0" d="M28.7,9.2c-0.6,0.2-1.3,0.3-1.9,0.3c-2.1,0-3.2-1.1-3.2-3.3c0-2.6,1.4-4.5,3.3-4.5c1.5,0,2.5,1.1,2.5,2.7
	c0,0.6-0.1,1.1-0.2,1.8h-3.7c0,0.1,0,0.2,0,0.2c0,0.9,0.6,1.3,1.6,1.3c0.7,0,1.3-0.1,1.9-0.5L28.7,9.2z M27.7,4.8c0-0.2,0-0.3,0-0.4
	c0-0.6-0.3-1-0.9-1c-0.6,0-1,0.5-1.2,1.3L27.7,4.8z"/>
<polygon class="st0" points="7.9,9.4 6,9.4 7.1,2.3 4.7,9.4 3.4,9.4 3.2,2.4 2.1,9.4 0.4,9.4 1.8,0.2 4.5,0.2 4.6,5.9 6.4,0.2 
	9.3,0.2 "/>
<path class="st0" d="M12.7,6.1c-0.2,0-0.3,0-0.4,0c-1.1,0-1.6,0.4-1.6,1.1c0,0.5,0.3,0.8,0.7,0.8C12.1,7.9,12.7,7.2,12.7,6.1
	 M14.1,9.4h-1.5l0-0.8c-0.5,0.6-1.1,0.9-2,0.9c-1,0-1.7-0.8-1.7-2c0-1.8,1.2-2.9,3.3-2.9c0.2,0,0.5,0,0.8,0.1C13,4.4,13,4.3,13,4.2
	c0-0.5-0.3-0.7-1.2-0.7c-0.5,0-1.1,0.1-1.6,0.2L10,3.8l-0.2,0l0.3-1.7c0.9-0.3,1.5-0.4,2.2-0.4c1.6,0,2.5,0.8,2.5,2.2
	c0,0.4,0,0.6-0.2,1.5l-0.4,2.7l-0.1,0.5l0,0.4l0,0.3L14.1,9.4z"/>
<path class="st0" d="M43.4,6.1c-0.2,0-0.3,0-0.4,0c-1.1,0-1.6,0.4-1.6,1.1c0,0.5,0.3,0.8,0.7,0.8C42.8,7.9,43.4,7.2,43.4,6.1
	 M44.8,9.4h-1.6l0-0.8c-0.5,0.6-1.1,0.9-2,0.9c-1,0-1.7-0.8-1.7-2c0-1.8,1.2-2.9,3.3-2.9c0.2,0,0.5,0,0.8,0.1
	c0.1-0.2,0.1-0.4,0.1-0.5c0-0.5-0.3-0.7-1.2-0.7c-0.5,0-1.1,0.1-1.6,0.2l-0.3,0.1l-0.2,0l0.3-1.7c0.9-0.3,1.6-0.4,2.2-0.4
	c1.6,0,2.5,0.8,2.5,2.2c0,0.4,0,0.6-0.2,1.5L45,8.1l-0.1,0.5l-0.1,0.4l0,0.3L44.8,9.4z"/>
<path class="st0" d="M50,1.8c-0.1,0-0.1,0-0.2,0c-0.6,0-1,0.3-1.5,1.2l0.2-1.1h-1.7l-1.1,7.5h1.9C48.2,4.8,48.3,4,49.2,4
	c0.1,0,0.1,0,0.1,0C49.5,3.1,49.8,2.5,50,1.8L50,1.8z"/>
<path class="st1" d="M42.2,16.6c0,1.7-0.5,2.7-1.4,2.7c-0.6,0-1-0.7-1-1.7c0-1.2,0.5-2.5,1.4-2.5C41.9,15.1,42.2,15.9,42.2,16.6
	 M44,16.7c0-1.9-0.9-3.3-2.7-3.3c-2,0-3.3,1.8-3.3,4.4c0,1.9,0.8,3.4,2.7,3.4C42.6,21.1,44,19.8,44,16.7"/>
<path class="st1" d="M38.6,12l-0.3,2c-0.6-0.4-1.1-0.5-1.6-0.5c-1.3,0-2.2,1.4-2.2,3.4c0,1.4,0.6,2.2,1.6,2.2c0.4,0,0.9-0.1,1.5-0.5
	l-0.3,2.1c-0.6,0.2-1.1,0.3-1.6,0.3c-1.9,0-3.1-1.5-3.1-4c0-3.3,1.6-5.6,3.9-5.6c0.3,0,0.6,0,0.8,0.1l0.7,0.2
	C38.4,11.9,38.4,11.9,38.6,12"/>
<path class="st1" d="M27,13.4c-0.1,0-0.1,0-0.2,0c-0.6,0-0.9,0.3-1.4,1.2l0.2-1.1H24l-1.1,7.5h1.7c0.6-4.6,0.8-5.4,1.6-5.4
	c0.1,0,0.1,0,0.1,0C26.6,14.6,26.8,14,27,13.4L27,13.4z"/>
<path class="st1" d="M49.9,20.8h-1.7l0.1-0.7c-0.5,0.6-1,0.8-1.6,0.8c-1.3,0-2.1-1.2-2.1-3.1c0-2.5,1.3-4.6,2.8-4.6
	c0.7,0,1.2,0.3,1.7,1l0.4-2.6h1.7L49.9,20.8z M47.3,19.1c0.8,0,1.4-1,1.4-2.5c0-1-0.3-1.5-0.9-1.5c-0.8,0-1.4,1-1.4,2.5
	C46.4,18.6,46.7,19.1,47.3,19.1"/>
<path class="st1" d="M10.6,20.8C10,21,9.5,21.1,8.8,21.1c-2,0-3-1.1-3-3.3c0-2.6,1.3-4.5,3.1-4.5c1.4,0,2.4,1.1,2.4,2.7
	c0,0.5-0.1,1.1-0.2,1.8H7.6c0,0.1,0,0.2,0,0.2c0,0.9,0.5,1.3,1.5,1.3c0.6,0,1.2-0.1,1.8-0.5L10.6,20.8z M9.7,16.3c0-0.2,0-0.3,0-0.4
	c0-0.6-0.3-1-0.8-1c-0.6,0-1,0.5-1.1,1.3L9.7,16.3z"/>
<path class="st1" d="M31.4,20.8c-0.6,0.2-1.2,0.3-1.8,0.3c-2,0-3-1.1-3-3.3c0-2.6,1.3-4.5,3.1-4.5c1.4,0,2.4,1.1,2.4,2.7
	c0,0.5-0.1,1.1-0.2,1.8h-3.5c0,0.1,0,0.2,0,0.2c0,0.9,0.5,1.3,1.5,1.3c0.6,0,1.2-0.1,1.8-0.5L31.4,20.8z M30.4,16.3
	c0-0.2,0-0.3,0-0.4c0-0.6-0.3-1-0.8-1c-0.6,0-1,0.5-1.1,1.3L30.4,16.3z"/>
<path class="st1" d="M55.8,20.8c-0.6,0.2-1.2,0.3-1.8,0.3c-2,0-3-1.1-3-3.3c0-2.6,1.3-4.5,3.1-4.5c1.4,0,2.4,1.1,2.4,2.7
	c0,0.5-0.1,1.1-0.2,1.8h-3.5c0,0.1,0,0.2,0,0.2c0,0.9,0.5,1.3,1.5,1.3c0.6,0,1.2-0.1,1.8-0.5L55.8,20.8z M54.8,16.3
	c0-0.2,0-0.3,0-0.4c0-0.6-0.3-1-0.8-1c-0.6,0-1,0.5-1.1,1.3L54.8,16.3z"/>
<path class="st1" d="M5.5,13.7c-0.3-0.2-0.8-0.4-1.5-0.4c-0.7,0-1.3,0.1-1.3,0.9c0,1.3,2.6,0.8,2.6,3.7c0,2.6-1.7,3.3-3.2,3.3
	c-0.7,0-1.5-0.2-2.1-0.5l0.4-1.9c0.4,0.3,1.1,0.5,1.6,0.5c0.5,0,1.4-0.2,1.4-1.1c0-1.5-2.6-0.9-2.6-3.6c0-2.4,1.5-3.1,3-3.1
	c0.8,0,1.6,0.1,2,0.4L5.5,13.7z"/>
<path class="st1" d="M15.7,20.8c-0.4,0.2-0.8,0.3-1.6,0.3c-1.5,0-2.5-1.5-2.5-3.4c0-2.4,1.4-4.4,3.4-4.4c0.4,0,1.1,0.2,1.6,0.5
	l-0.4,1.8c-0.4-0.2-0.8-0.4-1.2-0.4c-0.9,0-1.6,0.9-1.6,2.4c0,0.9,0.5,1.6,1.3,1.6c0.5,0,0.8-0.1,1.2-0.3L15.7,20.8z"/>
<path class="st1" d="M22.3,18.9c-0.1,0.6-0.2,1.3-0.2,1.9h-1.7l0.1-1.2h0c-0.5,0.8-1.1,1.4-2,1.4c-1.1,0-1.6-1.1-1.6-2.6
	c0-0.5,0-0.8,0.1-1.6l0.5-3.5h1.9l-0.5,3.5c-0.1,0.4-0.1,0.7-0.1,1.1c0,0.4,0.2,0.9,0.7,0.9c0.8,0,1.2-0.9,1.3-2l0.5-3.4h1.8
	L22.3,18.9z"/>
<polygon class="st1" points="57.6,20.8 57.3,20.8 57.3,19.5 56.9,19.5 56.9,19.3 58,19.3 58,19.5 57.6,19.5 "/>
<polygon class="st1" points="59.5,20.8 59.2,20.8 59.2,19.5 59.2,19.5 58.9,20.8 58.7,20.8 58.4,19.5 58.4,19.5 58.4,20.8 
	58.1,20.8 58.1,19.3 58.6,19.3 58.8,20.4 58.8,20.4 59,19.3 59.5,19.3 "/>
</svg>
