<svg id="mastercard_1_" xmlns="http://www.w3.org/2000/svg" viewBox="0 0 50 50">
  <style>
    .st0{fill:#000066;} .st1{fill:#CC0000;} .st2{fill:#FF9900;} .st3{fill:#FFFFFF;}
  </style>
  <path class="st0" d="M0 14.3C0 11.9 1.9 10 4.3 10h41.4c2.4 0 4.3 1.9 4.3 4.3v21.4c0 2.4-1.9 4.3-4.3 4.3H4.3C1.9 40 0 38.1 0 35.7V14.3z"/>
  <path class="st1" d="M28.1 25.2c0 5.4-4.4 9.8-9.8 9.8s-9.8-4.4-9.8-9.8 4.4-9.8 9.8-9.8c5.4.1 9.8 4.5 9.8 9.8"/>
  <path class="st2" d="M31.4 15.5c-2.5 0-4.8 1-6.6 2.5-.4.3-.7.7-1 1h2c.3.3.5.7.7 1H23c-.2.3-.4.7-.6 1H27c.2.3.3.7.4 1H22l-.3 1h6c.1.7.2 1.4.2 2.1 0 1.1-.2 2.1-.5 3.1H22c.1.4.3.7.4 1H27c-.2.4-.4.7-.6 1h-3.5c.2.4.5.7.7 1h2c-.3.4-.6.7-1 1 1.7 1.6 4 2.5 6.6 2.5 5.4 0 9.8-4.4 9.8-9.8.2-5-4.2-9.4-9.6-9.4"/>
  <path class="st0" d="M16.8 28.1h-.9v-.4c-.3.3-.6.5-1.1.5-.6 0-1-.4-1-1.1 0-1 .7-1.6 1.9-1.6h.4v-.3c0-.3-.2-.4-.7-.4s-.9.1-1.1.2c0-.1.1-.9.1-.9.5-.2.9-.2 1.3-.2.9 0 1.4.4 1.4 1.2 0 .2 0 .5-.1.8 0 .7-.2 1.9-.2 2.2zm-.8-1.8h-.2c-.6 0-.9.2-.9.6 0 .3.1.4.4.4.4 0 .7-.4.7-1zm-2.6 1.8h-1l.6-3.8-1.4 3.8h-.7l-.1-3.8-.6 3.8h-1l.8-4.9h1.5l.1 2.7.9-2.7h1.7l-.8 4.9m20.1 0h-.9v-.4c-.3.3-.6.5-1.1.5-.6 0-1-.4-1-1.1 0-1 .7-1.6 1.9-1.6h.4v-.3c0-.3-.2-.4-.7-.4s-.9.1-1.1.2c0-.1.1-.9.1-.9.5-.2.9-.2 1.3-.2.9 0 1.4.4 1.4 1.2 0 .2 0 .5-.1.8 0 .7-.2 1.9-.2 2.2zm-.8-1.8h-.2c-.6 0-.9.2-.9.6 0 .3.1.4.4.4.4 0 .7-.4.7-1zM21.5 28c-.3.1-.5.1-.8.1-.5 0-.8-.3-.8-.9 0-.2.1-.6.1-1.1.1-.4.5-2.7.5-2.7h1.1l-.1.6h.6l-.1 1h-.6c-.1.8-.3 1.7-.3 1.8 0 .2.1.3.4.3h.3l-.3.9"/>
  <path class="st0" d="M24.1 25.6c0-.1.1-.7-.5-.7-.3 0-.6.3-.7.7h1.2zm.6 2.4c-.4.1-.7.2-1.1.2-1.2 0-1.8-.6-1.8-1.8 0-1.4.8-2.4 1.8-2.4.9 0 1.4.6 1.4 1.5 0 .3 0 .6-.1 1h-2.1c-.1.6.3.8.9.8.4 0 .7-.1 1.1-.3l-.1 1zm-7.3-2.6c0 .5.2.9.8 1.1.4.2.5.3.5.4 0 .3-.2.4-.6.4-.3 0-.6 0-.9-.2l-.1.9c.2.1.5.1 1.1.1 1.1 0 1.6-.4 1.6-1.3 0-.6-.2-.9-.7-1.1-.4-.2-.5-.2-.5-.4s.2-.3.5-.3c.2 0 .5 0 .8.1l.2-.9c-.4-.2-.8-.2-1.1-.2-1.2 0-1.6.6-1.6 1.4m12.5-1.3c.3 0 .6.1.9.3l.2-1.1c-.2-.1-.7-.4-1.2-.4-.7 0-1.3.4-1.7.9-.6-.2-.9.2-1.2.6l-.3.1v-.4h-1c-.1 1.2-.4 2.5-.6 3.8v.3h1.1c.2-1.1.3-1.9.3-2.4l.4-.2c.1-.2.2-.3.6-.3 0 .3-.1.5-.1.8 0 1.3.7 2.1 1.9 2.1.3 0 .5 0 .9-.1l.2-1.1c-.4.2-.6.3-.9.3-.6 0-1-.5-1-1.2.1-1.2.7-2 1.5-2m7.6 3.1c-.4 0-.5-.3-.5-.8 0-.8.3-1.4.8-1.4.4 0 .6.3.6.8 0 .8-.4 1.4-.9 1.4zm1.4-4l-.2 1.4c-.3-.4-.6-.7-1-.7-.5 0-1 .4-1.3 1-.4-.1-.9-.2-.9-.2 0-.3.1-.5 0-.6h-1c-.1 1.2-.4 2.5-.6 3.8v.3H35c.1-.9.3-1.7.3-2.3.4-.3.5-.6.9-.6-.2.4-.3.8-.3 1.3 0 1 .5 1.7 1.3 1.7.4 0 .7-.1 1-.4v.4h1l.8-4.9h-1.1v-.2z"/>
  <path class="st3" d="M13.7 27.8h-1l.6-3.8-1.4 3.8h-.7l-.1-3.8-.6 3.8h-1l.8-4.9h1.5l.1 3 1-3h1.6l-.8 4.9m3.4 0h-.9v-.4c-.3.3-.6.5-1.1.5-.6 0-1-.4-1-1.1 0-1 .7-1.6 1.9-1.6h.4v-.3c0-.3-.2-.4-.7-.4-.5 0-.9.1-1.1.2 0-.1.1-.9.1-.9.5-.2.9-.2 1.3-.2.9 0 1.4.4 1.4 1.2 0 .2 0 .5-.1.8 0 .7-.2 1.9-.2 2.2zm-.8-1.8h-.2c-.6 0-.9.2-.9.6 0 .3.1.4.4.4.4 0 .7-.4.7-1zm15-3l-.2 1.1c-.4-.2-.7-.3-.9-.3-.8 0-1.3.8-1.3 1.9 0 .8.4 1.2 1 1.2.3 0 .5-.1.9-.3l-.2 1.1c-.4.1-.6.1-.9.1-1.1 0-1.9-.8-1.9-2.1 0-1.8 1-3 2.4-3 .4 0 1 .2 1.1.3"/>
  <path class="st3" d="M33.8 27.8h-.9v-.4c-.3.3-.6.5-1.1.5-.6 0-1-.4-1-1.1 0-1 .7-1.6 1.9-1.6h.4v-.3c0-.3-.2-.4-.7-.4s-.9.1-1.1.2c0-.1.1-.9.1-.9.5-.2.9-.2 1.3-.2.9 0 1.4.4 1.4 1.2 0 .2 0 .5-.1.8 0 .7-.2 1.9-.2 2.2zM33 26h-.2c-.6 0-.9.2-.9.6 0 .3.1.4.4.4.4 0 .7-.4.7-1zm-11.2 1.7c-.3.1-.5.1-.8.1-.5 0-.8-.3-.8-.9 0-.2.1-.6.1-1.1.1-.4.5-2.7.5-2.7h1.1l-.1.6h.5l-.1 1h-.5c-.1.8-.3 1.7-.3 1.8 0 .2.1.3.4.3h.3l-.3.9"/>
  <path class="st3" d="M24.4 25.3c0-.1.1-.7-.5-.7-.3 0-.6.3-.7.7h1.2zm.6 2.4c-.4.1-.7.2-1.1.2-1.2 0-1.8-.6-1.8-1.8 0-1.4.8-2.4 1.8-2.4.9 0 1.4.6 1.4 1.5 0 .3 0 .6-.1 1h-2.1c-.1.6.3.8.9.8.4 0 .7-.1 1.1-.3l-.1 1zm-7.3-2.6c0 .5.2.9.8 1.1.4.2.5.3.5.4 0 .3-.2.4-.6.4-.3 0-.6 0-.9-.2l-.1.9c.2.1.5.1 1.1.1 1.1 0 1.6-.4 1.6-1.3 0-.6-.2-.9-.7-1.1-.4-.2-.5-.2-.5-.4s.2-.3.5-.3c.2 0 .5 0 .8.1l.2-.9c-.3 0-.7-.1-.9-.1-1.4-.1-1.8.5-1.8 1.3m20.1 1.8c.5 0 .8-.6.8-1.4 0-.5-.2-.8-.6-.8-.5 0-.8.6-.8 1.4.1.5.3.8.6.8zm1.6.9h-1v-.4c-.3.3-.6.4-1 .4-.8 0-1.3-.7-1.3-1.7 0-1.3.8-2.5 1.7-2.5.4 0 .7.2 1 .5l.2-1.4h1l-.6 5.1z"/>
  <path class="st3" d="M34.7 23.8c-.1 1.2-.4 2.5-.6 3.8v.3h1.1c.4-2.5.5-2.9 1.1-2.9.1-.5.3-.9.4-1.2-.4-.1-.7.2-1 .6 0-.2.1-.4.1-.6h-1.1m-8.7 0c-.1 1.2-.4 2.5-.6 3.8v.3h1.1c.4-2.5.5-2.9 1.1-2.9.1-.5.3-.9.4-1.2-.4-.1-.7.2-1 .6 0-.2.1-.4.1-.6H26"/>
</svg>