<?xml version="1.0" encoding="utf-8"?>
<!-- Generator: Adobe Illustrator 18.0.0, SVG Export Plug-In . SVG Version: 6.00 Build 0)  -->
<!DOCTYPE svg PUBLIC "-//W3C//DTD SVG 1.1//EN" "http://www.w3.org/Graphics/SVG/1.1/DTD/svg11.dtd">
<svg version="1.1" id="Layer_1" xmlns="http://www.w3.org/2000/svg" xmlns:xlink="http://www.w3.org/1999/xlink" x="0px" y="0px"
	 width="66.9px" height="65.4px" viewBox="0 0 66.9 65.4" style="enable-background:new 0 0 66.9 65.4;" xml:space="preserve">
<style type="text/css">
	.st0{fill-rule:evenodd;clip-rule:evenodd;fill:#006647;}
	.st1{fill:#006647;}
	.st2{fill:#77BC1F;}
</style>
<path class="st0" d="M9.6,56.9c0.1-0.6,0.2-1.2,0.2-1.8c0-1.1-0.2-2.1-1.1-2.9c-0.8-0.8-2-1-3.1-1c-4.7,0-5.6,4.3-5.6,6
	c0,1.3,0.4,2.3,1.2,3C2,61,3.3,61.1,4.2,61.1c1.4,0,2.5-0.3,3.6-1.1C8.8,59.2,9.3,58.1,9.6,56.9 M6.6,56.2c-0.3,1.6-0.7,2.1-0.9,2.3
	c-0.3,0.4-0.8,0.7-1.3,0.7c-0.6,0-1.1-0.3-1.3-0.9C3.1,58.2,3,58,3,57.6c0-0.8,0.4-2.9,1.1-3.8c0.2-0.2,0.6-0.7,1.5-0.7
	c1.1,0,1.3,0.9,1.3,1.6C6.8,55.2,6.7,55.8,6.6,56.2"/>
<path class="st1" d="M16.2,58.9l-0.1-0.1c-0.3,0.1-0.6,0.2-1,0.2c-0.4,0-0.8-0.2-0.8-0.7c0-0.3,0.2-1.3,0.3-1.7l0.8-3.2l1.7,0
	l0.1-0.1c0.2-0.8,0.3-1,0.6-1.8l-0.1-0.1l-1.8,0l0.4-1.6l0.4-1.5l-0.1-0.1c-1.2,0.4-1.6,0.5-3,0.8l-0.1,0.1l-0.5,2.3h-1.2l-0.1,0.1
	L11,53.3l0.1,0.1l1.3,0l-0.6,2.5c-0.3,1-0.6,2.4-0.6,3.1c0,1.6,1.2,2.1,2.7,2.1c0.6,0,1-0.1,1.6-0.2l0.1-0.1L16.2,58.9z"/>
<path class="st0" d="M22.3,51.3l-0.1-0.1l-3.1,0.5L19,51.8c-0.1,0.9-0.2,1.4-0.5,3.1c-0.3,1.6-0.7,3.2-1,4.8L17.1,61l-1,4.2l0.1,0.1
	c0.7,0,1.2-0.1,1.8-0.1c0.4,0,0.8,0,1.2,0l0.1-0.1l0.9-4.3c1.9,0,4.2,0,5.9-2.2c0.9-1.1,1.4-2.7,1.4-4c0-2.3-1.2-3.6-3-3.6
	c-1.2,0-1.9,0.5-2.4,0.9L22.3,51.3z M21.8,53.8c0.4-0.3,0.8-0.5,1.3-0.5c0.4,0,1.3,0.2,1.3,1.7c0,1.4-0.6,2.6-1.4,3.2
	c-0.6,0.5-1.5,0.7-2,0.7c-0.1,0-0.3,0-0.4,0L21.8,53.8z"/>
<path class="st2" d="M27.8,60.7l0.9-4l0.7-3.3c0.3-1.3,0.6-2.7,0.9-4c0.2-1.1,0.3-1.5,0.4-2.3l0.1-0.1l1.9-0.3l0.1,0.1l-0.5,2
	l-0.8,3.4c0.7-0.4,1.5-0.8,2.6-0.8c1.8,0,3.2,1.2,3.2,3.4c0,0.9-0.3,2.6-1.5,4c-1.6,1.8-3.6,2-5.9,2h-1l-1.2,0L27.8,60.7z M30,59.4
	l0.3,0c0.9,0,2.2,0,3.4-0.8c1.3-0.9,1.9-2.5,1.9-3.6c0-1.6-1-2.2-2.1-2.2c-0.9,0-1.5,0.4-2.1,0.7L30,59.4z"/>
<path class="st2" d="M47,55.1c-0.6,2.7-0.7,3.4-1.1,5.5l-0.1,0.1l-1.7,0L44,60.7l0.1-0.7c-0.3,0.2-1.1,0.9-2.6,0.9
	c-1.8,0-3.3-1.3-3.3-3.5c0-1.4,0.7-2.9,1.4-3.8c1.7-1.9,3.9-2,5.6-2l2.5,0l0.1,0.1L47,55.1z M45.7,52.9c-0.3,0-0.5,0-0.8,0
	c-0.6,0-1.7,0-2.8,0.7c-1.9,1.3-1.9,3.6-1.9,3.7c0,0.9,0.5,2.2,2.1,2.2c0.5,0,1.1-0.1,1.5-0.4c0.2-0.1,0.4-0.3,0.6-0.5L45.7,52.9z"
	/>
<path class="st2" d="M56,60.7l-0.1,0.1L54,60.8L54,60.7l0.7-3.2l0.4-2c0.1-0.4,0.2-0.8,0.2-1.3c0-1.1-0.7-1.4-1.5-1.4
	c-1.1,0-1.8,0.5-2.4,0.9c-0.7,3-0.9,3.9-1.4,6.9l-0.1,0.1l-1.8,0.1L48,60.7l0.7-3.1l0.3-1.3c0.5-2.1,0.6-2.6,0.9-4.5l0.1-0.1
	c0.8-0.1,1-0.1,1.9-0.3l0.1,0.1l-0.2,0.9c0.7-0.5,1.6-1.1,3.1-1.1c0.6,0,2.5,0.2,2.5,2.3c0,0.9-0.4,2.5-0.6,3.5l-0.3,1.2L56,60.7z"
	/>
<path class="st2" d="M62.8,55.4l2.8,5.2l-0.1,0.1l-2,0.1l-0.1-0.1c-0.5-1.1-0.6-1.3-1.2-2.6l-1.2-2.5c-0.5,2.3-0.6,2.8-1.1,5.1
	l-0.1,0.1l-1.8,0l-0.1-0.1l1.1-4.6l0.6-2.4c0.3-1.2,0.5-2.3,0.8-3.4c0.3-1.6,0.4-2.2,0.6-3.2l0.1-0.1l1.9-0.3l0.1,0.1L62.4,49
	l-1.5,6.3c0.4-0.4,0.7-0.6,1.3-1.2c0.6-0.6,2.1-2.2,2.4-2.5l0.2-0.1h2l0.1,0.2c-0.2,0.2-0.3,0.2-1,0.8c-0.3,0.2-0.5,0.4-0.8,0.7
	L62.8,55.4z"/>
<path class="st1" d="M11.9,20.8C11.9,9.3,21.2,0,32.7,0v7.5c-7.4,0-13.3,5.9-13.3,13.3c0,7.3,6,13.3,13.3,13.3s13.3-5.9,13.3-13.3
	l7.5,0c0,11.5-9.3,20.8-20.9,20.8C21.2,41.5,11.9,32.2,11.9,20.8"/>
<path class="st2" d="M23.5,20.8c0-5.1,4.1-9.2,9.3-9.2c5.1,0,9.3,4.1,9.3,9.2c0,5.1-4.1,9.2-9.3,9.2C27.6,30,23.5,25.9,23.5,20.8"/>
<path class="st1" d="M39.2,9.1c0-2.9,2.4-5.3,5.3-5.3c2.9,0,5.3,2.4,5.3,5.3c0,2.9-2.4,5.3-5.3,5.3C41.5,14.4,39.2,12,39.2,9.1"/>
</svg>
