<?xml version="1.0" encoding="utf-8"?>
<!-- Generator: Adobe Illustrator 18.0.0, SVG Export Plug-In . SVG Version: 6.00 Build 0)  -->
<!DOCTYPE svg PUBLIC "-//W3C//DTD SVG 1.1//EN" "http://www.w3.org/Graphics/SVG/1.1/DTD/svg11.dtd">
<svg version="1.1" xmlns="http://www.w3.org/2000/svg" xmlns:xlink="http://www.w3.org/1999/xlink" x="0px" y="0px" width="56px"
	 height="24.7px" viewBox="0 0 56 24.7" style="enable-background:new 0 0 56 24.7;" xml:space="preserve">
<style type="text/css">
	.st0{display:none;}
	.st1{display:inline;fill:#0060A9;}
	.st2{display:inline;fill-rule:evenodd;clip-rule:evenodd;fill:#0060A9;}
	.st3{fill:#0060A9;}
</style>
<g id="Layer_1" class="st0">
	<polygon class="st1" points="25.5,24.5 27.3,13.6 30.1,13.6 28.3,24.5 	"/>
	<path class="st1" d="M38.5,13.9c-0.6-0.2-1.4-0.5-2.5-0.5c-2.8,0-4.7,1.5-4.8,3.6c0,1.6,1.4,2.4,2.5,3c1.1,0.5,1.5,0.9,1.5,1.4
		c0,0.7-0.9,1.1-1.7,1.1c-1.1,0-1.7-0.2-2.7-0.6l-0.4-0.2l-0.4,2.4c0.7,0.3,1.9,0.6,3.1,0.6c3,0,4.9-1.5,4.9-3.7
		c0-1.2-0.7-2.2-2.4-3c-1-0.5-1.6-0.8-1.6-1.4c0-0.5,0.5-0.9,1.6-0.9c0.9,0,1.6,0.2,2.1,0.4l0.3,0.1L38.5,13.9"/>
	<path class="st1" d="M45.8,13.6h-2.2c-0.7,0-1.2,0.2-1.5,0.9l-4.2,10h3c0,0,0.5-1.3,0.6-1.6c0.3,0,3.2,0,3.6,0
		c0.1,0.4,0.3,1.6,0.3,1.6H48L45.8,13.6 M42.3,20.7c0.2-0.6,1.1-3,1.1-3c0,0,0.2-0.6,0.4-1l0.2,0.9c0,0,0.5,2.6,0.7,3.2H42.3z"/>
	<path class="st1" d="M23.1,13.6l-2.8,7.4l-0.3-1.5c0,0,0,0,0,0l-1-5c-0.2-0.7-0.7-0.9-1.3-0.9h-4.5l0,0.2c1.1,0.3,2.1,0.7,3,1.2
		l2.5,9.4l3,0l4.4-10.9H23.1z"/>
	<path class="st2" d="M27.3,1.3C27.3,1.3,27.3,1.3,27.3,1.3L27.3,1.3L27.3,1.3L27.3,1.3l0.1,0.3c0,0.2,0,0.3,0,0.5
		c0,0.2,0,0.3,0,0.5c0,0,0,0-0.1,0v0h0c0,0,0,0,0,0H27c0,0-0.1,0-0.1,0c0,0-0.1,0-0.2,0c-0.1,0-0.3,0-0.4,0v0c0,0,0,0-0.1,0v0h0v0
		h-0.1v0c0,0,0,0-0.1,0v0c0,0,0,0,0,0v0h0c0,0,0,0,0,0c0,0-0.1,0.1-0.1,0.1c0,0,0,0,0,0v0c0,0-0.1,0-0.1,0.1c0,0,0,0,0,0.1
		c0,0,0,0,0,0v0h0c0,0,0,0.1,0,0.1h0v0c0,0,0,0,0,0c0,0,0,0,0,0.1c0,0,0,0,0,0v0.1h0v0.1h0v0.1h0c0,0.1,0,0.3,0,0.4h0v0.1
		c0,0-0.1,0.2,0,0.2h0c0,0,0,0.1,0,0.1h0c0,0,0,0,0,0c0,0,0.1,0,0.1,0.1H26c0.2,0,0.3,0,0.5,0c0.1,0,0.1,0,0.2,0v0c0,0,0,0,0.1,0
		c0,0,0,0,0,0h0c0,0,0,0.1,0,0.1h0v0.1h0c0,0.1,0,0.1,0,0.2v0.2h0c0,0.1,0,0.2,0,0.3v0.3h0c0,0,0,0.1,0,0.1c0,0-0.1,0-0.1,0.1
		c0,0,0,0,0,0c0,0,0,0,0,0c-0.3,0-0.6,0-0.9,0v0h-0.1c-0.1,0-0.2,0-0.2,0c0,0,0,0,0,0.1h0c0,0,0,0,0,0.1h0V6h0v0.2h0v0.1h0
		c0,0,0,0.1,0,0.1h0v0.2h0c0,0.1,0,0.1,0,0.2h0v0h0v0h0v0.1h0V7h0v0.1h0v0.1h0v0.1h0c0,0.1,0,0.3,0,0.4c0,0.1,0,0.1-0.1,0.2
		c0,0.1,0,0.1,0,0.2h0v0h0v0.1h0v0.1h0v0.1h0c0,0.1,0,0.3,0,0.4h0v0.1h0v0.1h0v0.1h0V9h0V9h0v0.1h0v0.1h0c0,0,0,0.1,0,0.1h0v0.1h0
		v0.1h0c0,0.1,0,0.1,0,0.2h0v0.1h0c0,0.1,0,0.2,0,0.3h0v0.1h0v0.1h0v0h0v0.1h0c0,0,0,0.1,0,0.1h0v0.1h0c0,0.1,0,0.1,0,0.2h0v0.1h0
		v0.1h0v0.1h0v0.1h0v0c0,0,0,0.1-0.1,0.1h-0.2c0,0-0.3,0-0.4,0h-0.7c-0.1,0-0.2,0-0.3,0v0c0,0-0.1,0-0.1,0c0,0,0-0.1-0.1-0.1
		c0-0.1,0-0.2,0-0.3v-0.2h0v0h0v0h0c0,0,0-0.1,0-0.1h0v0h0v-0.1h0c0-0.1,0-0.1,0-0.2h0V9.9h0c0-0.1,0-0.3,0-0.4h0V9.4h0V9.4h0V9.3h0
		c0-0.1,0-0.1,0-0.2h0V9h0v0h0v0h0c0-0.1,0-0.1,0-0.2h0c0-0.1,0-0.2,0-0.3c0-0.1,0-0.2,0.1-0.3V8.1h0v0h0c0-0.1,0-0.1,0-0.2h0V7.7h0
		V7.7h0V7.5h0V7.4h0V7.3h0V7.1h0V7h0V7h0V6.9h0c0-0.1,0-0.1,0-0.2h0V6.6c0-0.1,0-0.1,0.1-0.2V6.4h0c0-0.1,0-0.2,0-0.3h0V6h0
		c0-0.1,0-0.1,0-0.2c0,0-0.1-0.1-0.1-0.1h-0.2c-0.1,0-0.2,0-0.3,0c-0.1,0-0.2,0-0.3,0c0,0,0,0,0,0h0v0c0,0,0,0,0,0V5.5
		c0,0,0-0.1,0-0.1h0V5.3h0V5.3h0V5.2h0V5.1h0V5.1h0V5h0V5h0c0,0,0-0.1,0-0.1h0V4.8h0V4.5h0v0h0v0h0c0,0,0-0.1,0.1-0.1
		c0,0,0.1,0,0.2,0c0,0,0.1,0,0.1,0c0,0,0.1,0,0.1,0v0h0.2v0h0.1c0,0,0.1,0,0.1,0c0,0,0,0,0,0h0v0h0c0,0,0-0.1,0-0.1h0c0,0,0,0,0-0.1
		h0c0-0.1,0-0.1,0-0.2h0V3.7h0V3.6h0V3.5h0V3.4h0c0-0.1,0-0.1,0-0.2h0V3.2h0V3.1h0V3.1h0v0h0v0h0c0,0,0-0.1,0-0.1h0v0h0V2.8h0V2.7h0
		V2.6h0v0h0V2.6h0c0,0,0-0.1,0-0.1l0,0v0h0c0-0.1,0-0.1,0.1-0.2c0,0,0,0,0,0c0,0,0,0,0-0.1c0,0,0,0,0,0v0c0,0,0,0,0.1,0v0
		c0,0,0,0,0.1-0.1c0,0,0-0.1,0-0.1c0,0,0,0,0,0v0c0,0,0,0,0.1-0.1c0,0,0,0,0,0h0c0,0,0,0,0,0h0c0,0,0,0,0,0h0c0,0,0,0,0.1-0.1h0
		c0,0,0,0,0.1-0.1h0c0,0,0,0,0,0h0c0,0,0-0.1,0.1-0.1h0c0,0,0,0,0,0h0c0,0,0,0,0,0c0,0,0,0,0.1,0v0c0.1,0,0.1,0,0.2,0v0h0v0h0v0h0v0
		h0v0h0v0h0v0c0,0,0.1,0,0.1,0v0h0v0h0c0,0,0,0,0,0h0v0c0.1,0,0.2,0,0.4,0c0.1,0,0.2,0,0.2-0.1h0.3h0.2v0H27v0h0.1v0h0.1v0
		C27.2,1.2,27.2,1.2,27.3,1.3L27.3,1.3C27.3,1.3,27.3,1.3,27.3,1.3"/>
	<path class="st2" d="M22,3.1c0,0.1-0.1,0.1-0.1,0.1v0h0v0c0,0-0.1,0-0.1,0v0c-0.1,0-0.4,0.1-0.6,0h-0.1v0h0v0h0c0,0,0,0,0,0h0
		c0,0,0,0,0,0h0c0,0-0.1,0-0.1-0.1v0c0,0,0,0,0-0.1h0c0,0,0,0,0,0h0c0,0,0,0-0.1-0.1c0,0,0,0,0,0v0c0,0,0,0-0.1-0.1c0,0,0,0,0-0.1h0
		c0,0,0-0.1,0-0.1c0-0.1,0-0.2,0-0.3h0c0-0.1,0-0.2,0-0.3V2.1h0c0,0,0,0,0-0.1h0V2h0v0h0v0c0,0,0,0,0,0c0,0,0,0,0,0c0,0,0,0,0.1,0
		c0-0.1,0-0.1,0.1-0.1v0h0c0,0,0-0.1,0.1-0.1h0c0,0,0,0,0.1-0.1h0c0,0,0,0,0.1-0.1c0,0,0.1,0,0.1,0v0h0v0h0.1v0c0,0,0.1,0,0.1,0v0h0
		v0l0.2,0v0h0.1v0c0.1,0,0.2,0,0.3,0H22v0h0v0h0v0c0,0,0.1,0,0.1,0v0c0,0,0.1,0,0.1,0c0,0,0,0,0,0h0c0,0,0,0,0.1,0.1c0,0,0,0,0,0v0
		c0,0,0,0,0,0v0c0,0,0,0,0,0v0c0,0,0,0,0,0v0h0v0h0v0h0v0h0v0h0c0,0,0,0.1,0,0.1h0v0h0v0.1h0c0,0.1,0,0.2,0,0.3v0.1h0
		c0,0,0,0.1,0,0.1h0v0h0c0,0,0,0.1,0,0.1c0,0,0,0,0,0v0h0v0h0v0l0,0v0c0,0,0,0,0,0v0c0,0,0,0,0,0c0,0,0,0.1-0.1,0.1h0
		c0,0,0,0.1-0.1,0.1C22.1,3,22.1,3.1,22,3.1"/>
	<path class="st2" d="M29.2,1.3c0.1,0,0.2,0.1,0.2,0.1c0,0,0.1,0,0.1,0v0h0v0h0c0,0,0.1,0.1,0.1,0.1v0c0,0,0,0,0.1,0v0c0,0,0,0,0,0
		c0,0,0,0,0,0h0c0,0,0,0.1,0,0.1h0c0,0,0,0.1,0,0.1h0V2c0,0,0,0.2,0,0.3h0v0.1h0v0h0v0c0,0,0,0,0,0c0,0,0,0.1,0,0.1h0v0h0
		c0,0,0,0,0,0.1h0v0h0c0,0,0,0,0,0.1c0,0,0,0,0,0v0c0,0,0,0,0,0c0,0,0,0.1-0.1,0.1h0c0,0,0,0,0,0.1h0v0c0,0,0,0,0,0c0,0,0,0,0,0
		c0,0,0,0-0.1,0c0,0,0,0,0,0.1c0,0-0.1,0-0.1,0c0,0,0,0,0,0h0v0h0c0,0,0,0,0,0c0,0,0,0-0.1,0v0h0c0,0,0,0,0,0h0v0h0v0h-0.1
		c-0.1,0-0.4,0-0.5,0v0c0,0,0,0-0.1,0v0h0c0,0,0,0,0,0h0v0c0,0,0,0-0.1,0v0h0c0,0,0-0.1-0.1-0.1c0,0,0,0-0.1,0c0,0,0,0,0,0
		C28,3,28,3,28,2.9v0c0,0,0,0,0,0v0c0,0,0,0,0,0v0c0-0.1,0-0.2,0-0.4c0-0.2,0-0.3,0.1-0.4h0v0h0v0h0v0c0,0,0,0,0,0c0,0,0,0,0,0h0v0
		c0,0,0,0,0.1,0v0c0,0,0.1-0.1,0.1-0.1v0h0c0,0,0,0,0,0h0c0,0,0.1-0.1,0.1-0.1h0c0,0,0,0,0,0c0,0,0.1,0,0.1,0v0h0v0h0.1v0h0.1v0h0v0
		h0v0h0v0c0.1,0,0.1,0,0.2,0v0C29,1.3,29.1,1.4,29.2,1.3"/>
	<path class="st2" d="M0.9,1.8C0.9,1.7,0.9,1.7,0.9,1.8L0.9,1.8L0.9,1.8L0.9,1.8l0.1,0v0h0v0h0v0h0v0h0v0h0.1v0h0.1v0h0.2v0h0.1v0h0
		v0h0v0h0v0h0v0h0v0c0.1,0,0.1,0,0.2,0v0h0.1v0h0.1c0.2-0.1,0.4-0.1,0.6-0.1c0,0,0.1,0.1,0.1,0.1c0,0.1,0,0.2,0,0.3h0v0.1h0
		c0,0,0,0.1,0,0.1h0v0.1h0v0h0v0h0v0h0v0h0v0h0v0.1h0v0.1c0,0.1,0,0.2,0.1,0.3v0.1h0v0h0v0h0c0,0,0,0.1,0,0.1h0v0h0v0h0v0.1h0v0.1h0
		v0.1h0v0.1h0c0,0.1,0,0.2,0,0.2h0v0.1h0v0.1h0v0.1h0v0.1h0V4h0v0h0v0h0c0,0,0,0.1,0,0.1h0c0,0.1,0,0.1,0,0.2h0v0h0v0.1h0v0.1h0v0.1
		h0v0.1h0v0.1h0v0.1h0v0.1h0v0h0c0,0,0,0.1,0,0.1h0v0.1h0v0h0v0h0v0.1h0v0.1h0c0,0.1,0,0.2,0,0.3h0v0.1h0v0.1h0v0.1h0v0h0
		c0,0,0,0.1,0,0.1h0v0h0c0,0.1,0,0.1,0,0.2h0v0.1c0,0.1,0,0.2,0.1,0.3v0.1h0v0.1h0v0h0v0.1h0v0.1h0v0h0v0h0v0h0c0,0.1,0,0.1,0,0.2h0
		c0,0.2,0,0.3,0,0.5h0v0.1h0v0.1h0v0.1h0v0h0v0h0V8h0c0,0,0,0.1,0,0.1h0v0h0c0,0,0,0,0,0.1h0v0c0,0.1,0,0.1,0,0.2c0,0,0,0.1,0.1,0.1
		v0h0v0c0.1,0,0.1-0.1,0.1-0.2V8.3h0c0,0,0,0,0-0.1c0,0,0,0,0,0v0c0,0,0,0,0,0v0c0,0,0,0,0,0v0c0,0,0,0,0,0c0,0,0-0.1,0-0.1V7.9h0v0
		c0,0,0,0,0,0c0,0,0,0,0-0.1h0c0,0,0,0,0,0c0,0,0,0,0,0c0,0,0,0,0-0.1c0,0,0,0,0,0c0,0,0-0.1,0-0.1c0,0,0,0,0,0v0c0,0,0,0,0,0v0
		c0,0,0,0,0,0v0c0,0,0,0,0,0v0h0c0,0,0,0,0-0.1h0c0,0,0-0.1,0-0.1h0v0h0c0,0,0,0,0-0.1c0,0,0,0,0,0v0c0,0,0,0,0,0v0h0
		c0,0,0-0.1,0-0.1h0v0h0V6.9h0V6.8h0c0,0,0,0,0-0.1c0,0,0,0,0,0v0c0,0,0,0,0,0v0c0,0,0,0,0,0v0l0,0c0-0.1,0.1-0.1,0.1-0.2
		c0,0,0,0,0.1,0v0c0,0,0,0,0,0v0h0v0h0v0h0c0,0,0-0.1,0-0.1h0V6.1h0c0,0,0,0,0-0.1c0,0,0,0,0.1,0v0c0,0,0,0,0,0v0c0,0,0,0,0,0v0h0
		c0,0,0,0,0-0.1h0c0,0,0-0.1,0-0.1h0V5.7h0v0c0,0,0,0,0.1,0v0c0,0,0,0,0,0v0h0c0,0,0,0,0-0.1h0c0,0,0-0.1,0-0.1h0V5.4h0V5.3h0v0
		c0,0,0,0,0,0v0c0,0,0,0,0,0v0c0,0,0,0,0,0v0h0c0,0,0-0.1,0-0.1h0c0,0,0-0.1,0-0.1h0v0h0v0c0,0,0,0,0.1,0v0c0,0,0,0,0,0
		c0-0.1,0.1-0.2,0.1-0.3c0,0,0,0,0.1,0v0c0,0,0,0,0,0c0,0,0,0,0-0.1c0,0,0,0,0,0v0h0v0h0v0h0V4.2h0v0h0v0c0,0,0,0,0.1-0.1v0
		c0,0,0,0,0,0v0h0c0,0,0,0,0-0.1h0v0h0v0h0V3.9h0v0h0v0h0v0c0,0,0,0,0,0v0c0,0,0,0,0,0v0c0,0,0,0,0,0v0c0,0,0,0,0,0
		c0-0.1,0.1-0.2,0.1-0.2c0,0,0,0,0.1,0v0c0,0,0,0,0,0c0,0,0,0,0-0.1h0v0h0c0,0,0-0.1,0-0.1h0V3.1h0c0,0,0,0,0-0.1c0,0,0,0,0.1,0v0
		c0,0,0,0,0,0v0c0,0,0,0,0,0c0-0.1,0.1-0.2,0.1-0.2c0,0,0,0,0,0c0,0,0,0,0,0c0,0,0,0,0.1,0v0h0c0,0,0,0,0-0.1h0c0,0,0-0.1,0-0.1h0
		V2.4h0V2.3h0v0c0,0,0,0,0.1,0v0c0,0,0,0,0,0c0,0,0,0,0-0.1h0c0,0,0-0.1,0-0.1h0v0h0c0,0,0-0.1,0-0.1c0,0,0,0,0,0v0c0,0,0,0,0,0v0
		c0,0,0,0,0,0c0,0,0,0,0-0.1h0c0,0,0,0,0-0.1h0v0h0c0-0.1,0-0.1,0.1-0.2c0.1-0.1,0.3-0.1,0.5-0.1h0.9c0.2,0,0.4,0,0.5,0c0,0,0,0,0,0
		h0c0,0,0,0.1,0,0.1h0v0c0,0,0,0,0,0v0h0c0,0,0,0,0,0.1h0v0h0c0,0,0,0,0,0.1h0c0,0,0,0,0,0.1h0v0h0v0h0v0c0,0,0,0,0,0c0,0,0,0,0,0
		c0,0,0,0,0,0c0,0,0,0,0,0.1h0v0h0v0h0c0,0,0,0.1,0,0.1h0c0,0,0,0,0,0.1c0,0,0,0,0,0v0c0,0,0,0,0,0v0c0,0,0,0,0,0v0h0c0,0,0,0,0,0.1
		h0c0,0,0,0,0,0.1h0v0h0c0,0,0,0,0,0c0,0,0,0,0,0v0h0v0h0v0c0,0,0,0,0,0c0,0,0,0,0,0.1h0c0,0,0,0,0,0.1h0C9,3,9,3,9,3c0,0,0,0-0.1,0
		v0h0v0h0v0h0v0h0c0,0,0,0,0,0.1c0,0,0,0,0,0v0h0c0,0,0,0.1,0,0.1c0,0,0,0,0,0v0c0,0,0,0,0,0v0c0,0,0,0,0,0c0,0,0,0,0,0.1h0
		c0,0,0,0.1,0,0.1h0v0h0v0c0,0,0,0,0,0v0c0,0,0,0,0,0v0c0,0,0,0,0,0v0h0v0h0v0h0c0,0,0,0,0,0.1h0c0,0,0,0.1,0,0.1c0,0,0,0,0,0v0
		c0,0,0,0,0,0v0c0,0,0,0,0,0v0h0c0,0,0,0,0,0.1h0c0,0,0,0.1,0,0.1h0c0,0,0,0,0,0.1c0,0,0,0-0.1,0.1c0,0,0,0,0,0.1c0,0,0,0,0,0
		c0,0,0,0.1,0,0.1h0c0,0,0,0.1,0,0.1h0v0h0v0h0v0h0v0c0,0-0.1,0-0.1,0.1C8,5,7.9,5,7.9,5.1c0,0,0,0,0,0c0,0,0,0.1,0,0.1c0,0,0,0,0,0
		v0c0,0,0,0,0,0v0c0,0,0,0,0,0v0h0c0,0,0,0.1,0,0.1h0v0h0c0,0,0,0.1,0,0.1h0v0c0,0,0,0,0,0c0,0,0,0,0,0c0,0,0,0-0.1,0.1
		c0,0,0,0,0,0.1h0v0h0v0.1c0,0,0,0,0,0v0c0,0,0,0,0,0v0c0,0,0,0,0,0v0l0,0c0,0,0,0,0,0.1c0,0,0,0,0,0c0,0.1,0,0.1,0,0.2c0,0,0,0,0,0
		c0,0,0,0,0,0.1c0,0,0,0,0,0v0c0,0,0,0,0,0v0c0,0,0,0,0,0v0h0c0,0.1,0,0.1,0,0.2c0,0,0,0,0,0v0c0,0-0.1,0.1-0.1,0.1
		C7,6.8,7,6.9,6.9,6.9c0,0,0,0,0,0v0c0,0,0,0,0,0v0c0,0,0,0,0,0v0c0,0,0,0,0,0v0h0c0,0,0,0,0,0.1h0c0,0,0,0.1,0,0.1c0,0,0,0,0,0
		c0,0,0,0,0,0.1h0v0c0,0,0,0,0,0c0,0,0,0.1,0,0.1h0v0h0v0.1h0c0,0,0,0,0,0.1h0v0c0,0,0,0-0.1,0v0c0,0,0,0,0,0c0,0,0,0,0,0.1h0
		c0,0,0,0,0,0.1h0v0h0v0h0v0h0c0,0,0,0,0,0.1c0,0,0,0-0.1,0v0c0,0,0,0,0,0v0h0v0h0v0h0c0,0,0,0.1,0,0.1h0v0h0v0h0c0,0,0,0.1,0,0.1
		c0,0,0,0-0.1,0v0h0c0,0,0,0,0,0.1h0v0h0v0c0,0,0,0,0,0v0h0c0,0,0,0,0,0.1h0v0h0v0c0,0,0,0,0,0v0c0,0,0,0,0,0c0,0,0,0.1-0.1,0.1h0v0
		h0v0l0,0v0c0,0,0,0,0,0c0,0,0,0,0,0.1c0,0,0,0,0,0v0c0,0,0,0,0,0v0h0c0,0,0,0,0,0.1h0c0,0,0,0,0,0.1h0v0c0,0,0,0,0,0v0l0,0v0h0v0h0
		v0h0v0h0c0,0,0,0.1,0,0.1h0v0.1h0v0h0v0c0,0,0,0,0,0v0c0,0,0,0,0,0v0c0,0,0,0,0,0c0,0,0,0,0,0.1c0,0,0,0,0,0c0,0,0,0,0,0.1h0v0h0v0
		h0v0l0,0v0c0,0,0,0,0,0c0,0,0,0,0,0.1h0c0,0.1-0.1,0.2-0.1,0.3c0,0,0,0,0,0v0c0,0,0,0,0,0v0h0v0h0c0,0,0,0,0,0.1h0v0c0,0,0,0,0,0v0
		h0v0l0,0v0c0,0,0,0,0,0v0c0,0,0,0-0.1,0.1v0h0v0h0v0h0c0,0.1,0,0.1-0.1,0.1v0h0v0H4.5v0H4.3h-1c-0.1,0-0.2,0-0.3,0c0,0-0.1,0-0.1,0
		c0,0,0,0-0.1-0.1c0,0,0-0.1,0-0.1h0v-0.1h0v0h0v0h0c0,0,0-0.1,0-0.1h0v0h0v0h0v-0.1h0v0h0v0h0v-0.1h0v-0.1h0v-0.1h0
		c0-0.1,0-0.1,0-0.2h0v0h0V10h0l0-0.1h0v0h0c0,0,0-0.1,0-0.1h0v0h0V9.7h0V9.7h0V9.6h0V9.5h0V9.4h0V9.3h0v0h0V9.2h0
		c0-0.1,0-0.1,0-0.2h0v0h0c0,0,0-0.1,0-0.1h0c0,0,0,0,0-0.1h0c0,0,0-0.1,0-0.1h0c0-0.1,0-0.2,0-0.3h0V8.4h0V8.3h0v0h0v0h0v0h0
		c0-0.1,0-0.1,0-0.2h0v0h0V8h0c0-0.2,0-0.3-0.1-0.5h0v0h0c0,0,0-0.1,0-0.1h0v0h0c0,0,0-0.1,0-0.1h0v0h0v0h0v0h0V7h0
		c0-0.1,0-0.2,0-0.3h0v0h0c0,0,0-0.1,0-0.1h0v0h0v0h0V6.5c0-0.1,0-0.1-0.1-0.2V6.2h0V6.1h0V6h0V5.9h0V5.9h0V5.8h0V5.7h0V5.7h0v0h0
		c0,0,0-0.1,0-0.1h0v0h0v0h0v0h0V5.4h0c0-0.1,0-0.2,0-0.3h0V5.1h0c0,0,0-0.1,0-0.1h0v0h0v0h0c0,0,0-0.1,0-0.1h0v0h0v0h0V4.6h0
		c0-0.1,0-0.2,0-0.3h0V4.3h0V4.2h0V4.1h0V4.1h0V4h0v0h0v0h0V3.9h0V3.8h0v0h0v0h0v0h0V3.7h0V3.6h0V3.5h0V3.4h0V3.3h0v0h0v0h0
		c0,0,0-0.1,0-0.1h0V3.1h0V3.1h0v0h0V3h0V2.9h0c0-0.1,0-0.2,0-0.4h0c0,0,0-0.1,0-0.1h0V2.4h0v0h0v0h0v0h0v0h0V2.1h0
		c0,0-0.1-0.2,0-0.3h0C0.9,1.8,0.9,1.8,0.9,1.8L0.9,1.8C0.9,1.8,0.9,1.8,0.9,1.8"/>
	<path class="st2" d="M19.3,4.3L19.3,4.3C19.4,4.3,19.4,4.3,19.3,4.3C19.4,4.3,19.4,4.3,19.3,4.3c0.1,0.2,0.1,0.3,0.1,0.4v0.9v0.2h0
		c0,0,0,0.1,0,0.1c0,0.1-0.4,0.1-0.5,0.1h-0.1v0h0v0c0,0-0.1,0-0.1,0v0c0,0,0,0-0.1,0v0c0,0-0.1,0-0.1,0v0c0,0,0,0-0.1,0v0
		c0,0-0.1,0-0.1,0v0c0,0,0,0-0.1,0c0,0,0,0,0,0h0c0,0,0,0,0,0c0,0,0,0-0.1,0v0c0,0-0.1,0-0.1,0v0c-0.1,0-0.1,0-0.2,0c0,0,0,0,0,0h0
		c0,0,0,0,0,0h0v0h0v0c0,0,0,0,0,0v0h0c0,0-0.1,0-0.1,0.1c0,0,0,0-0.1,0.1h0c0,0,0,0,0,0h0c0,0,0,0,0,0h0v0h0v0h0c0,0,0,0-0.1,0.1
		C17.2,6.8,17.1,6.9,17,7c-0.1,0.1-0.1,0.1-0.2,0.2v0.1h0v0.1h0v0.1h0v0.1h0v0h0v0h0v0h0v0.1h0v0h0v0.1c0,0.1,0,0.2-0.1,0.3v0.1h0
		v0.3c0,0.1,0,0.2-0.1,0.2v0.1h0c0,0,0,0.1,0,0.1h0V9h0v0h0c0,0.1,0,0.1,0,0.2h0c0,0.1,0,0.2,0,0.4h0v0.1h0v0.1h0V10h0v0h0v0.1h0v0
		h0v0h0c0,0.1,0,0.1,0,0.2c0,0.1,0,0.1-0.1,0.2v0.1h0v0.1c0,0.1,0,0.2-0.1,0.3c0,0-0.3,0-0.4,0h-0.8c-0.1,0-0.2,0-0.3,0v0h-0.1v0
		c0,0,0,0-0.1,0c0,0,0-0.1,0-0.1v0h0c0-0.1,0-0.2,0-0.2v-0.2h0v-0.1h0v-0.1h0v0h0v-0.1h0v-0.1h0v-0.1h0V10h0v0h0V9.8
		c0-0.1,0-0.2,0.1-0.2V9.5h0V9.3h0c0-0.1,0-0.1,0-0.2h0V9h0V8.9h0v0h0V8.8h0v0h0V8.8h0V8.6c0-0.1,0-0.2,0.1-0.3V8.2h0V8h0V7.9
		c0-0.1,0-0.2,0.1-0.3V7.5c0-0.1,0.1-0.1,0.1-0.2V7.2c0-0.1,0-0.2,0-0.3h0V6.7h0V6.6h0c0,0,0-0.1,0-0.1h0V6.4h0v0h0v0h0
		c0,0,0-0.1,0-0.1h0V6.1c0-0.1,0-0.2,0.1-0.3V5.7h0V5.6h0c0,0,0-0.1,0-0.2h0V5.3h0c0,0,0-0.1,0-0.1h0V5.1h0v0h0v0h0V5h0V4.9h0V4.8h0
		c0-0.1,0-0.2,0-0.3h0v0h0v0c0,0,0,0,0,0v0c0,0,0,0,0,0v0h0.4c0,0,0.2,0,0.3,0h0.2c0,0,0,0,0,0c0.1,0,0.3,0,0.4,0c0,0,0,0,0,0.1h0
		c0,0,0,0.1,0,0.1c0,0.1,0,0.3,0,0.3v0.1h0v0.2h0c0,0.1,0,0.2,0,0.3c0,0,0.1,0,0.1,0.1c0,0,0,0,0,0h0c0,0,0,0,0.1-0.1c0,0,0,0,0,0
		V5.3c0,0,0-0.1,0.1-0.1c0,0,0.1-0.1,0.1-0.1c0,0,0,0,0,0c0,0,0,0,0.1,0v0c0,0,0,0,0.1,0v0h0c0,0,0,0,0,0c0,0,0.1,0,0.1,0
		c0,0,0.1-0.1,0.1-0.1h0c0,0,0,0,0,0h0c0,0,0,0,0,0h0c0,0,0,0,0,0h0c0,0,0,0,0,0c0,0,0.1,0,0.1,0c0-0.1,0.1-0.1,0.1-0.1v0h0
		c0,0,0,0,0-0.1h0c0,0,0,0,0,0h0v0c0.1,0,0.2,0,0.2-0.1h0.1v0c0,0,0,0,0.1,0v0c0,0,0,0,0.1,0v0h0.1v0h0v0h0.1c0,0,0,0,0,0h0v0H19v0
		H19v0h0.1v0L19.3,4.3C19.3,4.2,19.3,4.2,19.3,4.3"/>
	<path class="st2" d="M21,11C21,11,21,11,21,11L21,11L21,11L21,11c-0.1,0-0.1,0-0.2,0.1v0c-0.1,0-0.3,0-0.4,0h-0.9c0,0-0.1,0-0.1,0
		c0-0.1-0.1-0.2,0-0.3h0v-0.1h0v0h0v-0.1h0v-0.1h0v-0.1h0c0-0.1,0-0.2,0-0.3c0-0.1,0-0.2,0.1-0.3c0-0.1,0-0.2,0-0.2h0V9.5h0v0h0V9.4
		h0V9.4h0V9.3h0V9.2h0V9h0V8.9h0V8.8h0V8.6h0V8.6h0V8.5h0V8.5h0v0h0V8.4h0V8.3h0V8.2h0V8.1h0V8h0V8h0c0-0.1,0-0.3,0-0.4h0V7.5h0V7.5
		h0V7.4h0c0,0,0-0.1,0-0.1h0V7.2h0V7.1h0V7h0V7h0V6.9h0c0-0.1,0-0.2,0-0.4h0V6.5h0V6.4h0V6.3h0V6.2c0-0.1,0.1-0.2,0.1-0.3
		c0-0.1,0-0.1,0-0.2h0v0h0V5.5h0V5.3h0V5.2h0V5.1h0V5.1h0v0h0V5h0V4.9h0V4.8h0V4.7c0-0.1,0.1-0.3,0.2-0.4c0,0,0.1,0,0.1,0
		c0,0,0,0,0,0h0.2h0v0c0.3,0,0.5,0,0.8,0c0.1,0,0.3,0,0.3,0.1c0,0,0,0.2,0,0.2h0v0.1h0v0.1h0v0h0v0h0v0.1h0C22,5,22,5,22,5.1h0v0.1
		h0v0.1h0v0.1h0v0.2h0v0.2c0,0.1,0,0.2-0.1,0.3V6c0,0.1-0.1,0.3-0.1,0.4v0.1h0v0.1h0v0.1h0v0.1h0v0.1h0c0,0.1,0,0.2,0,0.3h0v0.1h0
		v0.1h0v0.1h0v0.1h0v0.1h0v0.1h0v0.1h0v0.1h0v0.1h0v0.1h0c0,0.1,0,0.2,0,0.4h0v0.1h0v0.1h0v0.1h0v0.2c0,0.1-0.1,0.2-0.1,0.4v0.1h0
		c0,0.1,0,0.1,0,0.2h0c0,0.1,0,0.2,0,0.3h0v0.1h0v0.1h0v0.1h0v0.1h0v0.1h0v0.1h0v0.1h0v0h0V10h0c0,0,0,0.1,0,0.1h0v0.2h0v0.2h0v0.1
		h0v0.1h0v0.1h0v0.1c0,0,0,0,0,0L21,11L21,11L21,11L21,11C21,11,21,11,21,11"/>
	<path class="st2" d="M29.1,4.3c0.1,0,0.1,0,0.2,0c0,0,0.1,0.1,0.1,0.1v0.2h0c0,0.1,0,0.1,0,0.2h0c0,0,0,0.1,0,0.1h0v0h0v0.1h0v0.1
		h0v0.1h0v0.1h0v0.1h0v0.1h0v0.1h0v0.2h0v0.1h0V6h0v0h0c0,0,0,0.1,0,0.1c0,0.1-0.1,0.3-0.1,0.5v0.1h0v0.1h0V7c0,0,0,0.1,0,0.2v0.2h0
		v0.1h0v0h0v0.1h0v0h0v0h0v0.1h0v0.1h0v0.1h0c0,0,0,0.1,0,0.1h0l0,0.4c0,0.1,0,0.2-0.1,0.3c0,0.1,0,0.1,0,0.2h0v0h0v0h0
		c0,0,0,0.1,0,0.1h0v0.1h0v0.2h0v0.1h0v0.1h0v0.1h0v0v0.1h0c0,0,0,0.1,0,0.1h0v0.1h0v0h0V10h0c0,0,0,0.1,0,0.1h0v0.1h0v0.1h0v0.1h0
		v0.1h0v0.2c0,0.1,0,0.3-0.1,0.3c-0.1,0.1-0.3,0-0.4,0h-0.6c-0.1,0-0.2,0-0.3,0c-0.1,0-0.2,0-0.3-0.1h0v0c-0.1-0.1,0-0.2,0-0.4
		c0-0.1,0-0.3,0-0.4h0v-0.1h0V10h0c0,0,0-0.1,0-0.1h0V9.7h0c0,0,0-0.1,0-0.1h0V9.6h0v0h0V9.4c0-0.1,0-0.3,0.1-0.5V8.8h0v0h0v0h0
		c0,0,0-0.1,0-0.1h0v0h0V8.5h0V8.4h0c0-0.1,0-0.1,0-0.2h0V8.2h0c0-0.1,0-0.2,0-0.4c0-0.1,0-0.2,0.1-0.3V7.4h0V7.3h0v0h0V7.2h0
		c0,0,0-0.1,0-0.1h0V7h0V6.9h0V6.8h0c0-0.1,0-0.2,0-0.4h0V6.4h0V6.3h0V6.3h0V6.2h0V6.2h0V6c0-0.1,0-0.2,0.1-0.2c0-0.1,0-0.3,0-0.4h0
		V5.3h0V5.3h0V5.2h0V5.1h0V5.1h0V5h0V4.9h0V4.8h0c0,0,0-0.1,0-0.1h0c0-0.1,0-0.1,0-0.2h0v0h0v0h0v0c0,0,0,0,0,0c0,0,0,0,0,0
		c0,0,0.1,0,0.1,0c0.1,0,0.2,0,0.3,0c0.2,0,0.4,0,0.6,0c0.1,0,0.2,0,0.3,0C29.1,4.3,29.1,4.4,29.1,4.3"/>
	<path class="st2" d="M14.2,6.4c0,0,0-0.1,0-0.1h0v0h0c0,0,0-0.1,0-0.1h0v0h0V5.9h0V5.9h0c0-0.1,0-0.1,0-0.2h0c0,0,0,0,0-0.1h0v0h0
		v0h0v0c0,0,0,0,0,0c0,0,0,0,0,0h0c0-0.1,0-0.1-0.1-0.2c0,0,0,0,0,0v0c0,0-0.1-0.1-0.1-0.1v0c0,0,0,0,0,0v0c0,0,0,0,0,0c0,0,0,0,0,0
		h0c0,0,0,0,0-0.1c0,0,0,0,0,0v0c0,0,0,0-0.1,0c0,0,0,0,0,0h0c0,0,0,0,0-0.1h0c0,0,0,0-0.1-0.1h0c0,0,0,0,0,0h0v0h0c0,0,0,0,0,0v0
		c0,0,0,0-0.1,0v0h0c0,0,0,0,0,0h0c0,0,0,0,0,0h0c0,0,0,0,0-0.1h0c0,0,0,0,0,0h0v0H13v0h-0.1v0h0v0h-0.1v0h0v0h0c0,0,0,0,0,0h0v0
		c0,0-0.1,0-0.1,0v0h-0.1v0h-0.1v0h-0.1v0h-0.1v0h-0.1v0h0v0H12c-0.3-0.1-0.6,0-0.9,0.1c-0.1,0-0.2,0-0.3,0v0h0c0,0,0,0,0,0h0v0h0v0
		h-0.1v0h-0.1v0h-0.1v0h-0.1v0c0,0-0.1,0-0.1,0v0c0,0,0,0-0.1,0v0h0c0,0,0,0,0,0h0c0,0,0,0,0,0.1c-0.1,0-0.1,0-0.2,0.1
		c0,0,0,0-0.1,0.1c0,0,0,0-0.1,0c0,0,0,0,0,0h0c0,0,0,0,0,0h0l0,0h0v0h0v0h0v0h0c0,0,0,0,0,0C9.6,4.9,9.6,4.9,9.6,5h0v0h0
		c0,0.1,0,0,0,0c0,0,0,0,0,0h0v0h0l0,0c0,0,0,0-0.1,0c0,0-0.1,0.1-0.1,0.1c0,0,0,0,0,0v0l0,0v0h0v0c0,0,0,0,0,0v0h0v0c0,0,0,0,0,0v0
		h0c0,0,0,0,0,0c0,0,0,0-0.1,0v0c0,0-0.1,0.1-0.1,0.1v0l0,0v0h0v0c0,0,0,0,0,0v0c0,0,0,0,0,0v0h0c0,0,0,0,0,0c0,0,0,0,0,0v0
		c0,0,0,0,0,0v0c0,0,0,0,0,0c0,0.1,0,0.1,0,0.2c0,0,0,0,0,0v0c0,0,0,0,0,0v0c0,0,0,0,0,0c0,0,0,0,0,0h0v0c0,0,0,0,0,0v0h0v0h0v0.1h0
		v0.1h0c0,0,0,0.1,0,0.1h0c0,0,0,0,0,0.1c0,0,0,0,0,0v0c0,0,0,0,0,0c0,0,0,0,0,0.1h0v0.1h0c0,0,0,0.1,0,0.1h0c0,0.1,0,0.1,0,0.2h0v0
		h0c0,0,0,0.1,0,0.1h0v0h0v0h0c0,0,0,0.1,0,0.1h0v0h0v0.1h0v0.1h0v0.1h0v0.3c0,0.2,0,0.6,0,0.7c0,0.1,0,0.3,0,0.4h0v0.1h0v0h0v0h0v0
		h0c0,0,0,0.1,0,0.1h0c0,0,0,0.1,0,0.1h0c0,0,0,0.1,0,0.1h0v0h0c0,0,0,0.1,0,0.1h0c0,0,0,0,0,0.1c0,0,0,0,0.1,0v0c0,0,0,0,0,0v0l0,0
		v0h0v0h0c0,0,0,0,0,0.1c0,0,0,0,0,0v0c0,0,0,0,0,0v0c0,0,0.1,0,0.1,0.1v0c0,0,0,0,0.1,0c0,0,0.1,0.1,0.1,0.1h0c0,0,0,0,0,0.1
		c0,0,0,0,0,0L9,10.7h0c0,0,0,0,0,0h0c0,0,0,0,0,0h0c0,0,0,0,0,0h0v0h0v0h0v0c0,0,0,0,0.1,0v0h0c0,0,0,0,0,0.1c0,0,0.1,0,0.1,0
		c0,0,0,0,0,0c0,0,0.1,0,0.1,0h0.1v0c0,0,0.1,0,0.1,0v0c0,0,0.1,0,0.1,0v0c0,0,0,0,0.1,0v0h0.1v0c0.1,0,0.2,0,0.2,0h0.1
		c0.2,0,0.4,0,0.7,0h0.5v0h0.1v0h0.2v0h0.1v0h0.1v0H12v0h0v0h0.1v0h0v0h0v0c0,0,0.1,0,0.1,0v0h0v0h0v0c0,0,0.1,0,0.1,0v0
		c0,0,0,0,0,0v0h0v0c0.1,0,0.1,0,0.2,0c0.1,0,0.1-0.1,0.2-0.1H13v0H13v0c0,0,0.1,0,0.1,0v0c0,0,0.1,0,0.1,0v0h0c0,0,0,0,0.1-0.1
		c0,0,0.1,0,0.1,0c0,0,0-0.1,0.1-0.1c0,0,0.1,0,0.1,0c0,0,0,0,0,0c0,0,0,0,0.1,0v0c0,0,0,0,0.1,0c0,0,0,0,0-0.1h0c0-0.2,0-0.4,0-0.6
		c0-0.2,0-0.4,0-0.5h0c0,0,0,0,0-0.1c0,0-0.1,0-0.1-0.1h-0.1c0,0-0.1,0.1-0.1,0.1c-0.1,0-0.2,0.1-0.2,0.1v0h0c0,0,0,0,0,0
		c0,0,0,0,0,0c0,0,0,0,0,0c0,0-0.1,0.1-0.2,0.1v0h0v0c-0.1,0-0.1,0-0.2,0.1c0,0,0,0,0,0h0v0h0v0c-0.1,0-0.2,0-0.2,0v0h0v0h0v0h0v0
		c0,0-0.1,0-0.1,0v0h0v0c0,0-0.1,0-0.1,0v0h-0.1v0h-0.1v0c-0.1,0-0.1,0-0.2,0v0h-0.1c-0.2,0-0.4,0-0.6,0c-0.1,0-0.2,0-0.3,0v0
		c0,0,0,0-0.1,0c0,0,0,0,0,0h0c0,0,0,0,0,0h0v0c0,0-0.1,0-0.1,0v0h0v0h0v0c0,0,0,0-0.1,0c0,0,0,0,0,0h0c0,0,0,0,0,0c0,0,0,0-0.1-0.1
		v0c0,0,0,0-0.1,0v0c0,0-0.1-0.1-0.1-0.1v0c0,0,0,0,0,0c0,0,0,0,0-0.1h0c0,0,0,0,0-0.1h0v0h0v0h0c0,0,0-0.1,0-0.1c0,0,0,0,0,0
		c0,0,0,0,0-0.1h0V8.9h0V8.8h0V8.8h0V8.4c0-0.1,0-0.1,0-0.2h0V8.2h0V8.2h0c0-0.1,0.2-0.1,0.3-0.1c0.3,0,0.5,0,0.8,0
		c0.2,0,0.3,0,0.5,0v0c0,0,0.1,0,0.1,0v0h0.2c0.1,0,0.3,0,0.4,0h0.3v0c0,0,0,0,0.1,0v0c0.1,0,0.2,0,0.3,0H13v0c0.1,0,0.1,0,0.2,0
		c0.1,0,0.3,0,0.4,0v0c0,0,0,0,0,0c0,0,0.1,0,0.1,0v0h0.1c0.1,0,0.1,0,0.2,0c0,0,0,0,0.1-0.1c0,0,0,0,0-0.1h0c0,0,0-0.1,0-0.1h0
		c0,0,0-0.1,0-0.1h0V7.7h0V7.6h0c0-0.1,0-0.2,0-0.3h0v0h0V7.2h0v0h0V7.2h0V6.9C14.2,6.7,14.2,6.5,14.2,6.4 M12.6,6.7L12.6,6.7
		L12.6,6.7l0,0.1h0v0h0c0,0,0,0-0.1,0.1c0,0-0.1,0-0.1,0h-0.4h-0.8c-0.1,0-0.3,0-0.4,0c-0.1,0-0.2,0-0.4,0v0c-0.1,0-0.3,0-0.3,0
		c0,0,0,0-0.1,0v0h0c0-0.1,0-0.1,0-0.1h0v0c0,0,0,0,0,0v0c0,0,0,0,0,0c0,0,0,0,0-0.1h0c0,0,0-0.1,0-0.1h0c0,0,0,0,0-0.1h0v0
		c0,0,0,0,0,0v0c0,0,0,0,0,0c0,0,0,0,0-0.1c0,0,0,0,0,0v0c0,0,0,0,0,0v0h0v0h0v0l0,0v0c0,0,0,0,0.1,0c0,0,0.1-0.1,0.1-0.1
		c0,0,0.1-0.1,0.1-0.1h0v0c0.1,0,0,0,0,0h0v0c0,0,0,0,0,0c0,0,0,0,0,0h0v0c0.1,0,0.2-0.1,0.3-0.1c0,0,0.1,0,0.1,0v0h0c0,0,0,0,0,0h0
		l0,0h0v0h0v0c0.1,0,0.3,0,0.4,0v0h0v0h0v0h0v0h0v0c0,0,0.1,0,0.1,0v0h0v0c0,0,0.1,0,0.1,0v0c0,0,0,0,0.1,0v0h0
		c0.1,0.1,0.2,0.2,0.2,0.3v0h0c0,0,0,0.1,0,0.1h0c0,0,0,0,0,0.1h0c0,0,0,0.1,0,0.1h0v0h0v0.1h0c0,0,0,0.1,0,0.1h0v0.2
		C12.6,6.6,12.6,6.7,12.6,6.7L12.6,6.7z"/>
	<path class="st2" d="M35.9,6.2V6.1h0V6h0V5.9h0V5.9h0c0,0,0,0,0-0.1h0v0h0c0,0,0-0.1,0-0.1h0v0h0v0c0,0,0,0,0,0V5.6
		c0-0.1-0.1-0.2-0.1-0.3c0,0,0,0,0,0v0c0,0-0.1,0-0.1-0.1v0c0,0,0,0,0,0v0h0v0c0,0,0,0-0.1,0c0,0,0,0,0,0h0c0,0,0-0.1,0-0.1
		c0,0,0,0,0,0v0c0,0,0,0,0,0v0c0,0-0.1-0.1-0.1-0.1c0,0,0,0,0,0c0,0,0,0,0,0c0,0,0,0,0,0h0v0c0,0,0,0-0.1,0c0-0.1,0-0.1-0.1-0.1v0h0
		v0h0c0,0,0,0,0,0h0c0,0,0,0-0.1-0.1c0,0,0,0-0.1,0v0h0v0h0v0h0v0h-0.1v0h-0.1v0h0v0h0v0h0v0h0v0h0v0h0v0c-0.1,0-0.2,0-0.3,0v0H34v0
		h0v0h-0.1v0h-0.1v0h-0.1v0h-0.2v0h-0.2v0c-0.1,0-0.3,0-0.4,0v0h-0.1v0h0v0h0v0h-0.1v0h0v0h0v0h0v0h0v0h0v0c0,0-0.1,0-0.1,0v0h-0.1
		c-0.1,0-0.1,0-0.2,0.1v0h0l0,0.1h0l0,0h0c0,0,0,0,0,0h0c0,0-0.1,0-0.1,0.1v0c0,0-0.1,0-0.1,0c0,0,0,0,0,0h0c0,0,0,0,0,0
		c0,0-0.1,0-0.1,0.1c0,0,0,0,0,0h0c0,0-0.1,0.1-0.1,0.1h0c0,0,0,0.1-0.1,0.1h0v0c0,0-0.1,0.1-0.1,0.1c0,0,0,0,0,0h0
		c0,0-0.1,0.1-0.1,0.1c0,0-0.1,0-0.1,0.1v0c0,0,0,0,0,0v0c0,0,0,0,0,0v0c0,0-0.1,0.1-0.1,0.1v0c0,0,0,0,0,0c0,0,0,0.1,0,0.1
		c0,0-0.1,0-0.1,0.1c0,0,0,0,0,0c0,0,0,0,0,0c0,0,0,0,0,0.1h0c0,0,0,0.1,0,0.1h0v0h0v0h0v0h0v0c0,0,0,0,0,0v0c0,0,0,0,0,0v0h0
		c0,0,0,0.1,0,0.1h0v0h0c0,0,0,0,0,0.1h0v0h0v0h0c0,0,0,0,0,0.1c0,0,0,0,0,0v0h0v0h0v0h0c0,0,0,0.1,0,0.1h0v0.1h0v0.1h0v0.1h0v0h0V7
		h0v0.1h0c0,0,0,0,0,0.1h0c0,0,0,0.1,0,0.1h0v0h0v0.1h0v0.1h0v0.1h0v0.1h0v0.1h0c0,0.1,0,0.1,0,0.2h0v0.1h0v0h0v0h0V8h0v0.3v0.6
		c0,0.1,0,0.1,0.1,0.2v0.1h0v0h0c0,0.1,0,0.2,0,0.3c0,0,0,0,0,0v0h0v0h0v0l0,0v0c0,0,0,0,0,0v0h0v0h0v0h0v0.1h0v0.1h0v0h0v0
		c0,0,0,0,0,0v0c0,0,0,0,0,0v0c0,0,0.1,0,0.1,0.1v0h0c0,0,0,0,0,0.1h0v0h0v0h0v0c0,0,0,0,0,0c0,0,0.1,0.1,0.1,0.1h0
		c0,0,0.1,0.1,0.1,0.1c0,0,0.1,0.1,0.1,0.1c0,0,0,0,0.1,0.1h0l0,0h0c0,0,0,0,0,0h0v0h0v0c0,0,0,0,0.1,0v0h0v0h0v0h0c0,0,0,0,0,0h0v0
		c0,0,0,0,0.1,0v0c0,0,0.1,0,0.1,0c0,0,0,0,0,0h0c0,0,0,0,0,0h0v0c0.1,0,0.1,0,0.2,0c0,0,0,0,0,0c0.1,0,0.2,0.1,0.3,0.1
		c0.1,0,0.2,0,0.3,0v0c0.2,0,0.4,0,0.6,0c0.2,0,0.5,0,0.6,0h0.2v0c0.1,0,0.2,0,0.2,0v0c0,0,0.1,0,0.1,0v0h0v0h0v0h0v0c0,0,0,0,0.1,0
		v0h0v0h0.1v0c0.1,0,0.1,0,0.2,0v0h0.1c0,0,0,0,0,0h0v0h0v0h0.1v0c0,0,0,0,0.1,0c0,0,0,0,0,0h0v0h0v0h0.1v0h0.1v0h0v0h0v0h0v0h0v0h0
		c0,0,0,0,0,0h0c0,0,0,0,0,0h0v0h0c0,0,0,0,0,0h0v0h0v0h0c0,0,0,0,0,0c0,0,0,0,0.1,0v0h0.1c0,0,0,0,0.1-0.1v0c0.1,0,0.1-0.1,0.2-0.1
		c0,0,0,0,0-0.1h0c0-0.1,0-0.1,0-0.2V9.6V9.3h0v0c0,0,0,0,0,0c0,0,0,0-0.1,0v0h-0.2c0,0,0,0,0,0h0c0,0,0,0,0,0h0v0h0v0
		c0,0-0.1,0-0.1,0v0h0c0,0,0,0,0,0h0c0,0,0,0,0,0h0c0,0,0,0,0,0c0,0,0,0-0.1,0v0c0,0-0.1,0-0.1,0v0h0v0h0c0,0,0,0,0,0h0c0,0,0,0,0,0
		h0c0,0,0,0,0,0c0,0,0,0-0.1,0v0h0v0h0v0h0v0c-0.1,0-0.1,0-0.2,0v0h-0.1v0H34v0H34v0c0,0,0,0-0.1,0v0c0,0-0.1,0-0.1,0v0h0v0h0v0
		c0,0-0.1,0-0.1,0v0h-0.1v0h-0.1v0h0v0h-0.1c-0.1,0-0.4,0-0.5,0h-0.1v0h0v0h-0.1v0c0,0-0.1,0-0.1,0v0c0,0-0.1,0-0.1,0v0
		c0,0-0.1,0-0.1,0v0h0c0,0,0,0,0,0h0v0c0,0-0.1,0-0.1,0v0c0,0,0,0-0.1,0v0h0c0,0,0,0,0,0h0c0,0,0,0,0-0.1c0,0,0,0,0,0v0
		c0,0-0.1-0.1-0.1-0.1v0c0,0,0,0-0.1,0c0,0,0,0,0-0.1c0,0,0,0,0,0v0c0,0,0,0-0.1,0v0c0,0,0,0,0,0c0,0,0,0,0-0.1h0
		c0-0.1-0.1-0.2-0.1-0.4V8.6h0V8.6c0-0.1-0.1-0.2,0-0.3c0-0.1,0.1-0.1,0.1-0.1c0,0,0.1,0,0.1,0v0c0.1,0,0.2,0,0.2,0
		c0.1,0,0.2,0,0.3,0c0,0,0,0,0,0c0.1,0,0.3,0,0.4,0h0.6c0.1,0,0.2,0,0.3,0v0c0,0,0,0,0.1,0v0h0.2c0,0,0,0,0,0v0c0,0,0.1,0,0.1,0
		c0.1,0,0.2,0,0.3,0c0,0,0,0,0.1,0v0c0.1,0,0.1,0,0.2,0v0c0,0,0,0,0.1,0c0.1,0,0.4,0,0.5,0h0.1h0.3v0c0.1,0,0.3,0,0.3-0.1
		c0.1,0,0.1-0.1,0.1-0.1h0v0h0V7.8h0V7.7h0V7.5c0-0.1,0-0.4,0-0.6C35.9,6.7,36,6.4,35.9,6.2 M34.3,6.8C34.3,7,33.9,7,33.7,7h-0.8
		c-0.1,0-0.2,0-0.3,0v0h-0.6c0,0-0.1,0-0.1-0.1c0-0.1,0-0.2,0-0.2v0c0,0,0,0,0,0v0c0,0,0,0,0,0v0c0,0,0,0,0,0v0h0v0h0v0h0
		c0,0,0-0.1,0-0.1h0v0h0v0h0v0c0,0,0,0,0,0c0,0,0,0,0,0c0,0,0,0,0,0v0c0,0,0,0,0,0v0h0v0l0,0v0c0,0,0.1-0.1,0.1-0.1v0
		c0,0,0.1-0.1,0.1-0.1v0l0,0h0c0,0,0-0.1,0.1-0.1c0,0,0,0,0.1,0c0,0,0,0,0,0h0c0,0,0,0,0,0h0c0,0,0,0,0,0c0,0,0.1,0,0.1,0v0h0.1v0h0
		v0c0,0,0.1,0,0.1,0v0h0v0c0,0,0,0,0.1,0v0h0v0c0,0,0.1,0,0.1,0c0.1,0,0.2,0,0.3,0v0h0v0h0v0h0v0h0v0c0,0,0,0,0.1,0v0h0v0
		c0,0,0,0,0.1,0v0c0,0,0.1,0,0.1,0v0c0,0,0,0,0.1,0c0,0,0,0,0,0h0c0,0,0,0,0,0h0v0c0,0,0,0,0,0v0h0v0c0,0,0,0,0,0v0c0,0,0,0,0,0
		c0,0,0,0.1,0.1,0.1h0v0h0v0h0l0,0.2h0v0h0v0h0c0,0,0,0.1,0,0.1h0v0.1h0c0,0.1,0,0.1,0,0.2C34.3,6.7,34.3,6.8,34.3,6.8"/>
	<path class="st2" d="M43.7,1.1c0-0.1-0.2-0.1-0.3-0.1h-0.1v0h-0.1v0h-0.2c-0.1,0-0.3,0.1-0.4,0.1h-0.1v0h-0.1v0h-0.1v0h-0.1v0h-0.1
		v0h-0.1v0h0v0h0v0h0v0c0,0,0,0-0.1,0v0c-0.2,0.1-0.1,0.4-0.2,0.7v0.1c-0.1,0.2-0.1,0.4-0.1,0.6v0.1h0v0.1h0V3h0c0,0.1,0,0.2,0,0.3
		h0v0.1h0v0.1h0v0.1h0c0,0,0,0.1,0,0.1h0v0.1h0c0,0,0,0.1,0,0.1h0V4h0v0h0v0.1h0v0.2c0,0,0,0.1-0.1,0.1c0,0,0,0,0,0c0,0-0.1,0-0.1,0
		h-0.1v0h-0.1v0h-0.1v0H41v0h-0.1v0h-0.1v0h-0.1v0h-0.1v0h-0.1v0h-0.1v0h-0.1v0c-0.2,0-0.3,0-0.5,0c-0.3,0-0.7,0-0.9,0.1
		c-0.1,0-0.2,0-0.3,0v0c0,0,0,0-0.1,0c0,0,0,0,0,0h0v0h0v0c0,0-0.1,0-0.1,0c0,0,0,0,0,0h0c0,0,0,0,0,0c0,0,0,0,0,0v0h0v0h0v0h0v0h0
		v0h0c0,0,0,0,0,0c0,0,0,0-0.1,0c0,0,0,0,0,0h0v0h0v0h0l0,0h0c0,0,0,0,0,0h0C38,4.9,38,4.9,38,5c0,0-0.1,0-0.1,0.1c0,0,0,0-0.1,0v0
		h0c0,0,0,0-0.1,0.1h0c0,0-0.1,0.1-0.1,0.1c0,0,0,0,0,0v0c0,0,0,0,0,0v0c0,0,0,0-0.1,0c0,0,0,0,0,0.1c0,0,0,0,0,0v0h0l0,0v0
		c0,0,0,0,0,0v0c0,0,0,0-0.1,0v0h0c0,0,0,0,0,0.1h0c0,0,0,0,0,0.1c0,0,0,0,0,0v0h0v0h0v0l0,0v0c0,0,0,0,0,0v0c0,0,0,0,0,0v0
		c0,0,0,0-0.1,0v0h0v0h0v0.1h0v0c0,0,0,0,0,0c0,0,0,0,0,0.1c0,0,0,0,0,0v0c0,0,0,0,0,0v0c0,0,0,0-0.1,0c0,0,0,0,0,0.1h0v0.1h0v0.1h0
		v0h0v0.1h0v0h0v0h0v0c0,0,0,0,0,0v0h0c0,0,0,0,0,0.1h0c0,0,0,0.1,0,0.1h0v0h0v0h0c0,0.1,0,0.2,0,0.3h0l0,0.1h0v0.1h0v0h0v0h0v0h0
		v0.1h0v0.1h0v0.1h0v0.1h0c0,0.1,0,0.2,0,0.3c-0.1,0.2,0,0.5,0,0.7c0,0.2,0,0.4,0,0.5c0,0.1,0,0.2,0,0.3h0v0h0c0,0,0,0.1,0,0.1h0
		c0,0,0,0,0,0.1h0c0,0,0,0.1,0,0.1h0c0,0,0,0,0,0.1h0c0,0,0,0.1,0,0.1c0,0,0,0,0,0v0h0v0l0,0v0c0,0,0,0,0,0v0c0,0,0,0,0,0v0
		c0,0,0,0,0,0c0,0,0,0.1,0,0.1c0,0,0,0,0,0v0c0,0,0,0,0,0v0c0,0,0,0,0.1,0v0c0,0,0,0,0,0v0c0,0,0,0,0,0v0c0,0,0,0,0,0v0h0
		c0,0,0,0,0,0h0v0h0v0h0l0,0h0c0,0,0,0.1,0.1,0.1c0,0,0.1,0,0.1,0c0,0,0,0.1,0.1,0.1c0,0,0.1,0,0.1,0c0,0,0,0,0,0h0c0,0,0,0,0,0
		c0,0,0,0,0.1,0v0c0.1,0,0.1,0,0.2,0c0.2,0,0.4,0,0.6,0c0.2,0,0.4,0,0.6,0h0.1v0c0,0,0.1,0,0.1,0v0h0v0h0c0,0,0,0,0,0h0c0,0,0,0,0,0
		h0c0,0,0,0,0,0h0v0h0v0h0v0c0,0,0,0,0.1,0v0h0v0h0v0c0,0,0.1,0,0.1,0v0h0c0,0,0,0,0,0c0,0,0,0,0.1,0c0,0,0,0,0,0h0l0,0
		c0,0,0.1,0,0.1,0c0,0,0,0,0,0h0c0,0,0,0,0,0h0c0,0,0,0,0,0c0,0,0.1-0.1,0.1-0.1v-0.1h0c0,0,0,0,0,0v0h0c0,0,0,0,0,0h0.1
		c0,0,0,0,0,0c0.1,0,0.2-0.1,0.3-0.1v0h0c0,0,0,0,0,0c0,0.1,0,0.3,0,0.4c0,0,0,0.1,0,0.1h0v0.1h0v0.1h0v0h0v0h0c0,0,0,0,0.1,0.1h0.1
		v0c0.1,0,0.1,0,0.2,0h0.5c0.2,0,0.3,0,0.4,0h0.1c0,0,0.1,0,0.1-0.1c0,0,0,0,0-0.1h0c0,0,0-0.1,0-0.1h0v0h0v-0.1h0
		c0-0.1,0-0.2,0-0.3h0v-0.1h0v-0.1h0v-0.1h0c0,0,0-0.1,0-0.1h0v0h0v-0.1h0v0h0v0h0v0h0V9.9h0V9.8h0V9.6h0V9.6h0V9.5h0
		c0-0.1,0-0.3,0-0.4h0c0,0,0-0.1,0-0.1h0V8.8h0v0h0V8.7h0V8.6h0c0,0,0-0.1,0-0.1h0v0h0V8.4h0l0-0.4h0V7.9h0V7.9h0V7.7h0V7.6h0V7.6h0
		v0h0v0h0V7.4h0V7.4h0V7.3h0V7.2h0V7.1h0V7h0V6.9h0V6.7h0V6.6h0V6.5h0V6.4h0V6.4h0V6.2h0v0h0c0,0,0-0.1,0-0.1h0V6h0V6h0V5.9h0V5.8h0
		V5.6h0V5.6h0V5.5h0c0-0.1,0-0.2,0-0.2h0c0,0,0-0.1,0-0.1h0v0h0v0h0V5c0-0.1,0-0.2,0.1-0.4V4.5h0V4.4h0V4.2c0-0.1,0-0.2,0.1-0.3V3.8
		h0V3.7h0c0,0,0-0.1,0-0.1h0V3.5h0c0-0.1,0-0.3,0-0.4h0V3.1h0V3h0V2.9h0l0-0.1c0-0.1,0-0.1,0.1-0.2V2.5h0V2.3h0V2.2h0V2.2h0V2.1h0
		V1.9c0-0.1,0-0.1,0-0.2V1.7h0V1.6h0V1.5h0c0-0.1,0-0.1,0-0.2h0v0h0v0h0V1.2h0C43.7,1.2,43.7,1.2,43.7,1.1 M41.2,6.2L41.2,6.2
		L41.2,6.2l0,0.1h0v0.1h0v0.1h0v0.1h0v0.2h0v0.1h0v0.1h0V7h0c0,0.1,0,0.1,0,0.2h0v0.1h0v0h0c0,0,0,0.1,0,0.1h0v0.1h0v0.1h0v0.1h0
		v0.1h0v0.1h0v0.2h0v0.1h0v0.1h0c0,0.1,0,0.1,0,0.2h0v0h0v0.1h0v0.1h0c0,0,0,0.1,0,0.1h0c0,0,0,0.1,0,0.1l0,0v0
		c-0.1,0.1-0.2,0.1-0.3,0.2c0,0-0.1,0.1-0.1,0.1h0c0,0,0,0-0.1,0.1h0c0,0,0,0,0,0c0,0-0.1,0-0.1,0v0c0,0,0,0,0,0c0,0,0,0,0,0h0
		c0,0,0,0-0.1,0.1c-0.1,0-0.1,0-0.2,0.1c0,0,0,0-0.1,0.1c0,0-0.1,0-0.1,0c0,0,0,0,0,0c0,0,0,0-0.1,0v0h-0.1v0h-0.1v0h-0.2
		c0,0-0.3,0-0.4,0v0h-0.1v0h-0.1v0h0v0h0c0,0,0,0,0,0h0c0,0,0,0,0,0c0,0,0,0-0.1,0c0,0,0,0,0,0h0c0,0,0,0,0-0.1h0c0,0,0,0,0-0.1
		c-0.1-0.1-0.1-0.1-0.2-0.2c0-0.1,0-0.1,0-0.2h0c0,0,0,0,0-0.1h0v0h0v0h0v0h0v0h0v0h0v0h0c0-0.1,0-0.2,0-0.2c0-0.1,0-0.3,0-0.3h0
		V8.1h0V8h0V7.9h0V7.8h0v0h0v0h0v0h0V7.6h0v0h0v0h0v0h0V7.4h0c0-0.1,0-0.2,0-0.3h0c0,0,0-0.1,0-0.1c0,0,0,0,0,0v0c0,0,0,0,0,0v0h0
		c0,0,0-0.1,0-0.1h0v0c0,0,0,0,0,0c0,0,0,0,0-0.1h0v0c0,0,0,0,0,0v0c0,0,0,0,0.1-0.1c0,0,0-0.1,0-0.1h0c0,0,0,0,0-0.1c0,0,0,0,0,0v0
		c0,0,0,0,0,0c0,0,0.1-0.1,0.1-0.1c0,0,0,0,0,0v0h0c0,0,0.2-0.2,0.2-0.2h0v0h0v0h0v0h0l0,0h0c0,0,0,0,0,0c0,0,0,0,0,0c0,0,0,0,0,0h0
		v0h0v0h0.1v0h0.1v0h0v0h0c0,0,0,0,0,0c0,0,0.1,0,0.1,0v0h0v0h0.1v0h0.1v0H40v0H40v0h0.1v0h0.1v0h0.2v0h0.1v0h0.1c0,0,0,0,0,0
		c0,0,0.1,0,0.1,0v0h0.1v0h0v0h0v0h0v0h0v0c0,0,0,0,0.1,0v0h0v0c0,0,0,0,0,0c0,0,0,0,0,0h0c0,0,0,0,0,0c0,0,0.1,0,0.1,0.1
		C41.2,6.1,41.2,6.2,41.2,6.2"/>
	<path class="st2" d="M52.3,6C52.3,6,52.3,6,52.3,6L52.3,6c0,0.1,0,0.1,0.1,0.1h0v0.1h0v0.1h0c0,0.1,0,0.2,0,0.3h0v0h0v0.1h0
		c0,0.1,0,0.1,0,0.2h0c0,0.1,0,0.2,0,0.3c0,0.1,0.1,0.3,0.1,0.4v0.1h0v0.1h0v0.1h0v0.1h0V8h0v0.1h0v0.1h0v0.1h0v0.1
		c0,0.1,0.1,0.2,0.1,0.3v0.1h0v0.1h0V9h0v0.2h0c0,0,0,0,0,0.1c0,0,0,0,0.1,0v0c0,0,0.1,0,0.1-0.1v0c0,0,0,0,0.1,0c0,0,0-0.1,0-0.1h0
		v0c0,0,0,0,0.1,0v0h0c0,0,0,0,0-0.1h0c0-0.1,0-0.2,0.1-0.3c0,0,0,0,0,0v0c0,0,0,0,0,0v0c0,0,0,0,0,0v0h0c0,0,0,0,0-0.1h0
		c0,0,0-0.1,0-0.1c0,0,0,0,0,0v0c0,0,0,0,0.1,0v0c0,0,0,0,0,0v0h0v0h0c0-0.1,0-0.1,0.1-0.2h0v0l0,0c0,0,0,0,0-0.1l0,0c0,0,0,0,0-0.1
		c0,0,0,0,0,0v0h0c0,0,0,0,0-0.1h0V7.6h0c0,0,0,0,0-0.1c0,0,0,0,0,0v0c0,0,0,0,0,0c0,0,0,0,0-0.1c0,0,0,0,0,0v0l0,0v0h0v0h0v0h0
		c0,0,0-0.1,0-0.1h0c0,0,0-0.1,0-0.1h0v0h0v0c0,0,0,0,0,0c0,0,0,0,0-0.1c0,0,0,0,0,0v0c0,0,0,0,0,0c0-0.1,0-0.1,0-0.2h0v0
		c0,0,0,0,0,0v0c0,0,0,0,0,0v0c0,0,0,0,0,0v0c0,0,0,0,0.1,0c0,0,0-0.1,0-0.1V6.4h0c0,0,0,0,0-0.1h0c0,0,0,0,0-0.1c0,0,0,0,0,0v0
		c0,0,0,0,0.1,0v0c0,0,0,0,0,0V6.1C54.5,6,54.6,6,54.6,6c0,0,0.2,0,0.3,0c0,0,0.3,0,0.4,0v0h0.2v0h0.1v0c0.1,0,0.2,0,0.2,0
		c0,0,0,0,0,0.1c0,0,0,0.2,0,0.2h0v0c0,0,0,0,0,0c0,0,0,0,0,0.1c0,0,0,0,0,0v0h0v0h0v0h0c0,0,0,0.1,0,0.1c0,0,0,0-0.1,0.1v0
		c0,0,0,0,0,0v0c0,0,0,0,0,0v0h0c0,0,0,0,0,0.1h0v0h0v0.1c0,0.1-0.1,0.1-0.1,0.2v0h0v0h0v0c0,0,0,0,0,0v0h0l0,0.1c0,0,0,0,0,0v0
		c0,0,0,0,0,0c0,0,0,0,0,0.1h0v0h0v0h0v0h0c0,0,0,0.1,0,0.1h0c0,0,0,0,0,0.1h0v0c0,0,0,0-0.1,0v0c0,0,0,0,0,0v0l0,0v0h0v0h0v0
		c0,0,0,0,0,0V8h0c0,0,0,0,0,0.1c0,0,0,0-0.1,0v0c0,0,0,0,0,0v0h0c0,0,0,0.1,0,0.1h0c0,0,0,0.1,0,0.1h0v0h0c0,0,0,0,0,0.1
		c0,0,0,0,0,0c0,0,0,0,0,0c0,0,0,0-0.1,0c0,0,0,0.1,0,0.1c0,0-0.1,0-0.1,0.1c0,0,0,0,0,0.1h0c0,0,0,0.1,0,0.1c0,0,0,0,0,0
		c0,0,0,0,0,0.1h0v0h0c0,0,0,0.1,0,0.1h0c0,0,0,0,0,0.1h0c0,0,0,0.1,0,0.1c0,0,0,0-0.1,0v0l0,0v0h0v0h0v0c0,0,0,0-0.1,0v0.1h0v0h0v0
		h0v0c0,0,0,0-0.1,0v0h0c0,0,0,0.1,0,0.1h0v0h0v0c0,0,0,0,0,0v0c0,0,0,0,0,0c0,0,0,0,0,0.1c0,0,0,0-0.1,0.1c0,0,0,0.1,0,0.1
		c0,0,0,0,0,0c0,0,0,0,0,0h0c0,0,0,0.1,0,0.1c0,0,0,0,0,0v0c0,0,0,0,0,0v0h0v0h0v0h0c0,0,0,0.1,0,0.1h0v0c0,0,0,0,0,0v0h0v0h0v0l0,0
		v0c0,0,0,0,0,0c0,0,0,0,0,0h0c0,0,0,0.1,0,0.1l-0.1,0c0,0,0,0.1,0,0.1h0c0,0,0,0,0,0.1h0v0c0,0,0,0,0,0v0h0c0,0,0,0,0,0h0
		c0,0,0,0.1,0,0.1h0v0c0,0,0,0,0,0v0c0,0,0,0,0,0c0,0,0,0.1,0,0.1c0,0,0,0,0,0c0,0,0,0,0,0.1c0,0,0,0,0,0c0,0.1,0,0.1-0.1,0.1
		c0,0.1-0.1,0.2-0.1,0.3c0,0,0,0,0,0v0c0,0-0.1,0.1-0.1,0.1v0c0,0,0,0,0,0c0,0,0,0.1,0,0.1c-0.1,0.1-0.1,0.1-0.2,0.2
		c-0.1,0.1-0.2,0.2-0.2,0.3c0,0-0.1,0-0.1,0v0c0,0-0.1,0-0.1,0v0c0,0,0,0-0.1,0c0,0,0,0,0,0h0v0c0,0-0.1,0-0.1,0v0h0v0h0v0h0
		c0,0,0,0,0,0c0,0-0.1,0-0.1,0v0h0v0h0c0,0,0,0,0,0c-0.1,0-0.1,0-0.2,0v0h0v0c0,0-0.1,0-0.1,0v0H51c-0.2,0-0.3,0-0.5,0
		c0,0,0,0,0-0.1h0c0,0,0,0,0-0.1h0c0-0.1,0-0.2,0-0.3c0-0.1,0-0.2,0-0.3h0c0,0,0,0,0,0V12h0c0,0,0,0,0-0.1c0,0,0,0,0,0h0l0,0h0.2
		c0,0,0.2,0,0.3,0c0.1,0,0.3,0,0.4,0v0c0,0,0.1,0,0.1,0v0h0c0,0,0,0,0,0h0c0,0,0,0,0-0.1c0,0,0.1,0,0.1,0v0h0v0c0,0,0,0,0,0
		c0,0,0-0.1,0.1-0.1c0-0.1,0.1-0.1,0.1-0.2c0,0,0,0,0.1,0c0,0,0,0,0-0.1c0,0,0,0,0,0c0,0,0-0.1,0-0.1h0v0h0v0h0c0,0,0,0,0,0h0V11h0
		v0h0v-0.1h0v-0.1h0v-0.1h0v-0.1h0c0-0.1,0-0.1,0-0.2h0v-0.1h0v-0.1h0c0,0,0-0.1,0-0.1h0v0h0c0,0,0-0.1,0-0.1h0c0,0,0,0,0-0.1h0
		c0,0,0-0.1,0-0.1h0V10h0V9.8h0V9.7h0V9.6h0v0h0V9.5h0V9.4h0v0h0v0h0v0h0c0,0,0-0.1,0-0.1h0v0h0c0-0.2,0-0.3-0.1-0.5h0V8.6h0v0h0v0
		h0v0h0v0h0v0h0V8.3c0-0.1,0-0.2-0.1-0.3V7.9h0c0,0,0-0.1,0-0.1h0V7.7h0v0h0V7.6h0c0,0,0-0.1,0-0.1h0v0h0v0h0v0h0V7.3h0
		c0-0.1,0-0.2,0-0.4h0V6.9h0c0,0,0-0.1,0-0.1h0c0,0,0,0,0-0.1h0c0,0,0-0.1,0-0.1h0v0h0v0h0v0h0V6.5h0V6.4h0c0-0.1,0-0.3,0.1-0.3h0
		c0.1,0,0.2,0,0.3,0v0h0.1v0h0.1v0h0.1v0h0.1v0c0.1,0,0.1,0,0.2,0C52.1,5.9,52.2,5.9,52.3,6C52.3,5.9,52.3,6,52.3,6"/>
	<path class="st2" d="M50.2,7.6L50.2,7.6c0-0.1,0-0.2,0-0.4h0V7.1h0v0h0V7h0v0h0v0h0v0h0v0h0c0,0,0-0.1,0-0.1h0c0,0,0,0,0-0.1h0v0
		c0,0,0,0,0,0v0c0,0,0,0,0,0v0c0,0,0,0-0.1,0c0-0.1,0-0.1-0.1-0.2c0,0,0,0,0,0c0,0-0.1-0.1-0.1-0.1h0c0,0,0,0-0.1-0.1c0,0,0,0-0.1,0
		c0,0,0,0,0,0c0,0,0,0,0,0c0,0,0,0,0-0.1c0,0-0.1,0-0.1-0.1c0,0,0,0,0-0.1c0,0-0.1,0-0.1,0v0h0v0c-0.1,0-0.1,0-0.2,0
		c-0.1,0-0.3,0-0.5,0h-0.3v0h-0.1v0h-0.1v0H48v0H48v0h0v0h0v0h0c0,0,0,0,0,0c0,0,0,0-0.1,0v0c0,0,0,0-0.1,0c0,0,0,0-0.1,0.1v0
		c0,0,0,0-0.1,0v0c0,0-0.1,0-0.1,0v0h0v0h0c0,0,0,0,0,0c0,0-0.1,0-0.1,0v0c0,0-0.1,0-0.1,0c0,0-0.1,0-0.1,0c0-0.1,0-0.2,0-0.3V6h0
		V5.9h0V5.8h0V5.8h0c0-0.2,0-0.3,0-0.5h0c0,0,0-0.1,0-0.1h0V5.1h0V5.1h0V4.9c0-0.1,0-0.1,0.1-0.2V4.7h0V4.5h0V4.4
		c0-0.1,0-0.2,0.1-0.3V4h0c0,0,0-0.1,0-0.1h0V3.8h0v0h0c0,0,0-0.1,0-0.2c0,0,0-0.1-0.1-0.1c-0.1,0-0.1,0-0.1,0v0c0,0-0.1,0-0.1,0
		c0,0,0,0,0,0H47v0h-0.1v0h0v0h0v0c0,0-0.1,0-0.1,0v0h-0.2c-0.1,0-0.3,0.1-0.4,0.1c0,0.1,0,0.1,0,0.2h0V4h0v0.1h0v0.1h0v0.2h0v0.2h0
		v0.2h0v0.1h0v0.1h0v0.1h0v0.1h0v0.1h0c0,0,0,0.1,0,0.1h0v0.1h0v0h0v0.1h0v0.1h0c0,0.1,0,0.3,0,0.4h0v0.1h0V6h0v0h0v0.1h0v0.1h0v0h0
		v0h0v0.1h0v0.1h0v0.2h0v0.1h0v0.1h0c0,0.1,0,0.2,0,0.3h0v0.1h0v0.1h0v0.1h0v0h0v0.1h0c0,0,0,0.1,0,0.1h0c0,0.1,0,0.1,0,0.2h0
		c0,0,0,0.1,0,0.1h0v0.1h0v0.2h0v0.1h0v0.1h0v0.1h0c0,0.1,0,0.1,0,0.2h0v0.1h0v0h0v0h0v0h0v0h0v0.1h0V9h0v0.1h0v0.1h0v0.1h0v0.2h0
		v0.1h0v0h0v0h0v0h0v0h0v0.1c0,0.1,0,0.2-0.1,0.3v0.1h0v0.2h0v0.1h0v0.1h0c0,0,0,0.1,0,0.1c0,0.1,0.2,0.1,0.3,0.2h0.1v0h0.1v0h0.1v0
		c0,0,0,0,0.1,0v0c0.1,0,0.3,0,0.4,0.1h0.1v0h0v0h0.1v0h0.1v0h0.1v0c0.1,0,0.3,0,0.4,0h0v0H47v0c0.1,0,0.2,0,0.3,0v0h0.1v0h0.1v0
		h0.3v0h0.1v0h0.1v0h0v0h0v0h0v0c0.1,0,0.1,0,0.2,0v0h0v0h0v0c0,0,0.1,0,0.1,0v0h0c0,0,0,0,0,0c0.1,0,0.1,0,0.2,0v0h0c0,0,0,0,0,0h0
		c0,0,0,0,0,0h0v0c0.1,0,0.1,0,0.2-0.1c0,0,0,0,0,0c0,0,0,0,0,0v0h0c0,0,0,0,0-0.1c0,0,0,0,0.1,0c0,0,0.1-0.1,0.2-0.2h0v0h0
		c0,0,0,0,0-0.1h0c0,0,0,0,0,0c0,0,0,0,0.1-0.1v0c0,0,0,0,0,0c0,0,0.1-0.1,0.1-0.1h0c0,0,0,0,0-0.1h0v0l0,0v0h0v0c0,0,0,0,0,0
		c0,0,0,0,0,0c0,0,0,0,0.1-0.1v0l0,0v0h0v0h0v0c0,0,0,0,0,0v0c0,0,0,0,0,0v0c0,0,0,0,0,0v0c0,0,0,0,0,0v0h0v0h0c0-0.1,0-0.1,0-0.2h0
		c0,0,0-0.1,0-0.1h0c0,0,0,0,0-0.1h0v0c0,0,0,0,0,0c0,0,0,0,0-0.1h0c0,0,0-0.1,0-0.1h0v0h0c0,0,0-0.1,0-0.1h0V8.8h0V8.8h0V8.7
		c0-0.1,0.1-0.3,0.1-0.4c0-0.1,0-0.2,0-0.4C50.2,7.9,50.3,7.6,50.2,7.6 M48.9,8.2L48.9,8.2l0,0.2h0c0,0,0,0.1,0,0.1h0v0h0
		c0,0,0,0.1,0,0.1h0c0,0.1,0,0.1,0,0.2h0v0.1h0v0.1h0V9h0c0,0,0,0,0,0.1h0c0,0,0,0.1,0,0.1h0c0,0,0,0,0,0.1c0,0,0,0,0,0v0l0,0v0h0v0
		h0v0h0v0c0,0,0,0,0,0v0c0,0,0,0,0,0v0c0,0,0,0,0,0c0,0,0,0,0,0.1c0,0,0,0-0.1,0c0,0-0.1,0.1-0.1,0.1h0c0,0-0.1,0.1-0.1,0.1h0
		c0,0,0,0,0,0h0c0,0,0,0,0,0c-0.1,0-0.1,0.1-0.2,0.1c0,0-0.1,0-0.1,0v0h-0.2v0c-0.1,0-0.1,0-0.2,0v0c-0.2,0-0.3,0-0.5,0
		c0,0-0.1,0-0.1,0c0,0,0,0,0,0h0v0c0,0,0,0,0,0c0,0,0,0,0-0.1h0v0h0V9.8h0c0-0.1,0.1-0.2,0.1-0.2V9.5h0V9.4h0V9.3h0
		c0-0.1,0-0.2,0-0.4c0-0.1,0.1-0.3,0.1-0.4c0-0.1,0-0.1,0-0.2h0V8.2h0V8.2h0V8c0-0.1,0-0.1,0-0.2h0V7.7h0v0l0,0v0c0,0,0,0,0,0
		c0,0,0,0,0,0h0c0,0,0.1,0,0.1-0.1c0.1,0,0,0,0.1-0.1h0c0,0,0,0,0,0l0,0v0c0,0,0,0,0.1,0c0,0,0.1-0.1,0.1-0.1h0l0,0h0l0,0h0v0h0
		c0,0,0,0,0,0c0,0,0.1,0,0.1,0v0h0c0,0,0,0,0,0c0,0,0,0,0.1,0v0c0,0,0.1,0,0.1,0v0H48v0h0.1v0c0.1,0,0.1,0,0.2,0v0h0.1v0h0.1v0h0v0
		h0c0,0,0,0,0.1,0.1h0c0,0,0,0,0,0.1h0c0,0,0,0,0,0h0v0c0,0,0,0,0.1,0.1v0c0,0,0,0,0,0c0,0,0,0.1,0,0.1h0c0,0,0,0,0,0.1h0v0.1h0v0h0
		v0h0v0h0v0h0v0.1h0C48.9,8,48.9,8.2,48.9,8.2"/>
</g>
<g id="Layer_2">
	<g>
		<path class="st3" d="M22.7,12.9l-2.8,7.6l-0.3-1.5c-0.7-1.9-2.2-3.9-4-4.7l2.6,9.7l3,0l4.5-11.1H22.7L22.7,12.9z"/>
		<polygon class="st3" points="25.1,24 26.9,12.9 29.7,12.9 27.9,24 25.1,24 		"/>
		<path class="st3" d="M38.3,13.2c-0.6-0.2-1.5-0.5-2.6-0.5c-2.8,0-4.8,1.5-4.8,3.7c0,1.6,1.4,2.5,2.5,3c1.1,0.5,1.5,0.9,1.5,1.4
			c0,0.7-0.9,1.1-1.7,1.1c-1.1,0-1.8-0.2-2.7-0.6l-0.4-0.2l-0.4,2.5c0.7,0.3,1.9,0.6,3.2,0.6c3,0,5-1.5,5-3.8c0-1.3-0.8-2.2-2.4-3
			c-1-0.5-1.6-0.9-1.6-1.4c0-0.5,0.5-1,1.6-1c0.9,0,1.6,0.2,2.1,0.4l0.3,0.1L38.3,13.2L38.3,13.2z"/>
		<path class="st3" d="M45.7,12.9h-2.2c-0.7,0-1.2,0.2-1.5,0.9L37.7,24h3c0,0,0.5-1.4,0.6-1.7c0.3,0,3.3,0,3.7,0
			c0.1,0.4,0.3,1.7,0.3,1.7H48L45.7,12.9L45.7,12.9z M42.2,20.1c0.2-0.6,1.1-3.1,1.1-3.1c0,0,0.2-0.6,0.4-1.1l0.2,1
			c0,0,0.6,2.7,0.7,3.2C44.1,20.1,42.7,20.1,42.2,20.1L42.2,20.1z"/>
		<path class="st3" d="M17.2,12.9h-4.6l0,0.2c3.6,0.9,6,3.2,7,5.9l-1-5.1C18.4,13.1,17.9,12.9,17.2,12.9L17.2,12.9z"/>
		<polygon class="st3" points="3.9,10.2 2.1,10.2 0,0.7 2,0.4 3.5,7.8 7.1,0.5 9.1,0.5 3.9,10.2 		"/>
		<path class="st3" d="M13.5,7.1H9.1C9,8.4,9.6,9,10.6,9c0.9,0,1.6-0.3,2.5-0.8l0,1.3c-0.8,0.5-1.7,0.8-2.8,0.8
			c-1.9,0-3.2-1.1-2.8-3.5c0.3-2.2,1.9-3.5,3.6-3.5c2,0,2.7,1.5,2.4,3.5C13.5,6.8,13.5,7,13.5,7.1L13.5,7.1z M10.9,4.4
			c-0.7,0-1.3,0.5-1.6,1.6H12C12,5,11.7,4.4,10.9,4.4L10.9,4.4z"/>
		<path class="st3" d="M16.3,6.3l-0.6,3.9H14l1-6.8h1.4l0,1.4c0.6-0.8,1.3-1.4,2.4-1.5l0,1.7C17.8,5,16.9,5.5,16.3,6.3L16.3,6.3z"/>
		<path class="st3" d="M18.9,10.2l1-6.8h1.7l-1,6.8H18.9L18.9,10.2z M21,2.2c-0.6,0-1-0.4-0.9-1c0.1-0.6,0.6-1,1.2-1
			c0.5,0,0.9,0.4,0.8,1C22,1.8,21.5,2.2,21,2.2L21,2.2z"/>
		<path class="st3" d="M26.3,1.5c-0.6,0-0.9,0.3-1,0.9l-0.2,1h1.3l0,1.4h-1.5l-0.8,5.4h-1.7l0.8-5.4h-1l0.2-1.4h1l0.2-1.2
			c0.2-1.5,1.3-2.1,2.7-2.1c0.3,0,0.5,0,0.7,0.1l0,1.4C26.8,1.5,26.6,1.5,26.3,1.5L26.3,1.5z"/>
		<path class="st3" d="M26.3,10.2l1-6.8h1.7l-1,6.8H26.3L26.3,10.2z M28.4,2.2c-0.6,0-1-0.4-0.9-1c0.1-0.6,0.6-1,1.2-1
			c0.5,0,0.9,0.4,0.8,1C29.5,1.8,29,2.2,28.4,2.2L28.4,2.2z"/>
		<path class="st3" d="M35.6,7.1h-4.4C31.1,8.4,31.7,9,32.8,9c0.9,0,1.6-0.3,2.5-0.8l0,1.3c-0.8,0.5-1.7,0.8-2.8,0.8
			c-1.9,0-3.2-1.1-2.8-3.5c0.3-2.2,1.9-3.5,3.6-3.5c2,0,2.7,1.5,2.4,3.5C35.7,6.8,35.6,7,35.6,7.1L35.6,7.1z M33,4.4
			c-0.7,0-1.3,0.5-1.6,1.6h2.7C34.2,5,33.9,4.4,33,4.4L33,4.4z"/>
		<path class="st3" d="M40.6,10.2l0-0.9c-0.6,0.6-1.3,1.1-2.2,1.1c-1.4,0-2.4-1.1-2-3.3c0.4-2.5,2-3.7,3.5-3.7
			c0.6,0,1.2,0.1,1.5,0.3l0.5-3.3L43.6,0l-1.6,10.2H40.6L40.6,10.2z M41.2,4.9c-0.4-0.2-0.7-0.3-1.3-0.3c-0.9,0-1.6,0.7-1.9,2.2
			c-0.2,1.3,0.3,1.9,1,1.9c0.6,0,1.2-0.4,1.7-0.9L41.2,4.9L41.2,4.9z"/>
		<path class="st3" d="M47.2,10.2c-0.8,0-1.5-0.1-2.1-0.3l1.1-7.2l1.3-0.2l-0.5,3.1c0.4-0.3,0.9-0.7,1.6-0.7c1.1,0,1.8,0.8,1.5,2.5
			C49.9,9.3,48.8,10.2,47.2,10.2L47.2,10.2z M48.2,6c-0.4,0-0.9,0.3-1.2,0.7L46.6,9c0.3,0.1,0.4,0.1,0.8,0.1c0.8,0,1.4-0.5,1.6-1.7
			C49.1,6.5,48.7,6,48.2,6L48.2,6z"/>
		<path class="st3" d="M53.2,10.4c-0.7,1.3-1.3,1.7-2.3,1.7c-0.2,0-0.3,0-0.5-0.1l0-1.1c0.2,0,0.3,0.1,0.6,0.1
			c0.4,0,0.7-0.2,0.9-0.5l0.2-0.3l-1.1-5.1l1.4-0.2l0.6,3.7L54.8,5H56L53.2,10.4L53.2,10.4z"/>
	</g>
</g>
</svg>
