<svg id="visa_1_" xmlns="http://www.w3.org/2000/svg" viewBox="0 0 50 50">
  <style>
    .st0{fill:#26337A;} .st1{fill:#FFFFFF;} .st2{fill:#EC982D;}
  </style>
  <path class="st0" d="M0 14.3C0 11.9 1.9 10 4.3 10h41.4c2.4 0 4.3 1.9 4.3 4.3v21.4c0 2.4-1.9 4.3-4.3 4.3H4.3C1.9 40 0 38.1 0 35.7V14.3z"/>
  <path class="st1" d="M20.7 29.8l1.6-9.6h2.4l-1.5 9.6h-2.5m11.4-9.3c-.5-.2-1.3-.4-2.2-.4-2.4 0-4.1 1.3-4.2 3.1 0 1.4 1.2 2.1 2.2 2.6s1.3.8 1.3 1.2c0 .6-.8.9-1.5.9-1 0-1.5-.1-2.3-.5l-.3-.2-.3 2.1c.6.3 1.6.5 2.7.5 2.6 0 4.3-1.3 4.3-3.3 0-1.1-.6-1.9-2.1-2.6-.9-.4-1.4-.7-1.4-1.2 0-.4.4-.8 1.4-.8.8 0 1.4.2 1.8.4l.2.1.4-1.9m6.3-.3h-1.9c-.6 0-1 .2-1.3.8l-3.6 8.7h2.6s.4-1.2.5-1.4h3.1c.1.3.3 1.4.3 1.4h2.3l-2-9.5zm-3 6.2c.2-.5 1-2.7 1-2.7l.3-.9.2.8.6 2.8h-2.1zm-16.7-6.2l-2.4 6.5-.3-1.3c-.4-1.5-1.8-3.2-3.4-4l2.2 8.3h2.6l3.9-9.5h-2.6"/>
  <path class="st2" d="M14 20.2h-4v.2c3.1.8 5.1 2.7 6 5l-.8-4.4c-.2-.6-.6-.7-1.2-.8"/>
</svg>