<?xml version="1.0" encoding="utf-8"?>
<!-- Generator: Adobe Illustrator 21.0.0, SVG Export Plug-In . SVG Version: 6.00 Build 0)  -->
<svg version="1.1" id="visa_1_" xmlns="http://www.w3.org/2000/svg" xmlns:xlink="http://www.w3.org/1999/xlink" x="0px" y="0px"
	 width="50px" height="30px" viewBox="0 0 50 30" style="enable-background:new 0 0 50 30;" xml:space="preserve">
<style type="text/css">
	.st0{fill:#26337A;}
	.st1{fill:#FFFFFF;}
	.st2{fill:#EC982D;}
</style>
<path class="st0" d="M0,4.3C0,1.9,1.9,0,4.3,0h41.4C48.1,0,50,1.9,50,4.3v21.4c0,2.4-1.9,4.3-4.3,4.3H4.3C1.9,30,0,28.1,0,25.7V4.3z
	"/>
<path class="st1" d="M20.7,19.8l1.6-9.6h2.4l-1.5,9.6H20.7 M32.1,10.5c-0.5-0.2-1.3-0.4-2.2-0.4c-2.4,0-4.1,1.3-4.2,3.1
	c0,1.4,1.2,2.1,2.2,2.6s1.3,0.8,1.3,1.2c0,0.6-0.8,0.9-1.5,0.9c-1,0-1.5-0.1-2.3-0.5l-0.3-0.2l-0.3,2.1c0.6,0.3,1.6,0.5,2.7,0.5
	c2.6,0,4.3-1.3,4.3-3.3c0-1.1-0.6-1.9-2.1-2.6c-0.9-0.4-1.4-0.7-1.4-1.2c0-0.4,0.4-0.8,1.4-0.8c0.8,0,1.4,0.2,1.8,0.4l0.2,0.1
	L32.1,10.5 M38.4,10.2h-1.9c-0.6,0-1,0.2-1.3,0.8l-3.6,8.7h2.6c0,0,0.4-1.2,0.5-1.4h3.1c0.1,0.3,0.3,1.4,0.3,1.4h2.3
	C40.4,19.7,38.4,10.2,38.4,10.2z M35.4,16.4c0.2-0.5,1-2.7,1-2.7l0.3-0.9l0.2,0.8l0.6,2.8C37.5,16.4,35.4,16.4,35.4,16.4z
	 M18.7,10.2l-2.4,6.5L16,15.4c-0.4-1.5-1.8-3.2-3.4-4l2.2,8.3h2.6l3.9-9.5H18.7"/>
<path class="st2" d="M14,10.2h-4v0.2c3.1,0.8,5.1,2.7,6,5L15.2,11C15,10.4,14.6,10.3,14,10.2"/>
</svg>
