<?xml version="1.0" encoding="utf-8"?>
<!-- Generator: Adobe Illustrator 17.0.0, SVG Export Plug-In . SVG Version: 6.00 Build 0)  -->
<!DOCTYPE svg PUBLIC "-//W3C//DTD SVG 1.1//EN" "http://www.w3.org/Graphics/SVG/1.1/DTD/svg11.dtd">
<svg version="1.1" id="Layer_1" xmlns="http://www.w3.org/2000/svg" xmlns:xlink="http://www.w3.org/1999/xlink" x="0px" y="0px"
	 width="64px" height="64px" viewBox="0 0 64 64" enable-background="new 0 0 64 64" xml:space="preserve">
<g>
	<defs>
		<rect id="SVGID_1_" y="9.35" width="64" height="45.299"/>
	</defs>
	<clipPath id="SVGID_2_">
		<use xlink:href="#SVGID_1_"  overflow="visible"/>
	</clipPath>
	<path clip-path="url(#SVGID_2_)" fill="#231F20" d="M63.639,23.371c-0.311-0.385-0.783-0.608-1.272-0.608h-6.234
		c-1.536-4.05-3.536-8.026-5.81-9.524c-7.872-5.185-28.767-5.185-36.64,0c-2.274,1.497-4.273,5.474-5.818,9.524H1.641
		c-0.496,0-0.961,0.223-1.272,0.608c-0.313,0.383-0.432,0.879-0.336,1.368l0.928,4.464c0.152,0.76,0.824,1.305,1.6,1.305h1.848
		c-1.784,2.057-2.649,4.65-2.657,7.233c-0.014,3.202,1.2,6.09,3.425,8.139c0.025,0.016,0.049,0.041,0.072,0.055v6.258
		c0,1.352,1.098,2.456,2.458,2.456h5.744c1.354,0,2.458-1.104,2.458-2.456V49.68h32.191v2.514c0,1.352,1.098,2.456,2.458,2.456
		h5.744c1.354,0,2.458-1.104,2.458-2.456v-6.137c2.352-2.153,3.48-5.121,3.497-8.09c0.008-2.673-0.897-5.361-2.786-7.459h1.969
		c0.776,0,1.448-0.545,1.608-1.305l0.922-4.464C64.063,24.249,63.944,23.754,63.639,23.371 M16.388,17.344
		c6.273-4.128,24.959-4.128,31.224,0c1.225,0.801,2.792,4.034,4.226,7.995H12.164C13.596,21.377,15.163,18.145,16.388,17.344
		 M9.034,38.358c0-2.665,2.169-4.832,4.835-4.832c2.671,0,4.841,2.167,4.841,4.832c0,2.673-2.169,4.841-4.841,4.841
		C11.203,43.198,9.034,41.031,9.034,38.358 M50.197,43.198c-2.665,0-4.832-2.167-4.832-4.841c0-2.665,2.167-4.832,4.832-4.832
		c2.673,0,4.841,2.167,4.841,4.832C55.037,41.031,52.87,43.198,50.197,43.198"/>
</g>
</svg>
