<?xml version="1.0" encoding="utf-8"?>
<!-- Generator: Adobe Illustrator 17.0.0, SVG Export Plug-In . SVG Version: 6.00 Build 0)  -->
<!DOCTYPE svg PUBLIC "-//W3C//DTD SVG 1.1//EN" "http://www.w3.org/Graphics/SVG/1.1/DTD/svg11.dtd">
<svg version="1.1" id="bag_1" xmlns="http://www.w3.org/2000/svg" xmlns:xlink="http://www.w3.org/1999/xlink" x="0px" y="0px"
	 width="64px" height="64px" viewBox="0 0 64 64" style="enable-background:new 0 0 64 64;" xml:space="preserve">
<path d="M63.872,58.112l-7.808-33.664c-0.384-2.048-2.432-3.712-4.864-3.712h-4.736v-6.4C46.336,6.4,39.936,0,32,0
	S17.664,6.4,17.664,14.336v6.4H12.8c-2.304,0-4.352,1.536-4.864,3.712L0.128,58.112C-0.512,61.184,1.792,64,4.992,64h54.016
	C62.208,64,64.512,61.184,63.872,58.112z M22.4,14.336c0-5.248,4.352-9.6,9.6-9.6s9.6,4.352,9.6,9.6v6.4H22.528
	C22.528,20.736,22.4,14.336,22.4,14.336z M60.032,59.648c-0.128,0.128-0.384,0.384-0.896,0.384H4.992
	c-0.512,0-0.896-0.256-0.896-0.384C3.84,59.52,3.84,59.264,3.84,59.008l7.808-33.664c0.128-0.512,0.512-0.768,1.152-0.768h4.864
	v8.96h4.864v-8.96H41.6v8.96h4.864v-8.96H51.2c0.512,0,1.024,0.384,1.152,0.768l7.808,33.664
	C60.16,59.264,60.16,59.52,60.032,59.648z"/>
</svg>
