<svg id="coin" xmlns="http://www.w3.org/2000/svg" viewBox="0 0 50 50">
  <style>
    .st0{fill:#282828;}
  </style>
  <path class="st0" d="M11.2 50C3.1 50 .3 45.9.2 45.8c-.4-.6-.2-1.4.4-1.7.6-.4 1.4-.2 1.7.4 0 .1 2.2 3.1 8.9 3.1s8.9-3.1 9-3.2c.4-.5 1.1-.7 1.7-.4.6.4.7 1.1.4 1.7-.3.2-3 4.3-11.1 4.3zm0-7.5c-8.1 0-10.9-4.1-11-4.2-.4-.6-.2-1.4.4-1.7.6-.4 1.4-.2 1.7.4 0 .1 2.2 3.1 8.9 3.1s8.9-3.1 9-3.2c.4-.5 1.1-.7 1.7-.4.6.4.7 1.1.4 1.7-.3.2-3 4.3-11.1 4.3zm0-7.5C3.1 35 .3 30.9.2 30.8c-.4-.6-.2-1.4.4-1.7.6-.4 1.4-.2 1.7.4 0 .1 2.2 3.1 8.9 3.1s8.9-3.1 9-3.2c.4-.5 1.1-.7 1.7-.4.6.4.7 1.1.4 1.7-.3.2-3 4.3-11.1 4.3z"/>
  <ellipse class="st0" cx="11.2" cy="21.2" rx="11.2" ry="6.2"/>
  <path class="st0" d="M38.6 50c-8.1 0-10.8-4.2-10.9-4.3-.4-.6-.2-1.4.4-1.8.6-.4 1.4-.3 1.7.4.1.1 2.4 3.3 8.9 3.3s8.8-3.1 8.9-3.3c.4-.5 1.1-.8 1.7-.4s.7 1.1.4 1.8c-.3.1-3 4.3-11.1 4.3zm0-7.5c-8.1 0-10.8-4.2-10.9-4.3-.4-.6-.2-1.4.4-1.8.6-.4 1.4-.3 1.7.4.1.1 2.4 3.3 8.9 3.3s8.8-3.1 8.9-3.3c.4-.5 1.1-.8 1.7-.4s.7 1.1.4 1.8c-.3.1-3 4.3-11.1 4.3zm0-7.5c-8.1 0-10.8-4.2-10.9-4.3-.4-.6-.2-1.4.4-1.8s1.4-.3 1.7.4c.1.1 2.4 3.3 8.9 3.3s8.8-3.1 8.9-3.3c.4-.5 1.1-.8 1.7-.4.6.4.7 1.1.4 1.8-.3.1-3 4.3-11.1 4.3zm0-7.5c-8.1 0-10.8-4.2-10.9-4.3-.4-.6-.2-1.4.4-1.8s1.4-.3 1.7.4c.1.1 2.4 3.3 8.9 3.3s8.8-3.1 8.9-3.3c.4-.5 1.1-.8 1.7-.4.6.4.7 1.1.4 1.8-.3.1-3 4.3-11.1 4.3zm0-7.5c-8.1 0-10.8-4.2-10.9-4.3-.4-.6-.2-1.4.4-1.8.6-.4 1.4-.3 1.7.4.1.1 2.4 3.3 8.9 3.3s8.8-3.1 8.9-3.3c.4-.5 1.1-.8 1.7-.4.6.4.7 1.1.4 1.8-.3.1-3 4.3-11.1 4.3z"/>
  <ellipse class="st0" cx="38.8" cy="6.2" rx="11.2" ry="6.2"/>
</svg>