<?xml version="1.0" encoding="utf-8"?>
<!-- Generator: Adobe Illustrator 17.0.0, SVG Export Plug-In . SVG Version: 6.00 Build 0)  -->
<!DOCTYPE svg PUBLIC "-//W3C//DTD SVG 1.1//EN" "http://www.w3.org/Graphics/SVG/1.1/DTD/svg11.dtd">
<svg version="1.1" id="Layer_1" xmlns="http://www.w3.org/2000/svg" xmlns:xlink="http://www.w3.org/1999/xlink" x="0px" y="0px"
	 width="64px" height="64px" viewBox="0 0 64 64" style="enable-background:new 0 0 64 64;" xml:space="preserve">
<path d="M60.468,0H3.532C1.581,0,0,1.581,0,3.532v56.936C0,62.419,1.581,64,3.532,64h30.652V39.216h-8.34v-9.659h8.34v-7.123
	c0-8.266,5.049-12.767,12.423-12.767c3.532,0,6.568,0.263,7.453,0.381v8.639l-5.115,0.002c-4.01,0-4.787,1.906-4.787,4.702v6.167
	h9.565l-1.246,9.659h-8.319V64h16.309C62.418,64,64,62.419,64,60.468V3.532C64,1.581,62.418,0,60.468,0"/>
</svg>
