<svg id="globe_1_" xmlns="http://www.w3.org/2000/svg" viewBox="0 0 50 50">
  <style>
    .st0{fill:#282828;}
  </style>
  <path class="st0" d="M45.6 39.2l.8-1.1c.1-.1.3-.4.3-.5 2.1-3.8 3.4-8 3.4-12.5 0-4.6-1.3-8.9-3.4-12.5 0-.1-.1-.2-.3-.4-.3-.5-.5-.9-.9-1.4C41.1 4.2 33.6 0 25.1 0 15.9 0 8 4.9 3.6 12.1c-.1.1-.1.2-.3.4-2 3.7-3.3 8-3.3 12.5 0 3.9.9 7.5 2.5 10.9.3.5.5 1.1.9 1.6 0 .1.1.1.1.2C7.9 45 15.9 50 25.1 50c8.5 0 16-4.2 20.5-10.8zm-15-16.1H27v-4.4c1.4 0 2.8-.1 4-.2-.2 1.4-.3 3-.4 4.6zm4.4-5.2c3.6-.6 6.8-1.5 9.1-2.4 1.1 2.4 2 4.9 2.3 7.6H34.6c0-1.9.1-3.6.4-5.2zM26.9 15V3.9c2.6.2 5 .9 7.3 2-.9 2.2-1.9 5.1-2.6 8.8-1.5 0-3 .2-4.7.3zm-3.7 0c-1.6 0-3.1-.1-4.6-.4-.8-3.6-1.7-6.6-2.7-8.8 2.3-1 4.6-1.7 7.1-2V15h.2zm0 3.8v4.4h-3.6c0-1.6-.1-3.1-.4-4.6 1.2 0 2.6 0 4 .2zm-7.5 4.3H3.9c.3-2.6 1-5.2 2.1-7.5 2.4.9 5.4 1.8 9.3 2.4.1 1.6.2 3.2.4 5.1zm7.5 3.8v4.4c-1.4 0-2.8.1-4 .2.1-1.5.3-3 .4-4.6h3.6zm0 8.1v11.1c-2.6-.2-5-.9-7.3-2 .9-2.2 1.9-5.1 2.6-8.8l4.7-.3zm3.7 0c1.6 0 3.1.2 4.6.4.8 3.6 1.6 6.5 2.6 8.8-2.3 1-4.6 1.8-7.1 2L26.9 35zm0-3.8v-4.4h3.6c0 1.6.1 3.2.4 4.6-1.2 0-2.6 0-4-.2zm7.6-4.3h11.8c-.3 2.8-1 5.2-2.1 7.6-2.4-.9-5.4-1.8-9.1-2.4-.4-1.6-.5-3.3-.6-5.2zM42 12.2c-1.8.6-3.9 1.2-6.4 1.8.5-2.4 1.3-4.5 1.9-6.1 1.7 1.1 3.2 2.6 4.5 4.3zM12.7 7.8c.6 1.7 1.4 3.8 1.9 6.3-2.6-.6-4.8-1.2-6.6-1.8 1.3-1.7 2.9-3.3 4.7-4.5zM3.9 26.9h11.8c-.1 1.9-.3 3.6-.5 5.1-3.6.6-6.8 1.5-9.1 2.4-1.2-2.3-2-4.8-2.2-7.5zM8 37.8c1.8-.6 4-1.2 6.4-1.8-.5 2.5-1.3 4.5-1.9 6.1-1.7-1.2-3.2-2.7-4.5-4.3zm29.5 4.4c-.6-1.8-1.3-3.8-1.9-6.1 2.5.5 4.6 1.1 6.4 1.8-1.3 1.6-2.8 3.1-4.5 4.3z"/>
</svg>