<svg id="heart-empty_1_" xmlns="http://www.w3.org/2000/svg" viewBox="0 0 50 50">
  <path d="M34.8 3.8c2.9 0 5.7 1.4 7.8 3.6 1.8 1.9 3.8 5.4 3.8 11.2 0 13.1-14.9 23.4-20.7 27-.3.2-.7.2-1 0-6-3.6-20.9-13.9-20.9-27.1 0-5.6 2-9.1 3.8-11.2 2.1-2.3 5-3.6 7.8-3.6 2.6 0 5 1 7.1 3l1.9 1.8c.4.4 1 .4 1.4 0l1.9-1.8c1.9-1.9 4.4-2.9 7.1-2.9m0-3.8c-3.1 0-6.3 1.1-9.1 3.5-.4.4-1 .4-1.4 0-2.7-2.4-6-3.5-9.1-3.5C7.5 0 0 6.9 0 18.5 0 35.8 21.1 48 24.5 49.9c.3.2.7.2.9 0C28.9 48 50 35.8 50 18.5 50 6.9 42.5 0 34.8 0z"/>
</svg>
