<?xml version="1.0" encoding="utf-8"?>
<!-- Generator: Adobe Illustrator 21.0.0, SVG Export Plug-In . SVG Version: 6.00 Build 0)  -->
<svg version="1.1" id="Layer_1" xmlns:sketch="http://www.bohemiancoding.com/sketch/ns"
	 xmlns="http://www.w3.org/2000/svg" xmlns:xlink="http://www.w3.org/1999/xlink" x="0px" y="0px" viewBox="0 0 32 31"
	 style="enable-background:new 0 0 32 31;" xml:space="preserve">
<title>heart-like</title>
<desc>Created with Sketch Beta.</desc>
<g id="Page-1" sketch:type="MSPage">
	<g id="Icon-Set" transform="translate(-100.000000, -880.000000)" sketch:type="MSLayerGroup">
		<path id="heart-like" sketch:type="MSShapeGroup" d="M128,893.7L116,908l-12-14.4c-1.4-2-2-3.3-2-5.2c0-3.4,2.5-6.5,6-6.6
			c2.9,0,6.2,3,8,5.2c1.7-2.2,5.1-5.2,8-5.2c3.5,0,6,3.1,6,6.6C130,890.3,129.6,891.7,128,893.7L128,893.7z M124,880
			c-3.3,0-5.9,2-8,4c-2-2.2-4.7-4-8-4c-4.7,0-8,4-8,8.4c0,2.4,1,4.1,2,5.7l12.4,14.9c1.4,1.5,1.7,1.5,3.1,0l12.5-14.9
			c1.2-1.6,2-3.3,2-5.7C132,884,128.7,880,124,880L124,880z"/>
	</g>
</g>
</svg>
