<svg id="info_1_" xmlns="http://www.w3.org/2000/svg" viewBox="0 0 50 50">
  <style>
    .st0{fill:#282828;}
  </style>
  <path class="st0" d="M25 3.8c11.8 0 21.2 9.5 21.2 21.2S36.8 46.2 25 46.2 3.8 36.8 3.8 25 13.2 3.8 25 3.8M25 0C11.2 0 0 11.2 0 25s11.2 25 25 25 25-11.2 25-25S38.8 0 25 0z"/>
  <path class="st0" d="M21.7 15.5c-.2-.3-.2-.5-.2-.8V11c0-.3.1-.5.3-.8.2-.3.5-.3.7-.3h4.9c.2 0 .6.1.7.3.2.3.3.5.3.8v3.8c0 .3-.1.5-.3.8-.2.3-.5.3-.7.3h-4.9c-.3-.1-.5-.3-.8-.4zm.1 24.2c-.2-.3-.3-.5-.3-.8V19.8c0-.3.1-.5.3-.8.2-.3.5-.3.7-.3h4.9c.2 0 .6.1.7.3.2.3.3.4.3.8V39c0 .3-.1.5-.3.8-.2.2-.4.2-.6.2h-4.9c-.4 0-.6-.1-.8-.3z"/>
</svg>