<svg id="soc-insta_1_" xmlns="http://www.w3.org/2000/svg" viewBox="0 0 50 50">
  <style>
    .st0{fill:#282828;}
  </style>
  <path class="st0" d="M45.3 43.7c0 .9-.7 1.6-1.6 1.6H6.3c-.9 0-1.6-.7-1.6-1.6V20.3H11c-.8 1.2-1.1 3.4-1.1 4.7 0 8.4 6.8 15.2 15.2 15.2S40.3 33.4 40.3 25c0-1.4-.2-3.5-1.2-4.7h6.3l-.1 23.4zM25.1 15.5c5.3 0 9.6 4.3 9.6 9.6s-4.3 9.6-9.6 9.6-9.6-4.3-9.6-9.6c-.1-5.3 4.2-9.6 9.6-9.6zm10.8-7.7c0-.9.7-1.6 1.6-1.6h4.7c.9 0 1.6.7 1.6 1.6v4.7c0 .9-.7 1.6-1.6 1.6h-4.7c-.9 0-1.6-.7-1.6-1.6V7.8zM44.1 0H5.9C2.7 0 0 2.7 0 5.9V44c0 3.3 2.7 6 5.9 6H44c3.3 0 5.9-2.7 5.9-5.9V5.9C50 2.7 47.3 0 44.1 0z"/>
</svg>