<?xml version="1.0" encoding="utf-8"?>
<!-- Generator: Adobe Illustrator 17.0.0, SVG Export Plug-In . SVG Version: 6.00 Build 0)  -->
<!DOCTYPE svg PUBLIC "-//W3C//DTD SVG 1.1//EN" "http://www.w3.org/Graphics/SVG/1.1/DTD/svg11.dtd">
<svg version="1.1" id="Layer_1" xmlns="http://www.w3.org/2000/svg" xmlns:xlink="http://www.w3.org/1999/xlink" x="0px" y="0px"
	 width="64px" height="64px" viewBox="0 0 64 64" enable-background="new 0 0 64 64" xml:space="preserve">
<g>
	<defs>
		<rect id="SVGID_1_" y="0.021" width="64" height="63.958"/>
	</defs>
	<clipPath id="SVGID_2_">
		<use xlink:href="#SVGID_1_"  overflow="visible"/>
	</clipPath>
	<path clip-path="url(#SVGID_2_)" fill="#231F20" d="M63.97,50.497c0.135,1.038-0.181,1.942-0.949,2.71l-9.011,8.943
		c-0.407,0.452-0.937,0.836-1.592,1.152c-0.655,0.316-1.299,0.519-1.931,0.61c-0.045,0-0.181,0.011-0.407,0.034
		c-0.225,0.023-0.519,0.034-0.881,0.034c-0.858,0-2.247-0.147-4.167-0.44c-1.92-0.294-4.269-1.016-7.046-2.168
		c-2.778-1.152-5.928-2.88-9.452-5.183c-3.523-2.303-7.272-5.466-11.247-9.485c-3.162-3.117-5.781-6.098-7.859-8.944
		c-2.078-2.846-3.749-5.477-5.014-7.893c-1.265-2.416-2.214-4.607-2.845-6.572c-0.633-1.964-1.062-3.658-1.288-5.081
		c-0.226-1.423-0.316-2.541-0.271-3.354c0.045-0.813,0.068-1.265,0.068-1.355c0.09-0.632,0.294-1.276,0.61-1.931
		c0.316-0.655,0.7-1.185,1.152-1.592l9.011-9.011c0.632-0.632,1.355-0.949,2.168-0.949c0.587,0,1.107,0.169,1.558,0.508
		c0.452,0.339,0.836,0.757,1.152,1.254l7.249,13.753c0.406,0.723,0.519,1.513,0.339,2.371c-0.181,0.858-0.564,1.581-1.152,2.168
		l-3.32,3.32c-0.09,0.091-0.17,0.237-0.237,0.44c-0.068,0.203-0.102,0.373-0.102,0.508c0.181,0.949,0.587,2.033,1.22,3.252
		c0.542,1.084,1.378,2.406,2.507,3.964c1.129,1.558,2.733,3.354,4.81,5.386c2.032,2.078,3.839,3.692,5.42,4.844
		c1.58,1.151,2.902,1.999,3.963,2.541c1.061,0.542,1.875,0.869,2.439,0.982l0.846,0.169c0.09,0,0.237-0.034,0.441-0.102
		c0.203-0.068,0.35-0.147,0.441-0.237l3.862-3.929c0.814-0.723,1.762-1.084,2.845-1.084c0.768,0,1.378,0.136,1.829,0.407h0.068
		l13.076,7.724C63.224,48.848,63.789,49.593,63.97,50.497"/>
</g>
</svg>
