<?xml version="1.0" encoding="utf-8"?>
<!-- Generator: Adobe Illustrator 17.0.0, SVG Export Plug-In . SVG Version: 6.00 Build 0)  -->
<!DOCTYPE svg PUBLIC "-//W3C//DTD SVG 1.1//EN" "http://www.w3.org/Graphics/SVG/1.1/DTD/svg11.dtd">
<svg version="1.1" id="Layer_1" xmlns="http://www.w3.org/2000/svg" xmlns:xlink="http://www.w3.org/1999/xlink" x="0px" y="0px"
	 width="64px" height="64px" viewBox="0 0 64 64" style="enable-background:new 0 0 64 64;" xml:space="preserve">
<g>
	<g>
		<path d="M32.043,0C14.346,0,0,14.346,0,32.043C0,49.74,14.346,64.086,32.043,64.086c17.698,0,32.044-14.346,32.044-32.043
			C64.086,14.346,49.74,0,32.043,0z M32.043,57.677c-14.157,0-25.634-11.477-25.634-25.634c0-14.158,11.477-25.634,25.634-25.634
			c14.158,0,25.634,11.477,25.634,25.634C57.677,46.201,46.2,57.677,32.043,57.677z M29.242,48.063h5.98v-4.645h-5.98V48.063z
			 M40.512,19.903c-0.825-0.665-1.811-1.176-2.957-1.532c-1.146-0.359-2.42-0.539-3.822-0.539c-1.125,0-2.18,0.08-3.166,0.241
			c-0.986,0.16-1.895,0.362-2.727,0.603c-0.832,0.241-1.581,0.516-2.245,0.822c-0.665,0.305-1.238,0.6-1.719,0.874l1.27,4.206
			c0.526-0.245,1.062-0.485,1.61-0.711c0.547-0.225,1.114-0.427,1.698-0.603c0.583-0.172,1.194-0.313,1.829-0.416
			c0.636-0.1,1.311-0.153,2.027-0.153c0.657,0,1.252,0.081,1.784,0.241c0.533,0.164,0.99,0.393,1.37,0.691
			c0.38,0.298,0.672,0.654,0.876,1.063c0.205,0.409,0.307,0.855,0.307,1.336c0,0.512-0.077,0.971-0.23,1.379
			c-0.153,0.409-0.391,0.81-0.712,1.207c-0.321,0.394-0.719,0.791-1.194,1.191c-0.475,0.401-1.034,0.837-1.676,1.303
			c-0.701,0.512-1.281,1.047-1.742,1.601s-0.833,1.177-1.118,1.86c-0.284,0.688-0.485,1.463-0.601,2.323
			c-0.117,0.864-0.175,1.856-0.175,2.98h5.914c0-0.745,0.043-1.387,0.131-1.929c0.087-0.538,0.222-1.016,0.405-1.433
			c0.183-0.417,0.413-0.79,0.69-1.119c0.277-0.328,0.599-0.661,0.964-0.997c0.686-0.554,1.372-1.123,2.059-1.707
			c0.686-0.585,1.306-1.226,1.861-1.925c0.555-0.703,1.008-1.478,1.358-2.323c0.351-0.848,0.526-1.81,0.526-2.892
			c0-1.199-0.227-2.272-0.679-3.22C41.976,21.374,41.336,20.568,40.512,19.903z"/>
	</g>
</g>
</svg>
