<svg id="recycle" xmlns="http://www.w3.org/2000/svg" viewBox="0 0 50 50">
  <style>
    .st0{fill:#282828;}
  </style>
  <path class="st0" d="M28 42.8l-7.1-7.2v4.8H5.4c-.4 0-.6-.3-.6-.4-.1-.1-.2-.5 0-.8l2.7-4.8-4-2.4-2.7 4.8c-1 1.8-1 3.8 0 5.6s2.7 2.8 4.8 2.8h15.6V50l6.8-7.2zm21.3-5.7l-7.5-13.2 4-2.3-9.3-2.6-2.5 9.5 4-2.3 7.5 13.2c.2.4.1.6 0 .7-.1.1-.2.4-.6.4h-5.2V45h5.2c1.9 0 3.6-1 4.6-2.7.7-1.6.7-3.5-.2-5.2zM29.4 2.8C28.4 1 26.6 0 24.6 0s-3.7 1-4.7 2.8l-7.7 13.7L8 14.1l2.6 9.9 9.7-2.7-4.1-2.4L24 5.2c.2-.4.5-.4.6-.4s.5 0 .6.4L28 10l4-2.4-2.6-4.8z"/>
</svg>