<?xml version="1.0" encoding="utf-8"?>
<!-- Generator: Adobe Illustrator 17.0.0, SVG Export Plug-In . SVG Version: 6.00 Build 0)  -->
<!DOCTYPE svg PUBLIC "-//W3C//DTD SVG 1.1//EN" "http://www.w3.org/Graphics/SVG/1.1/DTD/svg11.dtd">
<svg version="1.1" id="search_1" xmlns="http://www.w3.org/2000/svg" xmlns:xlink="http://www.w3.org/1999/xlink" x="0px" y="0px"
	 width="64px" height="64px" viewBox="0 0 64 64" style="enable-background:new 0 0 64 64;" xml:space="preserve">
<path d="M42.88,7.296c-9.856-9.856-25.728-9.856-35.584,0s-9.856,25.728,0,35.584c8.96,8.96,23.168,9.728,33.024,2.176l17.92,17.92
	c1.28,1.28,3.456,1.28,4.736,0s1.28-3.456,0-4.736l-17.92-17.92C52.608,30.464,51.84,16.384,42.88,7.296z M39.296,39.296
	c-7.808,7.808-20.608,7.808-28.416,0s-7.808-20.608,0-28.416s20.608-7.808,28.416,0S47.232,31.488,39.296,39.296z"/>
</svg>
