<?xml version="1.0" encoding="utf-8"?>
<!-- Generator: Adobe Illustrator 17.0.0, SVG Export Plug-In . SVG Version: 6.00 Build 0)  -->
<!DOCTYPE svg PUBLIC "-//W3C//DTD SVG 1.1//EN" "http://www.w3.org/Graphics/SVG/1.1/DTD/svg11.dtd">
<svg version="1.1" id="Layer_1" xmlns="http://www.w3.org/2000/svg" xmlns:xlink="http://www.w3.org/1999/xlink" x="0px" y="0px"
	 width="64px" height="64px" viewBox="0 0 64 64" style="enable-background:new 0 0 64 64;" xml:space="preserve">
<g>
	<path d="M61.685,8.048l-29.333-8c-0.037-0.011-0.077,0.008-0.115,0C32.157,0.032,32.085,0,32,0c-0.085,0-0.157,0.032-0.237,0.048
		c-0.037,0.008-0.077-0.011-0.115,0l-29.333,8C1.736,8.205,1.333,8.731,1.333,9.333v45.333c0,0.603,0.403,1.128,0.981,1.285
		l29.333,8C31.763,63.984,31.883,64,32,64s0.237-0.016,0.352-0.048l29.333-8c0.579-0.157,0.981-0.683,0.981-1.285V9.333
		C62.667,8.733,62.264,8.208,61.685,8.048z M44,5.989l7.997,2.181v21.944l-1.333,1.333l-1.723-1.723c-0.52-0.52-1.365-0.52-1.885,0
		l-1.723,1.723L44,30.115V5.989z M12,8.171l7.997-2.181v24.125l-1.333,1.333l-1.723-1.723c-0.52-0.52-1.365-0.52-1.885,0
		l-1.723,1.723L12,30.115V8.171z M4,10.352l5.333-1.453v21.768c0,0.355,0.141,0.693,0.392,0.944l2.667,2.667
		c0.52,0.52,1.365,0.52,1.885,0L16,32.555l1.723,1.723c0.261,0.259,0.603,0.389,0.944,0.389s0.683-0.131,0.941-0.389l2.667-2.667
		c0.248-0.251,0.389-0.589,0.389-0.944V5.333c0-0.024-0.013-0.043-0.013-0.067l8.016-2.187v57.837L4,53.645V10.352z M60,53.648
		L33.333,60.92V3.08l8.013,2.184c0,0.027-0.013,0.045-0.013,0.069v25.333c0,0.355,0.141,0.693,0.392,0.944l2.667,2.667
		c0.52,0.52,1.365,0.52,1.885,0L48,32.555l1.723,1.723c0.261,0.259,0.603,0.389,0.944,0.389c0.341,0,0.683-0.131,0.941-0.389
		l2.667-2.667c0.248-0.251,0.389-0.589,0.389-0.944V8.896L60,10.352V53.648z"/>
	<path d="M26.277,47.059l-4-4l0,0c-0.123-0.123-0.272-0.221-0.435-0.288c-0.093-0.037-0.195-0.043-0.291-0.059
		c-0.075-0.013-0.141-0.045-0.219-0.045c-0.101,0-0.192,0.037-0.288,0.059c-0.072,0.016-0.147,0.016-0.216,0.043
		c-0.168,0.069-0.32,0.171-0.445,0.296l-3.992,3.992c-0.52,0.52-0.52,1.365,0,1.885s1.365,0.52,1.885,0L20,47.221V52
		c0,0.736,0.597,1.333,1.333,1.333c0.736,0,1.333-0.597,1.333-1.333v-4.779l1.723,1.723c0.261,0.259,0.603,0.389,0.944,0.389
		c0.341,0,0.683-0.131,0.944-0.389C26.797,48.424,26.797,47.579,26.277,47.059z"/>
	<path d="M44.909,48.067l-8,2.667c-0.696,0.235-1.075,0.989-0.843,1.688c0.189,0.557,0.709,0.912,1.267,0.912
		c0.141,0,0.28-0.021,0.421-0.069l8-2.667c0.696-0.235,1.075-0.989,0.843-1.688C46.363,48.213,45.611,47.835,44.909,48.067z"/>
</g>
</svg>
