<?xml version="1.0" encoding="utf-8"?>
<!-- Generator: Adobe Illustrator 17.0.0, SVG Export Plug-In . SVG Version: 6.00 Build 0)  -->
<!DOCTYPE svg PUBLIC "-//W3C//DTD SVG 1.1//EN" "http://www.w3.org/Graphics/SVG/1.1/DTD/svg11.dtd">
<svg version="1.1" id="Layer_1" xmlns="http://www.w3.org/2000/svg" xmlns:xlink="http://www.w3.org/1999/xlink" x="0px" y="0px"
	 width="64px" height="64px" viewBox="0 0 64 64" style="enable-background:new 0 0 64 64;" xml:space="preserve">
<g>
	<g id="_x39__27_">
		<g>
			<path d="M61.794,58.476H30.91c-1.218,0-2.206,0.984-2.206,2.204c0,1.22,0.988,2.208,2.206,2.208h30.884
				c1.218,0,2.206-0.988,2.206-2.208C64,59.459,63.014,58.476,61.794,58.476z M34.632,22.511c0.865-0.869,0.865-2.277,0-3.144
				L19.318,1.744c-0.461-0.463-1.074-0.66-1.677-0.629c-0.604-0.031-1.215,0.165-1.677,0.629L0.649,19.366
				c-0.865,0.869-0.865,2.277,0,3.144c0.865,0.867,2.268,0.869,3.133,0l11.69-13.45v53.826h4.412V9.141l11.619,13.37
				C32.364,23.378,33.767,23.378,34.632,22.511z M35.322,9.944h26.472C63.012,9.944,64,8.896,64,7.676
				c0-1.22-0.988-2.208-2.206-2.208H35.322c-1.218,0-2.206,0.988-2.206,2.208C33.116,8.896,34.104,9.944,35.322,9.944z
				 M61.794,45.22H30.91c-1.218,0-2.206,0.988-2.206,2.208c0,1.22,0.988,2.208,2.206,2.208h30.884c1.218,0,2.206-0.988,2.206-2.208
				C64,46.208,63.014,45.22,61.794,45.22z M61.794,31.968H30.91c-1.218,0-2.206,0.988-2.206,2.208c0,1.22,0.988,2.208,2.206,2.208
				h30.884c1.218,0,2.206-0.988,2.206-2.208C64,32.957,63.014,31.968,61.794,31.968z M61.794,18.717l-17.648,0.049
				c-1.218,0-2.206,0.94-2.206,2.16c0,1.22,0.988,2.252,2.206,2.252l17.648-0.044c1.218,0,2.206-0.988,2.206-2.208
				C64,19.705,63.014,18.717,61.794,18.717z"/>
		</g>
	</g>
</g>
</svg>
