<?xml version="1.0" encoding="utf-8"?>
<!-- Generator: Adobe Illustrator 17.0.0, SVG Export Plug-In . SVG Version: 6.00 Build 0)  -->
<!DOCTYPE svg PUBLIC "-//W3C//DTD SVG 1.1//EN" "http://www.w3.org/Graphics/SVG/1.1/DTD/svg11.dtd">
<svg version="1.1" id="Layer_1" xmlns="http://www.w3.org/2000/svg" xmlns:xlink="http://www.w3.org/1999/xlink" x="0px" y="0px"
	 width="64px" height="64px" viewBox="0 0 64 64" style="enable-background:new 0 0 64 64;" xml:space="preserve">
<g>
	<g id="_x39__27_">
		<g>
			<path d="M2.206,5.524H33.09c1.218,0,2.206-0.984,2.206-2.204c0-1.22-0.988-2.208-2.206-2.208H2.206C0.988,1.113,0,2.101,0,3.321
				C0,4.541,0.986,5.524,2.206,5.524z M29.368,41.489c-0.865,0.869-0.865,2.277,0,3.144l15.314,17.624
				c0.461,0.463,1.074,0.66,1.677,0.629c0.604,0.031,1.215-0.165,1.677-0.629l15.316-17.621c0.865-0.869,0.865-2.277,0-3.144
				c-0.865-0.867-2.268-0.869-3.133,0l-11.69,13.45V1.115h-4.412v53.744l-11.619-13.37C31.636,40.622,30.233,40.622,29.368,41.489z
				 M28.678,54.056H2.206C0.988,54.056,0,55.104,0,56.324c0,1.22,0.988,2.208,2.206,2.208h26.472c1.218,0,2.206-0.988,2.206-2.208
				C30.884,55.104,29.896,54.056,28.678,54.056z M2.206,18.78H33.09c1.218,0,2.206-0.988,2.206-2.208
				c0-1.22-0.988-2.208-2.206-2.208H2.206C0.988,14.364,0,15.352,0,16.572C0,17.792,0.986,18.78,2.206,18.78z M2.206,32.032H33.09
				c1.218,0,2.206-0.988,2.206-2.208c0-1.22-0.988-2.208-2.206-2.208H2.206C0.988,27.615,0,28.603,0,29.823
				C0,31.043,0.986,32.032,2.206,32.032z M2.206,45.283l17.648-0.049c1.218,0,2.206-0.94,2.206-2.16c0-1.22-0.988-2.252-2.206-2.252
				L2.206,40.867C0.988,40.867,0,41.855,0,43.075S0.986,45.283,2.206,45.283z"/>
		</g>
	</g>
</g>
</svg>
