<svg id="truck_1_" xmlns="http://www.w3.org/2000/svg" viewBox="0 0 50 50">
  <style>
    .st0{fill:#282828;}
  </style>
  <path class="st0" d="M48 41.4h-1.2v-5.3c0-11.9-11.3-22.6-11.8-23 0-.1-1.2-1.1-1.9-1.1H5.7c-1 0-1.9.9-1.9 1.8v27.6H1.9c-1 0-1.9.9-1.9 1.8S.9 45 1.9 45h2.2c1 2.8 3.7 4.9 7.1 4.9s6-2.1 7.1-4.9h13.3c1 2.8 3.7 4.9 7.1 4.9 3.4 0 6-2.1 7.1-4.9H48c1 0 1.9-.9 1.9-1.8s-.9-1.8-1.9-1.8zM41.9 30h-12V15.7h2.4s6.9 6.5 9.6 14.3zM11.2 46.3c-2.1 0-3.7-1.6-3.7-3.7s1.6-3.7 3.7-3.7 3.7 1.6 3.7 3.7c.1 2.1-1.6 3.7-3.7 3.7zm20.1-4.9H18.6c-.6-3.4-3.6-6.1-7.4-6.1-1.4 0-2.6.4-3.7 1V15.7h18.7v18h16.6c.1.9.2 1.6.2 2.5v.6c-1.2-.9-2.7-1.5-4.4-1.5-3.7 0-6.7 2.7-7.3 6.1zm7.4 4.9c-2.1 0-3.7-1.6-3.7-3.7s1.6-3.7 3.7-3.7 3.7 1.6 3.7 3.7-1.6 3.7-3.7 3.7zM17.8 10H6.2C5 10 4 9 4 7.8V2.3C4 1 5 0 6.2 0h11.6C19 0 20 1 20 2.3v5.5C20 9 19 10 17.8 10zm9.8 0h-3.2C23.1 10 22 8.9 22 7.6V4.4C22 3.1 23.1 2 24.4 2h3.2C28.9 2 30 3.1 30 4.4v3.2c0 1.3-1.1 2.4-2.4 2.4z"/>
</svg>