<svg id="soc-twitter_1_" xmlns="http://www.w3.org/2000/svg" viewBox="0 0 50 50">
  <style>
    .st0{fill:#282828;}
  </style>
  <path class="st0" d="M48.6 4.8c-2 1.2-4.2 2.1-6.5 2.6C40.2 5.3 37.6 4 34.6 4 29 4 24.4 8.7 24.4 14.6c0 .8.1 1.6.3 2.4-8.6-.4-16.2-4.6-21.2-11.1-.9 1.6-1.4 3.4-1.4 5.3 0 3.7 1.8 6.9 4.6 8.8-1.7 0-3.3-.4-4.7-1.2v.1c0 5.1 3.5 9.4 8.2 10.4-.9.2-1.8.4-2.7.4-.7 0-1.3-.1-1.9-.2 1.3 4.2 5.1 7.3 9.6 7.4-3.5 2.8-7.9 4.5-12.7 4.5-.8 0-1.6 0-2.4-.1 4.5 3 9.9 4.8 15.7 4.8C34.7 46.1 45 29.9 45 15.9v-1.4c2-1.5 3.7-3.4 5.1-5.5-1.8.8-3.8 1.4-5.9 1.7 2-1.4 3.7-3.4 4.4-5.9"/>
</svg>