<?xml version="1.0" encoding="utf-8"?>
<!-- Generator: Adobe Illustrator 17.0.0, SVG Export Plug-In . SVG Version: 6.00 Build 0)  -->
<!DOCTYPE svg PUBLIC "-//W3C//DTD SVG 1.1//EN" "http://www.w3.org/Graphics/SVG/1.1/DTD/svg11.dtd">
<svg version="1.1" id="user_1" xmlns="http://www.w3.org/2000/svg" xmlns:xlink="http://www.w3.org/1999/xlink" x="0px" y="0px"
	 width="64px" height="64px" viewBox="0 0 64 64" style="enable-background:new 0 0 64 64;" xml:space="preserve">
<g id="user">
	<path d="M32,3.84c6.656,0,12.16,5.504,12.16,12.16S38.656,28.16,32,28.16S19.84,22.656,19.84,16S25.344,3.84,32,3.84 M32,0
		c-8.832,0-16,7.168-16,16s7.168,16,16,16s16-7.168,16-16S40.832,0,32,0z M32,37.376c21.504,0,26.624,15.36,27.776,22.784H4.224
		C5.376,52.736,10.496,37.376,32,37.376 M32,33.536C0,33.536,0,64,0,64h64C64,64,64,33.536,32,33.536z"/>
</g>
</svg>
