<?xml version="1.0" encoding="utf-8"?>
<!-- Generator: Adobe Illustrator 17.0.0, SVG Export Plug-In . SVG Version: 6.00 Build 0)  -->
<!DOCTYPE svg PUBLIC "-//W3C//DTD SVG 1.1//EN" "http://www.w3.org/Graphics/SVG/1.1/DTD/svg11.dtd">
<svg version="1.1" id="Layer_1" xmlns="http://www.w3.org/2000/svg" xmlns:xlink="http://www.w3.org/1999/xlink" x="0px" y="0px"
	 width="64px" height="64px" viewBox="0 0 64 64" style="enable-background:new 0 0 64 64;" xml:space="preserve">
<path d="M3.048,45.714c0,0,5.882-12.19,28.952-12.19s28.952,12.19,28.952,12.19v9.143c0,5.05-4.072,9.143-9.143,9.143H12.19
	c-5.05,0-9.143-4.105-9.143-9.143V45.714z M9.143,54.857c0,1.676,1.368,3.048,3.048,3.048H51.81c1.694,0,3.048-1.356,3.048-3.048
	V47.61c-0.734-0.984-1.81-2.008-3.224-2.999C47.238,41.536,40.869,39.616,32,39.616s-15.238,1.917-19.633,4.995
	c-1.414,0.99-2.49,2.014-3.224,2.999C9.143,47.61,9.143,54.857,9.143,54.857z M39.619,13.714c0-4.209-3.41-7.619-7.619-7.619
	s-7.619,3.41-7.619,7.619v1.524c0,3.355,2.743,6.095,6.095,6.095h3.048c3.371,0,6.095-2.718,6.095-6.086V13.714z M45.714,15.238
	c0,6.735-6.238,12.19-12.19,12.19h-3.048c-6.705,0-12.19-5.458-12.19-12.19v-1.524C18.286,6.141,24.427,0,32,0
	s13.714,6.141,13.714,13.714V15.238z"/>
</svg>
