<?xml version="1.0" encoding="utf-8"?>
<!-- Generator: Adobe Illustrator 18.0.0, SVG Export Plug-In . SVG Version: 6.00 Build 0)  -->
<!DOCTYPE svg PUBLIC "-//W3C//DTD SVG 1.1//EN" "http://www.w3.org/Graphics/SVG/1.1/DTD/svg11.dtd">
<svg version="1.1" id="Layer_1" xmlns="http://www.w3.org/2000/svg" xmlns:xlink="http://www.w3.org/1999/xlink" x="0px" y="0px"
	 width="132px" height="35px" viewBox="0 0 132 35" style="enable-background:new 0 0 132 35;" xml:space="preserve">
<style type="text/css">
	.st0{fill:#f15922;}
</style>
<g>
	<path class="st0" d="M24.1,10.4c-0.9-0.9-2-1.7-3.3-2.2c-1.3-0.5-2.8-0.8-4.4-0.8c-1.7,0-3.2,0.3-4.5,0.8c-1.3,0.5-2.4,1.3-3.4,2.2
		c-0.9,1-1.6,2.1-2.1,3.5c-0.5,1.4-0.7,2.9-0.7,4.5c0,1.6,0.2,3.1,0.7,4.5c0.5,1.4,1.2,2.5,2.1,3.5c0.9,1,2,1.7,3.4,2.3
		c1.3,0.5,2.8,0.8,4.5,0.8c1.6,0,3.1-0.3,4.4-0.8c1.3-0.5,2.4-1.3,3.3-2.2c0.9-1,1.6-2.1,2.1-3.5c0.5-1.3,0.7-2.9,0.7-4.5
		c0-1.7-0.2-3.2-0.7-4.5C25.8,12.5,25.1,11.4,24.1,10.4z M16.4,24.8c-3.4,0-5-2.1-5-6.4c0-4.2,1.7-6.3,5-6.3c3.4,0,5,2.1,5,6.3
		C21.5,22.7,19.8,24.8,16.4,24.8z"/>
	<path class="st0" d="M101.4,19.9c0-4.2-0.8-7.3-2.5-9.3c-1.7-2.1-4.1-3.1-7.3-3.1c-1.6,0-3,0.2-4.3,0.7c-1.2,0.5-2.3,1.2-3.2,2.1
		c-0.9,0.9-1.5,2-2,3.4c-0.5,1.3-0.7,2.8-0.7,4.4c0,7.6,3.5,11.4,10.4,11.4c2.2,0,4.2-0.6,5.8-1.7c1.6-1.2,2.7-2.8,3.4-5h-5.7
		c-0.2,0.7-0.6,1.3-1.3,1.7c-0.7,0.4-1.5,0.6-2.4,0.6c-1.4,0-2.5-0.5-3.3-1.4c-0.8-0.9-1.3-2.2-1.4-3.8v0L101.4,19.9L101.4,19.9z
		 M88.6,13.1c0.8-0.8,1.8-1.2,2.9-1.2c0.5,0,1.1,0.1,1.6,0.3c0.5,0.2,1,0.5,1.4,0.8c0.4,0.4,0.7,0.9,1,1.4c0.2,0.6,0.4,1.3,0.4,2
		h-8.5C87.3,15,87.8,13.9,88.6,13.1z"/>
	<path class="st0" d="M113.6,7.4c-0.6,0-1.1,0-1.7,0.1c-0.5,0.1-1.1,0.2-1.6,0.4c-0.5,0.2-1,0.5-1.5,0.9c-0.5,0.4-1,1-1.4,1.7V8
		h-5.1v20.9h5.4V18c0-3.4,1.7-5,5-5c0.5,0,1,0,1.5,0.1V7.4H113.6z"/>
	<path class="st0" d="M57.6,9.2c-0.6-0.6-1.3-1-2.2-1.3c-0.8-0.3-1.8-0.4-2.7-0.4c-0.7,0-1.4,0.1-2,0.2c-1.1,0.3-4.4,1.2-5.1,5.6
		c-0.1-0.3-0.1-0.7-0.2-1c-0.3-1-0.8-1.9-1.5-2.6C43.1,8.9,42.2,8.4,41,8c-1.1-0.4-2.5-0.6-4.2-0.6c-1.7,0-3.1,0.2-4.2,0.5
		c-1.2,0.4-2.1,0.9-2.8,1.5c-0.7,0.6-1.2,1.4-1.6,2.3c-0.3,0.9-0.5,1.9-0.5,3h5.1c0.1-0.9,0.5-1.7,1-2.2c0.6-0.6,1.5-0.8,2.7-0.8
		c1.1,0,1.9,0.2,2.6,0.6c0.6,0.4,1,0.9,1,1.6c0,0.7-0.2,1.3-0.7,1.6c-0.5,0.3-1.4,0.6-2.8,0.8c-1.4,0.2-2.7,0.4-3.8,0.7
		c-1.2,0.2-2.2,0.6-3,1.1c-0.8,0.5-1.5,1.2-2,2.1C27.3,21,27,22.2,27,23.7c0,1.7,0.6,3.1,1.7,4.1c1.1,1.1,2.9,1.6,5.3,1.6
		c1.4,0,2.7-0.2,3.7-0.7c1.1-0.4,1.9-1.5,2.6-2.2c0.1,0.7,0.2,1.8,0.3,2.4v0h5.1v-12c0-3.2,1.9-4.8,4.7-4.8c1.3,0,2.2,0.3,2.8,0.8
		c0.5,0.6,0.8,1.7,0.8,3.3v12.6h5.5V14.4c0-1.1-0.2-2.1-0.5-3C58.7,10.6,58.2,9.8,57.6,9.2z M40.2,21c0,0.6-0.1,1.2-0.4,1.8
		c-0.3,0.5-0.6,1-1.1,1.4c-0.4,0.4-1,0.7-1.6,1s-1.3,0.4-2,0.4c-1.8,0-2.7-0.8-2.7-2.3c0-0.9,0.3-1.6,0.9-2.1
		c0.6-0.5,1.7-0.9,3.3-1.2c1-0.2,1.8-0.4,2.3-0.6c0.5-0.2,0.9-0.2,1.2-0.5L40.2,21z"/>
	<path class="st0" d="M75.3,10.8c-1.6-2.2-3.6-3.3-6.2-3.3c-1.4,0-2.6,0.3-3.6,0.8c-1.1,0.5-2,1.3-2.7,2.2c-0.7,1-1.3,2.1-1.7,3.4
		c-0.4,1.3-0.6,2.8-0.6,4.3c0,1.8,0.2,3.3,0.7,4.7c0.5,1.4,1.1,2.6,1.9,3.5s1.7,1.7,2.8,2.2c1.1,0.5,2.3,0.8,3.6,0.8
		c2.6,0,4.5-1,5.8-3.1l0,2.5h5.3V0.5h-5.4L75.3,10.8L75.3,10.8z M74.2,23.4c-0.9,1.1-2,1.6-3.3,1.6c-1.4,0-2.5-0.6-3.4-1.8
		c-0.9-1.2-1.3-2.7-1.3-4.6c0-4.3,1.6-6.4,4.7-6.4c3.1,0,4.6,2.3,4.6,6.8C75.5,20.8,75.1,22.3,74.2,23.4z"/>
</g>
</svg>

