<svg id="istyle_white_red_1" xmlns="http://www.w3.org/2000/svg" viewBox="325 -41.5 850.4 283.5">
  <style>
    .st0{fill:#FFFFFF;} .st1{fill:#E31837;} .st2{fill:none;}
  </style>
  <path class="st0" d="M366 171.2v-70.3c-4.7-.8-11.3-1.6-17-1.9V75.9c16.2-1.8 33.6-2.4 52.6-1.8v97.3l-35.6-.2zm17.8-104.3c-11.7 0-21.3-9.2-21.3-20.5s9.6-20.5 21.3-20.5c11.8 0 21.3 9.1 21.3 20.5-.1 11.3-9.6 20.5-21.3 20.5zm59.7 107c-9 0-18.3-.8-27.2-2.7l2-33.2c7.2 2.5 18.2 4.7 28.1 4.7 8.8 0 14.5-3.7 14.5-9.8 0-19.2-49.3-7.8-49.3-52.9 0-26.1 20.1-43 54.9-43 6.6 0 15.8.8 24 2.2l-2 31.4c-7.6-2.2-15.4-3.5-23.5-3.5-10.1 0-14.4 4.1-14.4 9.2 0 16.6 49.2 10.1 49.2 51.4 0 26.2-21.1 46.2-56.3 46.2zm120-2.7h-36.3V70.7h-28.7V39.4H592v31.3h-28.5z"/>
  <path class="st1" d="M655.8 175.7c-11.7 0-21.3-9.2-21.3-20.5s9.6-20.5 21.3-20.5 21.3 9.2 21.3 20.5c-.1 11.4-9.6 20.5-21.3 20.5z"/>
  <path class="st0" d="M673.5 126h-36.1l-41.2-86.5h39.4L647.9 68c3.3 7.6 5.8 14.2 7.8 20.1h.4c2.4-7 5.9-14.9 9.6-23L677 39.5h38.5l-42 86.5zm44.3 45.2V39.4l36.2-.1v99.5h36.5v32.4zm78.7 0l-.1-131.9h77.1v30.9h-40.7l-.1 18.6 38.7-.1v29.7l-38.6.1v21.2h40.7v31.5z"/>
  <path class="st2" d="M934.5-6.4v214.3"/>
  <path class="st0" d="M933-6.4h3V208h-3zm76 135.8c0-1.8-.6-3.1-1.7-4-1.1-.9-2.6-1.4-4.6-1.4-1.3 0-2.3.1-3.1.3v10.6c.7.2 1.6.3 2.7.3 2.1 0 3.7-.5 4.9-1.5 1-1.3 1.8-2.6 1.8-4.3m4.5-.3c0 2.7-.8 4.9-2.4 6.5-2 2.1-5 3.2-9 3.2-1.2 0-2-.1-2.7-.2V150h-4.2v-29c1.7-.5 4.3-.7 7.2-.7 3.7 0 6.5.8 8.4 2.4 1.9 1.5 2.7 3.7 2.7 6.4m14.4 3.8c-.5-.1-.8-.1-1.2-.1-1.7 0-2.9.6-4 1.9-.8 1.1-1.2 2.5-1.2 4.2V150h-4.7v-14.6c0-2.4-.1-4.6-.2-6.6h4.1l.2 4h.2c.4-1.4 1.2-2.5 2.4-3.3 1.1-.8 2.2-1.2 3.5-1.2.2 0 .6 0 .9.1v4.5zm6.4 4.2c.1-1.4.6-2.7 1.4-3.7 1-1.3 2.2-2 3.8-2 1.7 0 2.9.7 3.8 2 .6 1 1 2.2.9 3.6l-9.9.1zm12.5-5.5c-1.6-2.2-3.9-3.4-7-3.4s-5.6 1.2-7.4 3.4c-1.8 2.1-2.6 4.8-2.6 8 0 3.3.9 5.9 2.8 7.8 1.9 2 4.5 2.9 7.8 2.9 2.7 0 5.1-.4 7.1-1.3l-.7-3.3c-1.7.7-3.7 1-5.8 1-1.9 0-3.5-.5-4.6-1.5-1.3-1.1-2-2.7-2.1-4.8h14.2c.1-.6.2-1.3.2-2.1.1-2.6-.7-4.9-1.9-6.7m35.3 18.3h-4.6V138c0-4-1.3-5.9-3.8-5.9-1 0-2 .5-2.8 1.5-.7.9-1.1 2.1-1.1 3.4v13h-4.6v-12.5c0-1.6-.4-2.8-1-3.8-.6-.9-1.6-1.4-2.9-1.4s-2.4.5-3.1 1.6c-.8 1-1.3 2.2-1.3 3.6v12.7h-4.6v-15.1c0-1.9-.1-3.9-.1-6.1h4l.3 3.1h.1c1.5-2.4 3.6-3.6 6.4-3.6 2.9 0 4.9 1.3 5.9 4h.1c.7-1.1 1.5-2 2.5-2.7 1.2-.8 2.3-1.3 3.7-1.3 1.9 0 3.5.7 4.7 2 1.5 1.5 2.3 3.9 2.3 7.1l-.1 12.3zm10.5 0h-4.7v-21.2h4.7v21.2zm.6-27.7c0 .8-.3 1.5-.8 2-.6.5-1.3.8-2.2.8-.8 0-1.4-.3-2-.8-.5-.5-.8-1.2-.8-2s.3-1.4.8-2c.6-.5 1.2-.8 2.1-.8.8 0 1.5.3 2.1.8.5.7.8 1.3.8 2m23.1 27.7h-4.2l-.3-3.2h-.1c-1.5 2.5-3.8 3.7-6.8 3.7-2.1 0-3.9-.6-5.2-2-1.5-1.6-2.2-4-2.2-7.2v-12.5h4.9v11.7c0 4.1 1.4 6.1 4.2 6.1 2.1 0 3.5-1 4.4-3 .2-.5.3-1.1.3-1.8v-13h4.7v15.1c.1 2.1.2 4.1.3 6.1m35 0h-4.6V138c0-4-1.3-5.9-4-5.9-1.3 0-2.3.5-3.1 1.5-.8.9-1.2 2.1-1.2 3.4v13h-4.6v-12.5c0-1.6-.4-2.8-1-3.8-.6-.9-1.6-1.4-2.9-1.4s-2.3.5-3.1 1.6c-.8 1-1.1 2.2-1.1 3.6v12.7h-4.5v-15.1c0-1.9 0-3.9-.1-6.1h4l.2 3.1h.1c1.2-2.4 3.3-3.6 6.1-3.6 2.9 0 4.9 1.3 5.9 4h.1c.7-1.1 1.5-2 2.5-2.7 1.3-.8 2.7-1.3 4.3-1.3 1.9 0 3.4.7 4.6 2 1.5 1.5 2.3 3.9 2.3 7.1l.1 12.3zm-131.5 24.8c0-3.4-2-5-6-5.1-1.5 0-2.6.1-3.4.3v10h3.3c1.9 0 3.3-.5 4.4-1.5 1.1-1 1.7-2.2 1.7-3.7m5.8 21.1h-5c-.4-.9-1.1-3.2-1.9-7-.4-2-1-3.4-1.9-4.2-.8-.8-2-1.3-3.6-1.3h-2.9v12.4h-4.8v-29.1c2.2-.4 4.7-.6 7.7-.6 4 0 7 .7 8.8 2.3 1.8 1.4 2.6 3.3 2.6 5.8 0 1.8-.6 3.4-1.8 4.8-1 1.2-2.2 2.1-3.8 2.6v.1c2 .7 3.4 2.7 4.3 5.9.7 2.5 1 4.2 1.3 5 .4 1.7.8 2.7 1 3.3m15.9-12.9c0-1.4-.3-2.6-1-3.6-.8-1.3-2.1-1.9-3.8-1.9-1.5 0-2.8.7-3.7 1.9-.8 1-1.3 2.2-1.4 3.7l9.9-.1zm4.6 1.3c0 .8-.1 1.5-.2 2.1h-14.2c0 2.1.7 3.8 2.1 4.8 1.2 1 2.7 1.5 4.6 1.5 2.2 0 4-.3 5.8-1l.7 3.3c-2 .9-4.3 1.3-7.1 1.3-3.3 0-5.9-1-7.8-2.9-1.9-2-2.8-4.5-2.8-7.8 0-3.2.8-5.9 2.6-8 1.8-2.3 4.3-3.4 7.4-3.4s5.4 1.1 7 3.4c1.2 1.7 1.9 3.9 1.9 6.7m17.1 5.5c0 1.9-.7 3.5-2.2 4.7s-3.5 1.8-6 1.8c-2.4 0-4.5-.5-6.2-1.4l1-3.5c1.6 1 3.4 1.4 5.3 1.4 2.4 0 3.6-.9 3.6-2.6 0-.8-.3-1.5-.8-2s-1.5-1-2.8-1.5c-3.8-1.4-5.7-3.4-5.7-6.1 0-1.8.7-3.3 2.1-4.6 1.4-1.2 3.3-1.8 5.6-1.8 2.1 0 3.9.4 5.4 1.3l-1 3.3c-1.4-.8-2.8-1.2-4.3-1.2-1 0-1.8.2-2.3.7s-.8 1.1-.8 1.8.3 1.3.9 1.8c.5.4 1.5.9 2.9 1.5 3.5 1.4 5.3 3.5 5.3 6.4m17-6.8c0-1.4-.3-2.6-1-3.6-.8-1.3-2-1.9-3.8-1.9-1.5 0-2.2.7-3.2 1.9-.8 1-1.2 2.2-1.4 3.7l9.4-.1zm4.6 1.3c0 .8-.1 1.5-.2 2.1h-13.7c0 2.1.8 3.8 2.1 4.8.8 1 2.2 1.5 4.1 1.5 2.1 0 4.1-.3 5.8-1l.7 3.3c-2 .9-4.4 1.3-7.1 1.3-2.9 0-5.3-1-7.2-2.9-1.9-2-2.8-4.5-2.8-7.8 0-3.2.9-5.9 2.6-8 1.9-2.3 4.4-3.4 6.9-3.4 3 0 5.4 1.1 7 3.4 1.1 1.7 1.8 3.9 1.8 6.7m9.1-19.4v31h-4.8v-31h4.8zm9.9 0v31h-5v-31h5zm19 18.1c0-1.4-.3-2.6-.9-3.6-.8-1.3-2.1-1.9-3.8-1.9-1.5 0-2.8.7-3.8 1.9-.8 1-1.3 2.2-1.4 3.7l9.9-.1zm4.2 1.3c0 .8 0 1.5-.1 2.1h-14c.1 2.1.8 3.8 2 4.8s2.8 1.5 4.7 1.5c2.1 0 4.1-.3 5.7-1l.6 3.3c-1.8.9-4.2 1.3-6.9 1.3-3.3 0-5.9-1-7.8-2.9-1.9-2-2.8-4.5-2.8-7.8 0-3.2.8-5.9 2.6-8 1.8-2.3 4.3-3.4 7.4-3.4s5.4 1.1 7 3.4c.9 1.7 1.6 3.9 1.6 6.7m15.6-5.5c-.5-.1-.9-.1-1.4-.1-1.6 0-2.9.6-3.8 1.9-.8 1.1-1.2 2.5-1.2 4.2v11.2h-4.8v-14.6c0-2.4 0-4.6-.1-6.7h4.1l.2 4h.1c.5-1.4 1.3-2.5 2.4-3.3 1.1-.7 2.2-1.1 3.4-1.1.5 0 .9 0 1.2.1l-.1 4.4zM1087.4 8.9c3.6-4.3 5.9-10.4 5.3-16.3-5.2.2-11.4 3.4-14.9 7.8-3.4 3.8-5.7 9.9-4.9 15.6 5.2.5 10.9-2.7 14.5-7.1m26.4 57.5c-.1.4-2.1 7.2-6.8 14.5-4.3 6.3-8.9 12.3-15.6 12.5-6.9.1-9.1-3.9-16.9-3.9-7.2 0-9.7 3.7-16.1 4-6.6.3-11.7-6.5-16-12.8-8.7-12.7-15.3-35.4-6.4-50.4 4.5-7.7 12.4-12.6 21.1-12.7 6.6-.2 12.7 4.3 16.6 4.3 3.7 0 11.1-5.5 19.1-4.7 3.1.1 12.7 1.4 18.5 10.1-.4.3-11.2 6.5-11 18.7 0 15.5 13.5 20.2 13.5 20.4"/>
</svg>